<svg width="132" height="20" viewBox="0 0 132 20" fill="none" xmlns="http://www.w3.org/2000/svg">
<g clip-path="url(#clip0_1573_3521)">
<path d="M131.54 18.4451C131.608 18.6178 131.56 18.8166 131.408 18.9226C131.054 19.1682 130.63 19.3627 130.136 19.5059C129.541 19.6643 128.916 19.7435 128.261 19.7435C126.654 19.7435 125.414 19.3079 124.541 18.4368C123.668 17.5458 123.232 16.2688 123.232 14.6056V8.0435C123.232 7.80337 123.037 7.60872 122.797 7.60872H121.198C120.957 7.60872 120.762 7.41406 120.762 7.17393V5.37063C120.762 5.1305 120.957 4.93585 121.198 4.93585H122.797C123.037 4.93585 123.232 4.7412 123.232 4.50106V2.39133C123.232 2.1512 123.427 1.95654 123.668 1.95654H126.07C126.311 1.95654 126.505 2.1512 126.505 2.39133V4.50106C126.505 4.7412 126.7 4.93585 126.941 4.93585H130.206C130.447 4.93585 130.642 5.1305 130.642 5.37063V7.17393C130.642 7.41406 130.447 7.60872 130.206 7.60872H126.941C126.7 7.60872 126.505 7.80337 126.505 8.0435V14.5165C126.505 15.3085 126.694 15.9223 127.071 16.3578C127.468 16.7935 128.013 17.0112 128.707 17.0112C129.266 17.0112 129.76 16.8935 130.191 16.6582C130.457 16.5128 130.819 16.5982 130.929 16.8803L131.54 18.4451Z" fill="black"/>
<path d="M104.352 19.7828C102.811 19.7828 101.43 19.4378 100.209 18.7478C98.9888 18.0578 98.0282 17.1016 97.3281 15.8793C96.6276 14.657 96.2773 13.277 96.2773 11.7393C96.2773 10.2015 96.6276 8.82154 97.3281 7.59924C98.0282 6.37697 98.9888 5.4208 100.209 4.7308C101.43 4.0408 102.811 3.6958 104.352 3.6958C105.892 3.6958 107.273 4.0408 108.494 4.7308C109.715 5.4208 110.665 6.37697 111.345 7.59924C112.046 8.82154 112.396 10.2015 112.396 11.7393C112.396 13.277 112.046 14.657 111.345 15.8793C110.665 17.1016 109.715 18.0578 108.494 18.7478C107.273 19.4378 105.892 19.7828 104.352 19.7828ZM104.352 16.9735C105.252 16.9735 106.053 16.7566 106.753 16.3229C107.473 15.8891 108.034 15.278 108.434 14.4895C108.854 13.7008 109.064 12.7841 109.064 11.7393C109.064 10.6944 108.854 9.77771 108.434 8.98911C108.034 8.20054 107.473 7.58941 106.753 7.15567C106.053 6.72197 105.252 6.50511 104.352 6.50511C103.471 6.50511 102.671 6.72197 101.95 7.15567C101.23 7.58941 100.66 8.20054 100.24 8.98911C99.8392 9.77771 99.6392 10.6944 99.6392 11.7393C99.6392 12.7841 99.8392 13.7008 100.24 14.4895C100.66 15.278 101.23 15.8891 101.95 16.3229C102.671 16.7566 103.471 16.9735 104.352 16.9735Z" fill="black"/>
<path d="M95.406 11.7393C95.3946 11.9058 95.3838 12.0755 95.3724 12.2484C95.3576 12.4775 95.1672 12.656 94.9372 12.656H83.9411C83.6802 12.656 83.4763 12.8837 83.5268 13.1391C83.7468 14.2548 84.2557 15.1583 85.0529 15.8497C85.963 16.6383 87.11 17.0326 88.4941 17.0326C90.0188 17.0326 91.2891 16.5573 92.3051 15.6068C92.495 15.4291 92.7982 15.4293 92.9703 15.6242L94.1513 16.9612C94.2929 17.1215 94.2981 17.3621 94.1531 17.5195C92.7651 19.0284 90.8491 19.7828 88.4052 19.7828C86.7837 19.7828 85.3496 19.4378 84.1036 18.7478C82.8577 18.0578 81.8888 17.1016 81.1966 15.8793C80.5043 14.657 80.1584 13.277 80.1584 11.7393C80.1584 10.2015 80.4948 8.82154 81.167 7.59924C81.8396 6.37697 82.7592 5.4208 83.9259 4.7308C85.0925 4.0408 86.4078 3.6958 87.8711 3.6958C89.2752 3.6958 90.5507 4.03094 91.6978 4.70124C92.8448 5.3518 93.7449 6.28823 94.3975 7.51054C95.0697 8.73284 95.406 10.1424 95.406 11.7393ZM87.8711 6.29811C86.6648 6.29811 85.6462 6.69241 84.8159 7.48097C84.1071 8.17015 83.6628 9.04758 83.4828 10.1132C83.4401 10.3656 83.6427 10.586 83.8993 10.586H91.8655C92.1243 10.586 92.3277 10.3611 92.2807 10.1069C92.0824 9.04415 91.6215 8.1688 90.8971 7.48097C90.0863 6.69241 89.0774 6.29811 87.8711 6.29811Z" fill="black"/>
<path d="M58.6011 19.7828C57.0602 19.7828 55.6796 19.4378 54.459 18.7478C53.2383 18.0578 52.2777 17.1016 51.5772 15.8793C50.8771 14.657 50.5269 13.277 50.5269 11.7393C50.5269 10.2015 50.8771 8.82154 51.5772 7.59924C52.2777 6.37697 53.2383 5.4208 54.459 4.7308C55.6796 4.0408 57.0602 3.6958 58.6011 3.6958C60.1419 3.6958 61.5229 4.0408 62.7436 4.7308C63.9643 5.4208 64.9149 6.37697 65.5949 7.59924C66.2954 8.82154 66.6457 10.2015 66.6457 11.7393C66.6457 13.277 66.2954 14.657 65.5949 15.8793C64.9149 17.1016 63.9643 18.0578 62.7436 18.7478C61.5229 19.4378 60.1419 19.7828 58.6011 19.7828ZM58.6011 16.9735C59.5016 16.9735 60.3023 16.7566 61.0023 16.3229C61.7229 15.8891 62.2831 15.278 62.6835 14.4895C63.1039 13.7008 63.3139 12.7841 63.3139 11.7393C63.3139 10.6944 63.1039 9.77771 62.6835 8.98911C62.2831 8.20054 61.7229 7.58941 61.0023 7.15567C60.3023 6.72197 59.5016 6.50511 58.6011 6.50511C57.7206 6.50511 56.9204 6.72197 56.1998 7.15567C55.4797 7.58941 54.9094 8.20054 54.489 8.98911C54.0887 9.77771 53.8887 10.6944 53.8887 11.7393C53.8887 12.7841 54.0887 13.7008 54.489 14.4895C54.9094 15.278 55.4797 15.8891 56.1998 16.3229C56.9204 16.7566 57.7206 16.9735 58.6011 16.9735Z" fill="black"/>
<path d="M42.6914 3.6958C44.5628 3.6958 46.0462 4.28386 47.1414 5.45997C48.2366 6.61619 48.7842 8.33054 48.7842 10.603V19.348C48.7842 19.5881 48.5891 19.7828 48.3486 19.7828H45.9643C45.7238 19.7828 45.5287 19.5881 45.5287 19.348V11.1114C45.5287 9.63619 45.2102 8.52984 44.5729 7.79228C43.9555 7.05471 43.0796 6.68593 41.9447 6.68593C40.6704 6.68593 39.6549 7.11454 38.8983 7.97171C38.1417 8.82889 37.7633 10.0448 37.7633 11.6197V19.348C37.7633 19.5881 37.5683 19.7828 37.3277 19.7828H34.9435C34.7029 19.7828 34.5078 19.5881 34.5078 19.348V11.1114C34.5078 9.63619 34.1992 8.52984 33.582 7.79228C32.9647 7.05471 32.0887 6.68593 30.9537 6.68593C29.6794 6.68593 28.6639 7.11454 27.9073 7.97171C27.1706 8.82889 26.8022 10.0448 26.8022 11.6197V19.348C26.8022 19.5881 26.6072 19.7828 26.3666 19.7828H23.9525C23.7119 19.7828 23.5168 19.5881 23.5168 19.348V4.30999C23.5168 4.06987 23.7119 3.87521 23.9525 3.87521H26.2172C26.4578 3.87521 26.6529 4.06987 26.6529 4.30999V4.84297C26.6529 5.27963 27.2938 5.48854 27.6161 5.19319C27.9619 4.87624 28.3477 4.60632 28.7734 4.38354C29.6694 3.92504 30.6849 3.6958 31.8198 3.6958C33.0145 3.6958 34.0599 3.96491 34.9558 4.50315C35.6169 4.88554 36.1588 5.40906 36.5814 6.07363C36.7732 6.37515 37.2467 6.39976 37.4653 6.11702C37.9623 5.47428 38.5793 4.94628 39.3164 4.53306C40.312 3.97488 41.437 3.6958 42.6914 3.6958Z" fill="black"/>
<path d="M80.1056 3.6958C80.4297 3.6958 80.6402 4.03657 80.4947 4.3257L72.8731 19.4732C72.799 19.6202 72.6483 19.7129 72.4836 19.7129H70.3232C69.9991 19.7129 69.7883 19.3721 69.9338 19.083L72.2078 14.564C72.2758 14.4297 72.2688 14.27 72.1904 14.1418L66.1881 4.35763C66.0104 4.0679 66.2191 3.6958 66.5597 3.6958H69.1875C69.3391 3.6958 69.4798 3.77445 69.5591 3.90345L73.642 10.555C73.8223 10.8485 74.2562 10.8267 74.4061 10.5167L77.5811 3.94181C77.6538 3.79141 77.8063 3.6958 77.9736 3.6958H80.1056Z" fill="black"/>
<path d="M117.708 5.39795C118.189 5.39795 118.579 5.7873 118.579 6.26751V19.0237C118.579 19.504 118.189 19.8933 117.708 19.8933H116.177C115.696 19.8933 115.306 19.504 115.306 19.0237V6.26751C115.306 5.7873 115.696 5.39795 116.177 5.39795H117.708Z" fill="black"/>
<path d="M116.978 4.34783C118.181 4.34783 119.156 3.37453 119.156 2.17391C119.156 0.973294 118.181 0 116.978 0C115.775 0 114.8 0.973294 114.8 2.17391C114.8 3.37453 115.775 4.34783 116.978 4.34783Z" fill="black"/>
<path d="M4.62375 0.376532C4.28151 10.3047 0 17.765 0 17.765C11.1223 23.2486 19.1683 17.765 19.1683 10.7721C19.1683 4.28571 12.8942 2.11386 10.1849 3.70121C10.1849 -1.65036 4.62375 0.376532 4.62375 0.376532Z" fill="#6E58FE"/>
</g>
<defs>
<clipPath id="clip0_1573_3521">
<rect width="132" height="20" fill="white"/>
</clipPath>
</defs>
</svg>
