<svg width="286" height="213" viewBox="0 0 286 213" fill="none" xmlns="http://www.w3.org/2000/svg">
<g clip-path="url(#clip0_2130_15297)">
<path d="M83.2669 202.236C77.1567 183.907 98.4065 175.889 115.841 172.483C128.911 169.929 142.507 173.096 147.821 183.541C148.628 185.128 147.935 187.004 146.422 187.942C124.611 201.458 89.1412 219.857 83.2669 202.236Z" fill="#FFF28F"/>
<path d="M69.285 25.948C76.1566 23.6805 82.0943 24.061 87.0873 26.343C91.9806 28.5801 95.5669 32.461 98.1905 36.5029C102.298 42.8299 104.531 50.4415 105.638 54.3775C121.553 33.0679 138.766 22.8162 155.341 21.0335C172.176 19.2229 187.551 26.238 199.215 37.7121C222.303 60.423 232.133 102.034 210.081 132.249C169.058 188.459 113.404 180.575 97.9009 178.578C92.2994 177.856 88.0575 176.211 84.9121 173.925C81.7418 171.621 79.8725 168.802 78.8356 166.061C77.8144 163.362 77.6241 160.813 77.6745 158.972C77.7 158.043 77.7873 157.268 77.8724 156.706C77.9147 156.425 77.9576 156.196 77.9923 156.024C78.0096 155.938 78.0248 155.866 78.0373 155.811C78.0433 155.782 78.0492 155.759 78.0541 155.738C78.0568 155.728 78.0584 155.718 78.0606 155.71C78.0617 155.706 78.0628 155.703 78.0639 155.699C78.0639 155.698 78.0644 155.695 78.0644 155.695C78.0655 155.692 78.066 155.69 81.3703 156.506L78.066 155.689L78.1013 155.548L78.1463 155.409C82.1984 143.15 80.7168 125.14 76.6192 106.979C72.566 89.014 66.1331 71.659 60.9839 61.0689C60.9801 61.0618 60.9763 61.0542 60.972 61.0461C60.941 60.9881 60.8993 60.9067 60.8478 60.8053C60.7442 60.6014 60.6016 60.3123 60.4302 59.9495C60.088 59.2245 59.6287 58.1957 59.1433 56.9446C58.1818 54.4668 57.0711 51.0025 56.6075 47.2448C56.1476 43.5156 56.2859 39.1824 58.1579 35.2086C60.0967 31.093 63.6943 27.793 69.285 25.948Z" fill="#8B79FF"/>
<path d="M134.919 116.69C134.212 116.661 133.674 117.309 133.966 117.954C135.64 121.66 140.921 125.283 146.415 120.222" fill="black"/>
<path d="M134.919 116.69C134.212 116.661 133.674 117.309 133.966 117.954C135.64 121.66 140.921 125.283 146.415 120.222C147.034 119.652 146.683 118.663 145.853 118.524L134.919 116.69Z" stroke="black" stroke-width="5.43295" stroke-linecap="round"/>
<path d="M127.8 97.4585C124.864 93.8071 115.438 91.7257 113.769 103.856" stroke="black" stroke-width="5.43295" stroke-linecap="round"/>
<path d="M165.895 79.5507C162.96 75.8988 153.533 73.8174 151.864 85.9472" stroke="black" stroke-width="5.43295" stroke-linecap="round"/>
<path d="M146.688 105.75C149.334 104.877 151.042 102.849 150.505 101.221C149.968 99.593 147.388 98.9807 144.742 99.8538C142.096 100.727 140.387 102.755 140.924 104.383C141.461 106.011 144.042 106.623 146.688 105.75Z" fill="black"/>
<path d="M205.366 166.127C250.484 153.729 251.64 122.326 237.159 111.123C208.178 88.7032 164.736 155.354 187.015 166.316C190.943 168.248 196.913 168.45 205.366 166.127Z" fill="#FFF28F"/>
<path d="M22.2619 76.1309H13.585V83.7232H22.2619V76.1309Z" fill="#FF79D2"/>
<path d="M270.801 97.2815L264.131 102.831L268.987 108.667L275.657 103.118L270.801 97.2815Z" fill="#FF79D2"/>
<path d="M278.68 82.3039L275.519 84.9346L279.407 89.6079L282.569 86.9772L278.68 82.3039Z" fill="#8B79FF"/>
<path d="M21.0856 62.5715L17.9238 65.2021L21.812 69.8754L24.9738 67.2448L21.0856 62.5715Z" fill="#8B79FF"/>
<path d="M5.41407 166.922L0.569336 170.953L4.45751 175.626L9.30224 171.596L5.41407 166.922Z" fill="#8B79FF"/>
<path d="M17.8308 126.565L14.6689 129.195L18.5571 133.869L21.7189 131.238L17.8308 126.565Z" fill="#FFE100"/>
<path d="M46.945 23.6155L43.7832 26.2461L47.6714 30.9194L50.8332 28.2887L46.945 23.6155Z" fill="#5BFFF1"/>
<path d="M281.935 27.8655L278.773 30.4961L282.662 35.1694L285.823 32.5388L281.935 27.8655Z" fill="#5BFFF1"/>
<path d="M238.324 190.692L229.812 189.008L228.339 196.456L236.851 198.14L238.324 190.692Z" fill="#FF79D2"/>
<path d="M114.99 152.734L104.325 166.423C93.5334 147.932 89.4666 140.037 74.8574 134.565L81.1937 126.404C96.8963 132.753 104.911 137.551 114.99 152.734Z" fill="#FFF28F"/>
<path d="M117.059 133.731L109.364 147.763C96.818 132.517 91.9535 125.928 77.8486 123.097L82.4159 114.734C97.6456 118.204 105.648 121.392 117.059 133.731Z" fill="#FFF28F"/>
<path d="M100.461 168.739L84.9725 176.567C83.1064 155.238 82.7979 146.363 71.9219 135.179L81.1351 130.503C92.6261 142.947 97.8263 150.707 100.461 168.739Z" fill="#FFF28F"/>
<path d="M85.2753 174.162L69.787 181.99C67.9209 160.66 67.6123 151.786 56.7363 140.602L65.9496 135.926C77.4406 148.37 82.6407 156.129 85.2753 174.162Z" fill="#FFF28F"/>
<path d="M51.792 174.162L67.2798 181.99C69.1464 160.66 69.455 151.786 80.3304 140.602L71.1171 135.926C59.6267 148.37 54.426 156.129 51.792 174.162Z" fill="#FFF28F"/>
<path d="M74.0524 167.238C92.7717 167.238 107.947 153.763 107.947 137.14C107.947 120.517 92.7717 107.042 74.0524 107.042C55.3332 107.042 40.1582 120.517 40.1582 137.14C40.1582 153.763 55.3332 167.238 74.0524 167.238Z" fill="#FFF28F"/>
<path d="M31.4512 141.326L36.1201 158.04C53.1243 145.03 59.8842 139.271 75.4772 139.755L72.7136 129.8C55.7768 129.711 46.5402 131.107 31.4512 141.326Z" fill="#FFF28F"/>
<path d="M37.1445 160.869L47.8093 174.558C58.6013 156.067 62.6686 148.172 77.2778 142.7L70.9415 134.539C55.239 140.888 47.2236 145.686 37.1445 160.869Z" fill="#FFF28F"/>
<path d="M86.5865 166.621L70.4523 173.013C72.32 156.127 73.544 149.095 65.0693 140.36L74.6704 136.542C83.5165 146.269 87.1559 152.358 86.5865 166.621Z" fill="#FFE628"/>
<path d="M47.7764 158.507L60.3389 167.213C61.32 153.495 61.3547 147.682 69.7767 142.735L62.3037 137.544C53.4202 143.186 49.4505 147.15 47.7764 158.507Z" fill="#FFEC5B"/>
<path d="M42.1436 136.442L43.729 151.644C54.7719 143.448 59.2037 139.684 68.4441 142.848L67.5102 133.797C57.4417 130.737 51.8478 130.309 42.1436 136.442Z" fill="#FFEC5B"/>
<path d="M106.157 139.153L104.572 154.355C93.5291 146.159 89.0974 142.395 79.8564 145.559L80.7903 136.508C90.8593 133.448 96.4527 133.02 106.157 139.153Z" fill="#FFEC5B"/>
<path d="M84.8488 107.243L99.0356 112.929C88.1292 121.307 83.2967 124.539 83.8103 134.293L75.3601 130.917C75.173 120.395 76.2934 114.898 84.8488 107.243Z" fill="#FFEC5B"/>
<path d="M59.7678 106.157L45.5811 111.843C56.4869 120.221 61.3199 123.453 60.8063 133.207L69.2566 129.831C69.4437 119.309 68.3227 113.812 59.7678 106.157Z" fill="#FFEC5B"/>
<path d="M63.4766 98.9082H80.8304L76.4919 141.751H66.4593L63.4766 98.9082Z" fill="#FFE100"/>
<path d="M105.196 118.083L113.369 133.392C92.0877 135.736 89.8181 131.374 78.8809 142.498L73.999 133.392C86.182 121.625 87.227 121.122 105.196 118.083Z" fill="#FFE100"/>
<path d="M53.6846 157.483L67.9483 167.368C69.0622 151.793 69.1013 145.191 78.6644 139.576L70.1789 133.681C60.0919 140.086 55.5848 144.588 53.6846 157.483Z" fill="#FFE100"/>
<path d="M94.7786 157.483L80.5154 167.368C79.4009 151.793 79.3619 145.191 69.7988 139.576L78.2843 133.681C88.3712 140.086 92.8784 144.588 94.7786 157.483Z" fill="#FFE100"/>
<path d="M39.6549 113.755L31.4814 129.063C52.763 131.408 61.6292 131.916 72.5665 143.039L77.4478 133.934C65.2648 122.167 57.6237 116.793 39.6549 113.755Z" fill="#FFE100"/>
<path d="M266.835 69.2181L256.17 82.9076C245.378 64.416 241.311 56.5216 226.702 51.0498L233.038 42.8887C248.741 49.2373 256.756 54.035 266.835 69.2181Z" fill="#C9FFFC"/>
<path d="M268.904 50.2149L261.209 64.2473C248.664 49.0007 243.799 42.4126 229.694 39.5808L234.262 31.2188C249.491 34.6876 257.494 37.876 268.904 50.2149Z" fill="#C9FFFC"/>
<path d="M252.306 85.2233L236.817 93.0515C234.951 71.722 234.643 62.8471 223.767 51.6631L232.98 46.9873C244.471 59.4311 249.671 67.191 252.306 85.2233Z" fill="#C9FFFC"/>
<path d="M237.121 90.6461L221.633 98.4743C219.767 77.1448 219.458 68.2699 208.582 57.0859L217.795 52.4102C229.286 64.8539 234.486 72.6138 237.121 90.6461Z" fill="#C9FFFC"/>
<path d="M203.64 90.6461L219.127 98.4743C220.994 77.1448 221.303 68.2699 232.178 57.0859L222.965 52.4102C211.474 64.8539 206.274 72.6138 203.64 90.6461Z" fill="#C9FFFC"/>
<path d="M225.898 83.7225C244.617 83.7225 259.792 70.2472 259.792 53.6244C259.792 37.0017 244.617 23.5264 225.898 23.5264C207.179 23.5264 192.004 37.0017 192.004 53.6244C192.004 70.2472 207.179 83.7225 225.898 83.7225Z" fill="#C9FFFC"/>
<path d="M183.297 57.8107L187.966 74.5246C204.97 61.5141 211.73 55.7554 227.323 56.2396L224.559 46.2841C207.623 46.1956 198.386 47.5911 183.297 57.8107Z" fill="#C9FFFC"/>
<path d="M188.99 77.3519L199.655 91.0414C210.447 72.5497 214.514 64.6554 229.124 59.1835L222.787 51.0225C207.085 57.3711 199.07 62.1689 188.99 77.3519Z" fill="#C9FFFC"/>
<path d="M238.434 83.1052L222.3 89.4969C224.168 72.611 225.392 65.5795 216.917 56.844L226.518 53.0264C235.364 62.753 239.004 68.842 238.434 83.1052Z" fill="#5BFFF1"/>
<path d="M199.623 74.991L212.186 83.6967C213.167 69.9795 213.201 64.166 221.623 59.2196L214.15 54.0283C205.267 59.6697 201.297 63.634 199.623 74.991Z" fill="#5BFFF1"/>
<path d="M193.989 52.9259L195.574 68.1271C206.617 59.9313 211.049 56.1676 220.29 59.3315L219.356 50.2802C209.287 47.2198 203.693 46.793 193.989 52.9259Z" fill="#5BFFF1"/>
<path d="M258.002 55.6367L256.416 70.8381C245.374 62.6422 240.942 58.8786 231.701 62.0424L232.635 52.9912C242.704 49.9308 248.297 49.504 258.002 55.6367Z" fill="#5BFFF1"/>
<path d="M236.695 23.7266L250.881 29.4128C239.975 37.7901 235.142 41.0223 235.656 50.7761L227.206 47.4002C227.019 36.8783 228.139 31.3813 236.695 23.7266Z" fill="#5BFFF1"/>
<path d="M211.615 22.6416L197.428 28.3278C208.334 36.7051 213.167 39.9373 212.653 49.6911L221.103 46.3152C221.29 35.7933 220.169 30.2964 211.615 22.6416Z" fill="#5BFFF1"/>
<path d="M215.323 15.3926H232.677L228.339 58.2349H218.306L215.323 15.3926Z" fill="#42ECFF"/>
<path d="M257.042 34.5674L265.215 49.8759C243.933 52.2203 241.664 47.8587 230.727 58.9826L225.845 49.8766C238.028 38.1096 239.073 37.6057 257.042 34.5674Z" fill="#42ECFF"/>
<path d="M205.531 73.9663L219.795 83.851C220.909 68.2759 220.948 61.6744 230.511 56.0588L222.026 50.1641C211.939 56.5696 207.431 61.0708 205.531 73.9663Z" fill="#42ECFF"/>
<path d="M246.623 73.9663L232.36 83.851C231.246 68.2759 231.207 61.6744 221.644 56.0588L230.129 50.1641C240.216 56.5696 244.723 61.0708 246.623 73.9663Z" fill="#42ECFF"/>
<path d="M191.5 30.2383L183.326 45.5468C204.608 47.8912 213.474 48.3989 224.411 59.5228L229.293 50.4167C217.11 38.6497 209.469 33.2766 191.5 30.2383Z" fill="#42ECFF"/>
</g>
<defs>
<clipPath id="clip0_2130_15297">
<rect width="284.994" height="211.5" fill="white" transform="translate(0.50293 0.75)"/>
</clipPath>
</defs>
</svg>
