<svg width="456" height="252" viewBox="0 0 456 252" fill="none" xmlns="http://www.w3.org/2000/svg">
<path d="M160.621 17.3794H136V210.724H160.621V17.3794Z" fill="#535353"/>
<path d="M300.892 17.3794H276.271V210.724H300.892V17.3794Z" fill="#535353"/>
<path d="M339.068 40.853H98.3799V93.1125H339.068V40.853Z" fill="#FFCC00"/>
<mask id="mask0_2112_17573" style="mask-type:alpha" maskUnits="userSpaceOnUse" x="98" y="40" width="242" height="54">
<path d="M339.068 40.853H98.3799V93.1125H339.068V40.853Z" fill="#FFCC00"/>
</mask>
<g mask="url(#mask0_2112_17573)">
<path d="M179.99 -61.3126L154.387 -71.0264L80.6761 123.256L106.279 132.97L179.99 -61.3126Z" fill="#535353"/>
<path d="M238.507 -61.3126L212.904 -71.0264L139.194 123.256L164.797 132.97L238.507 -61.3126Z" fill="#535353"/>
<path d="M297.023 -61.3126L271.42 -71.0264L197.709 123.256L223.312 132.97L297.023 -61.3126Z" fill="#535353"/>
<path d="M99.671 22.4508L85.1064 16.925L43.1757 127.444L57.7402 132.97L99.671 22.4508Z" fill="#535353"/>
<path d="M355.54 -61.3126L329.937 -71.0264L256.226 123.256L281.829 132.97L355.54 -61.3126Z" fill="#535353"/>
<path d="M414.092 -61.3126L388.489 -71.0264L314.779 123.256L340.382 132.97L414.092 -61.3126Z" fill="#535353"/>
</g>
<path d="M303.513 82.2028C304.643 78.9666 309.22 78.9666 310.349 82.2028L352.284 202.289C353.106 204.643 351.359 207.104 348.866 207.104H264.996C262.503 207.104 260.757 204.643 261.578 202.289L303.513 82.2028Z" fill="#FF7438"/>
<path d="M357.621 202.034H256.242C254.242 202.034 252.621 203.655 252.621 205.655V209.276C252.621 211.275 254.242 212.896 256.242 212.896H357.621C359.621 212.896 361.242 211.275 361.242 209.276V205.655C361.242 203.655 359.621 202.034 357.621 202.034Z" fill="#FF7438"/>
<mask id="mask1_2112_17573" style="mask-type:alpha" maskUnits="userSpaceOnUse" x="261" y="79" width="92" height="129">
<path d="M303.513 82.2028C304.643 78.9666 309.22 78.9666 310.349 82.2028L352.284 202.289C353.106 204.643 351.359 207.104 348.866 207.104H264.996C262.503 207.104 260.757 204.643 261.578 202.289L303.513 82.2028Z" fill="#FF7438"/>
</mask>
<g mask="url(#mask1_2112_17573)">
<path d="M344.586 129.621H266.379V157.138H344.586V129.621Z" fill="#D9D9D9"/>
<path d="M344.586 115.138H266.379V121.655H344.586V115.138Z" fill="#D9D9D9"/>
</g>
<path d="M332.81 208.267C332.767 194.222 349.263 193.527 362.074 195.148C371.678 196.362 380.343 201.646 381.632 210.067C381.828 211.346 380.922 212.484 379.664 212.786C361.528 217.149 332.851 221.769 332.81 208.267Z" fill="#FFF28F"/>
<path d="M334.193 180.791C346.324 164.429 346.7 127.097 344.349 109.7C344.349 109.7 340.964 90.5173 355.351 90.5173C373.97 90.5173 371.149 113.086 371.149 117.318C371.149 120.703 374.816 118.446 374.816 118.446C437.725 73.5667 468.193 161.266 426.723 190.971C386.947 219.464 351.666 202.011 341.528 197.153C327.987 190.665 334.193 180.791 334.193 180.791Z" fill="#8B79FF"/>
<path d="M399.974 164.992C400.351 168.378 396.589 174.302 389.483 168.942" stroke="#0D005E" stroke-width="3.94228" stroke-linecap="round"/>
<path d="M372.833 143.351C375.126 143.351 376.984 145.21 376.984 147.503C376.984 149.796 375.126 151.654 372.833 151.654C370.54 151.654 368.682 149.796 368.682 147.503C368.682 145.21 370.54 143.351 372.833 143.351Z" fill="#0D005E" stroke="#0D005E" stroke-width="0.724138"/>
<path d="M402.736 140.53C405.029 140.53 406.888 142.389 406.888 144.681C406.888 146.974 405.029 148.833 402.736 148.833C400.443 148.833 398.585 146.974 398.585 144.681C398.585 142.389 400.443 140.53 402.736 140.53Z" fill="#0D005E" stroke="#0D005E" stroke-width="0.724138"/>
<path d="M390.604 156.328C391.561 156.328 392.411 156.568 393.009 156.936C393.612 157.307 393.91 157.772 393.91 158.223C393.91 158.673 393.612 159.138 393.009 159.51C392.411 159.878 391.561 160.117 390.604 160.117C389.648 160.117 388.799 159.878 388.201 159.51C387.598 159.138 387.3 158.673 387.3 158.223C387.3 157.772 387.598 157.307 388.201 156.936C388.799 156.568 389.648 156.328 390.604 156.328Z" fill="#0D005E" stroke="#0D005E" stroke-width="0.724138"/>
<path d="M386.593 208.463C387.122 194.428 403.632 194.406 416.367 196.547C425.914 198.152 434.356 203.783 435.301 212.25C435.444 213.536 434.494 214.635 433.224 214.886C414.926 218.506 386.084 221.956 386.593 208.463Z" fill="#FFF28F"/>
<path d="M449.69 117.305L334.592 131.773C332.608 132.023 331.242 133.828 331.541 135.805L331.853 137.87C332.152 139.847 334.003 141.248 335.987 140.999L451.084 126.53C453.068 126.281 454.434 124.476 454.135 122.499L453.823 120.434C453.525 118.456 451.674 117.056 449.69 117.305Z" fill="#FFD943"/>
<path d="M339.516 132.768C336.256 111.969 351.804 92.8845 374.246 90.1408L396.93 87.3687C419.371 84.6251 440.207 99.2625 443.468 120.062C443.485 120.166 443.407 120.261 443.295 120.275L339.749 132.931C339.637 132.945 339.533 132.872 339.516 132.768Z" fill="#FFD943"/>
<path d="M391.869 113.876L395.349 113.36L396.412 120.523L392.933 121.039L393.392 124.134L386.485 125.159L386.025 122.064L382.802 122.543L381.739 115.379L384.963 114.901L384.572 112.266L391.478 111.241L391.869 113.876Z" fill="#1DB459"/>
<path d="M88.6432 107.921C93.4322 109.256 98.1994 107.161 99.2909 103.242C100.382 99.3241 97.3851 95.0662 92.5961 93.7321C87.8071 92.3979 83.0399 94.4928 81.9484 98.4111C80.8568 102.329 83.8542 106.587 88.6432 107.921Z" fill="#FFF28F"/>
<path d="M50.5115 106.064C30.0082 101.292 34.6123 90.0797 24.8666 82.4995C12.6843 73.0241 29.6083 54.2582 38.4066 66.4403L41.5935 62.5339C47.0182 52.6186 44.5591 33.0318 44.5591 18.1196C44.5591 3.90769 66.2163 7.29252 66.2163 19.4357V45.7209C66.2163 47.9905 68.4058 49.6094 70.6214 49.1173C86.7047 45.5448 110.444 47.0197 108.716 77.639C106.821 111.208 74.676 111.688 50.5115 106.064Z" fill="#F7F669"/>
<path d="M62.8229 116.108C67.6119 117.442 72.379 115.347 73.4706 111.429C74.5622 107.511 71.5648 103.253 66.7758 101.919C61.9868 100.584 57.2196 102.679 56.128 106.598C55.0365 110.516 58.0339 114.774 62.8229 116.108Z" fill="#FFF28F"/>
<path d="M48.1099 114.252C43.7024 155.544 56.9815 163.079 60.5786 164.707C75.947 171.667 128.141 176.596 127.852 138.61C127.627 109.114 96.9549 103.276 77.1367 101.897C76.0498 101.822 75.0092 102.37 74.4958 103.331C72.6661 106.756 72.0258 109.39 72.1775 114.252C50.4028 97.1438 48.6361 109.322 48.1099 114.252Z" fill="#00B2FF"/>
<path d="M83.1158 219.73C112.629 218.366 128.645 208.429 127.833 193.968C127.023 179.508 113.979 190.505 113.979 190.505C114.97 185.684 125.001 181.373 127.834 163.74C130.459 147.403 113.262 153.492 110.83 159.675C108.311 142.957 88.9538 151.186 87.0631 159.675C83.1158 143.587 64.2279 151.774 62.3386 163.74C53.8367 182.633 42.3113 221.616 83.1158 219.73Z" fill="#FE90FF"/>
<path d="M100.124 187.042C101.384 185.153 104.47 182.319 107.996 187.358" stroke="#620063" stroke-width="4.40837" stroke-linecap="round"/>
<path d="M77.4531 187.042C78.7124 185.153 81.7987 182.319 85.3252 187.358" stroke="#620063" stroke-width="4.40837" stroke-linecap="round"/>
<path d="M93.197 192.079C93.8927 192.079 94.4566 191.797 94.4566 191.449C94.4566 191.101 93.8927 190.819 93.197 190.819C92.5014 190.819 91.9375 191.101 91.9375 191.449C91.9375 191.797 92.5014 192.079 93.197 192.079Z" fill="#620063"/>
<mask id="mask2_2112_17573" style="mask-type:luminance" maskUnits="userSpaceOnUse" x="91" y="190" width="4" height="3">
<path d="M93.197 192.079C93.8927 192.079 94.4566 191.797 94.4566 191.449C94.4566 191.101 93.8927 190.819 93.197 190.819C92.5014 190.819 91.9375 191.101 91.9375 191.449C91.9375 191.797 92.5014 192.079 93.197 192.079Z" fill="white"/>
</mask>
<g mask="url(#mask2_2112_17573)">
<path d="M94.4562 191.449H93.8269C93.8269 191.356 93.8667 191.299 93.8769 191.287C93.8826 191.28 93.8674 191.301 93.8059 191.331C93.6828 191.393 93.4677 191.449 93.1969 191.449V192.079V192.709C93.6212 192.709 94.0362 192.624 94.3693 192.458C94.664 192.311 95.0862 191.99 95.0862 191.449H94.4562ZM93.1969 192.079V191.449C92.9253 191.449 92.711 191.393 92.5879 191.331C92.5263 191.301 92.5104 191.28 92.5169 191.287C92.5271 191.299 92.5669 191.356 92.5669 191.449H91.9376H91.3076C91.3076 191.99 91.7298 192.311 92.0245 192.458C92.3569 192.624 92.7725 192.709 93.1969 192.709V192.079ZM91.9376 191.449H92.5669C92.5669 191.543 92.5271 191.6 92.5169 191.611C92.5104 191.618 92.5263 191.598 92.5879 191.567C92.711 191.505 92.9253 191.449 93.1969 191.449V190.82V190.19C92.7725 190.19 92.3569 190.274 92.0245 190.441C91.7298 190.588 91.3076 190.908 91.3076 191.449H91.9376ZM93.1969 190.82V191.449C93.4677 191.449 93.6828 191.505 93.8059 191.567C93.8674 191.598 93.8826 191.618 93.8769 191.611C93.8667 191.6 93.8269 191.543 93.8269 191.449H94.4562H95.0862C95.0862 190.908 94.664 190.588 94.3693 190.441C94.0362 190.274 93.6212 190.19 93.1969 190.19V190.82Z" fill="#620063"/>
</g>
<path d="M75.4186 225.688C80.2076 227.022 84.9748 224.927 86.0663 221.009C87.1579 217.091 84.1605 212.833 79.3715 211.499C74.5825 210.165 69.8153 212.259 68.7238 216.178C67.6322 220.096 70.6296 224.354 75.4186 225.688Z" fill="#FFF28F"/>
<path d="M109.231 224.204C113.87 222.052 116.203 217.23 114.442 213.435C112.681 209.64 107.493 208.308 102.855 210.46C98.2164 212.612 95.8835 217.434 97.6443 221.229C99.4052 225.024 104.593 226.356 109.231 224.204Z" fill="#FFF28F"/>
<path d="M60.7634 129.732C63.0242 129.732 64.8569 127.899 64.8569 125.639C64.8569 123.378 63.0242 121.545 60.7634 121.545C58.5026 121.545 56.6699 123.378 56.6699 125.639C56.6699 127.899 58.5026 129.732 60.7634 129.732Z" fill="#00405C"/>
<path d="M87.2141 126.898C89.301 126.898 90.9928 125.206 90.9928 123.119C90.9928 121.033 89.301 119.341 87.2141 119.341C85.1273 119.341 83.4355 121.033 83.4355 123.119C83.4355 125.206 85.1273 126.898 87.2141 126.898Z" fill="#00405C" stroke="#00405C" stroke-width="0.629768"/>
<path d="M56.6699 121.545C57.9294 121.545 61.4561 121.545 65.4867 121.545" stroke="#00405C" stroke-width="4.40837" stroke-linecap="round"/>
<path d="M82.4902 119.026C83.7495 119.026 87.2768 119.026 91.3073 119.026" stroke="#00405C" stroke-width="4.40837" stroke-linecap="round"/>
<path d="M75.5633 126.268C76.0318 126.268 76.4409 126.396 76.7248 126.585C77.0101 126.775 77.1376 127.003 77.1376 127.213C77.1376 127.423 77.0101 127.651 76.7248 127.842C76.4409 128.031 76.0318 128.158 75.5633 128.158C75.0955 128.158 74.6856 128.031 74.4025 127.842C74.1165 127.651 73.9883 127.423 73.9883 127.213C73.9883 127.003 74.1165 126.775 74.4025 126.585C74.6856 126.396 75.0955 126.268 75.5633 126.268Z" fill="#00405C" stroke="#00405C" stroke-width="0.629768"/>
<path d="M59.3302 73.3921C59.8334 73.3921 60.2738 73.5282 60.5783 73.731C60.8851 73.9359 61.0224 74.1814 61.0224 74.4066C61.0224 74.6318 60.8851 74.8773 60.5783 75.0822C60.2738 75.285 59.8334 75.4218 59.3302 75.4218C58.8271 75.4218 58.3866 75.285 58.0821 75.0822C57.7753 74.8773 57.6387 74.6318 57.6387 74.4066C57.6387 74.1814 57.7753 73.9359 58.0821 73.731C58.3866 73.5282 58.8271 73.3921 59.3302 73.3921Z" fill="#595900" stroke="#595900" stroke-width="0.676789"/>
<path d="M49.9782 72.8843C51.6602 72.8843 53.0237 71.5208 53.0237 69.8388C53.0237 68.1568 51.6602 66.7932 49.9782 66.7932C48.2962 66.7932 46.9326 68.1568 46.9326 69.8388C46.9326 71.5208 48.2962 72.8843 49.9782 72.8843Z" fill="#595900" stroke="#595900" stroke-width="0.676789"/>
<path d="M68.2516 72.8843C69.9336 72.8843 71.2972 71.5208 71.2972 69.8388C71.2972 68.1568 69.9336 66.7932 68.2516 66.7932C66.5696 66.7932 65.2061 68.1568 65.2061 69.8388C65.2061 71.5208 66.5696 72.8843 68.2516 72.8843Z" fill="#595900" stroke="#595900" stroke-width="0.676789"/>
<path d="M56.6699 81.165L59.5378 80.3119C60.2598 80.0969 61.0329 80.1295 61.7345 80.4039L64.1146 81.3337" stroke="#595900" stroke-width="2.89655" stroke-linecap="round"/>
<path d="M50.3271 61.7173L54.676 65.0128" stroke="#595900" stroke-width="3.38395" stroke-linecap="round"/>
<path d="M90.6775 203.73C92.9382 203.73 94.771 201.897 94.771 199.636C94.771 197.375 92.9382 195.543 90.6775 195.543C88.4167 195.543 86.584 197.375 86.584 199.636C86.584 201.897 88.4167 203.73 90.6775 203.73Z" fill="#620063" stroke="#620063" stroke-width="0.629768"/>
<path d="M79.9714 138.863C82.2322 138.863 84.0649 137.031 84.0649 134.77C84.0649 132.509 82.2322 130.677 79.9714 130.677C77.7107 130.677 75.8779 132.509 75.8779 134.77C75.8779 137.031 77.7107 138.863 79.9714 138.863Z" fill="#00405C" stroke="#00405C" stroke-width="0.629768"/>
<path d="M17.6211 1.3375L6.08492 4.5143C4.7436 4.88367 3.95568 6.27046 4.32505 7.61177L42.9483 147.867C43.3177 149.208 44.7045 149.996 46.0458 149.627L57.5819 146.45C58.9232 146.081 59.7111 144.694 59.3418 143.353L20.7185 3.09737C20.3492 1.75605 18.9624 0.968133 17.6211 1.3375Z" fill="#FF7438"/>
<path d="M56.3944 135.02L40.6081 139.367C38.9315 139.829 37.9466 141.563 38.4083 143.239L39.7459 148.097C40.2076 149.773 41.9411 150.758 43.6177 150.296L59.404 145.949C61.0806 145.487 62.0655 143.754 61.6038 142.077L60.2662 137.22C59.8045 135.543 58.071 134.558 56.3944 135.02Z" fill="#535353"/>
<path d="M43.4453 147.304L59.2317 142.957L64.2476 161.172C65.171 164.526 63.2012 167.993 59.848 168.916L56.205 169.919C52.8516 170.842 49.3847 168.873 48.4613 165.519L43.4453 147.304Z" fill="#535353"/>
<path d="M58.4137 163.341C63.2027 164.675 67.9699 162.58 69.0614 158.662C70.153 154.744 67.1556 150.486 62.3666 149.152C57.5776 147.818 52.8104 149.912 51.7189 153.831C50.6273 157.749 53.6247 162.007 58.4137 163.341Z" fill="#FFF28F"/>
<path d="M24.5912 86.1566C20.7022 79.9334 20.6419 76.3402 19.8605 70.1514C19.8406 69.9939 19.8796 69.8309 19.9777 69.7061C23.2556 65.5359 32.1481 66.871 34.6286 74.3126C36.5683 80.1318 29.5233 84.6671 25.3422 86.4028C25.0661 86.518 24.7495 86.4108 24.5912 86.1566Z" fill="#F7F669"/>
</svg>
