<svg width="494" height="223" viewBox="0 0 494 223" fill="none" xmlns="http://www.w3.org/2000/svg">
<g clip-path="url(#clip0_2130_19813)">
<path d="M12.8616 73.0391C13.2382 69.4122 16.295 66.6562 19.9417 66.6562H83.5392C87.2228 66.6562 90.2979 69.4665 90.6289 73.1352L101.09 189.161C101.466 193.328 98.1841 196.919 94.0007 196.919H7.89526C3.67326 196.919 0.379163 193.265 0.815169 189.065L12.8616 73.0391Z" fill="#323232"/>
<path d="M52.319 192.647C70.9925 192.647 86.1303 177.509 86.1303 158.836C86.1303 140.162 70.9925 125.024 52.319 125.024C33.6456 125.024 18.5078 140.162 18.5078 158.836C18.5078 177.509 33.6456 192.647 52.319 192.647Z" fill="white"/>
<path d="M51.9621 189.087C68.6699 189.087 82.2143 175.543 82.2143 158.835C82.2143 142.127 68.6699 128.583 51.9621 128.583C35.2543 128.583 21.71 142.127 21.71 158.835C21.71 175.543 35.2543 189.087 51.9621 189.087Z" fill="#F8F8F8"/>
<path d="M52.3186 181.97C65.0951 181.97 75.4526 171.613 75.4526 158.836C75.4526 146.06 65.0951 135.702 52.3186 135.702C39.542 135.702 29.1846 146.06 29.1846 158.836C29.1846 171.613 39.542 181.97 52.3186 181.97Z" fill="#C2C2C2"/>
<path d="M52.3186 174.852C61.1639 174.852 68.3344 167.681 68.3344 158.836C68.3344 149.991 61.1639 142.82 52.3186 142.82C43.4733 142.82 36.3027 149.991 36.3027 158.836C36.3027 167.681 43.4733 174.852 52.3186 174.852Z" fill="#323232"/>
<path d="M52.3181 115.059C63.129 115.059 71.893 106.295 71.893 95.4841C71.893 84.6732 63.129 75.9092 52.3181 75.9092C41.5072 75.9092 32.7432 84.6732 32.7432 95.4841C32.7432 106.295 41.5072 115.059 52.3181 115.059Z" fill="white"/>
<path d="M52.3182 108.879C59.7151 108.879 65.7116 102.882 65.7116 95.4852C65.7116 88.0882 59.7151 82.0918 52.3182 82.0918C44.9212 82.0918 38.9248 88.0882 38.9248 95.4852C38.9248 102.882 44.9212 108.879 52.3182 108.879Z" fill="#C2C2C2"/>
<path d="M52.3182 104.757C57.4392 104.757 61.5905 100.605 61.5905 95.4842C61.5905 90.3633 57.4392 86.2119 52.3182 86.2119C47.1973 86.2119 43.0459 90.3633 43.0459 95.4842C43.0459 100.605 47.1973 104.757 52.3182 104.757Z" fill="#323232"/>
<path d="M29.1844 180.546C29.9706 180.546 30.608 179.909 30.608 179.123C30.608 178.337 29.9706 177.699 29.1844 177.699C28.3981 177.699 27.7607 178.337 27.7607 179.123C27.7607 179.909 28.3981 180.546 29.1844 180.546Z" fill="#C2C2C2"/>
<path d="M76.1639 180.546C76.9501 180.546 77.5875 179.909 77.5875 179.123C77.5875 178.337 76.9501 177.699 76.1639 177.699C75.3776 177.699 74.7402 178.337 74.7402 179.123C74.7402 179.909 75.3776 180.546 76.1639 180.546Z" fill="#C2C2C2"/>
<path d="M404.425 73.0391C404.802 69.4122 407.858 66.6562 411.505 66.6562H475.103C478.787 66.6562 481.862 69.4665 482.192 73.1352L492.653 189.161C493.029 193.328 489.748 196.919 485.564 196.919H399.459C395.237 196.919 391.943 193.265 392.379 189.065L404.425 73.0391Z" fill="#323232"/>
<path d="M443.882 192.647C462.555 192.647 477.693 177.509 477.693 158.836C477.693 140.162 462.555 125.024 443.882 125.024C425.208 125.024 410.07 140.162 410.07 158.836C410.07 177.509 425.208 192.647 443.882 192.647Z" fill="white"/>
<path d="M443.527 189.087C460.234 189.087 473.779 175.543 473.779 158.835C473.779 142.127 460.234 128.583 443.527 128.583C426.819 128.583 413.274 142.127 413.274 158.835C413.274 175.543 426.819 189.087 443.527 189.087Z" fill="#F8F8F8"/>
<path d="M443.881 181.97C456.658 181.97 467.015 171.613 467.015 158.836C467.015 146.06 456.658 135.702 443.881 135.702C431.105 135.702 420.747 146.06 420.747 158.836C420.747 171.613 431.105 181.97 443.881 181.97Z" fill="#C2C2C2"/>
<path d="M443.881 174.852C452.726 174.852 459.897 167.681 459.897 158.836C459.897 149.991 452.726 142.82 443.881 142.82C435.036 142.82 427.865 149.991 427.865 158.836C427.865 167.681 435.036 174.852 443.881 174.852Z" fill="#323232"/>
<path d="M443.882 115.059C454.693 115.059 463.456 106.295 463.456 95.4841C463.456 84.6732 454.693 75.9092 443.882 75.9092C433.071 75.9092 424.307 84.6732 424.307 95.4841C424.307 106.295 433.071 115.059 443.882 115.059Z" fill="white"/>
<path d="M443.882 108.879C451.279 108.879 457.275 102.882 457.275 95.4852C457.275 88.0882 451.279 82.0918 443.882 82.0918C436.485 82.0918 430.488 88.0882 430.488 95.4852C430.488 102.882 436.485 108.879 443.882 108.879Z" fill="#C2C2C2"/>
<path d="M443.882 104.757C449.003 104.757 453.154 100.605 453.154 95.4842C453.154 90.3633 449.003 86.2119 443.882 86.2119C438.761 86.2119 434.609 90.3633 434.609 95.4842C434.609 100.605 438.761 104.757 443.882 104.757Z" fill="#323232"/>
<path d="M420.748 180.546C421.534 180.546 422.171 179.909 422.171 179.123C422.171 178.337 421.534 177.699 420.748 177.699C419.962 177.699 419.324 178.337 419.324 179.123C419.324 179.909 419.962 180.546 420.748 180.546Z" fill="#C2C2C2"/>
<path d="M467.728 180.546C468.515 180.546 469.152 179.909 469.152 179.123C469.152 178.337 468.515 177.699 467.728 177.699C466.942 177.699 466.305 178.337 466.305 179.123C466.305 179.909 466.942 180.546 467.728 180.546Z" fill="#C2C2C2"/>
<path d="M357.756 185.055C378.99 156.323 401.964 164.651 406.104 178.299C414.389 205.614 354.463 217.325 352.622 198.156C352.296 194.777 353.778 190.438 357.756 185.055Z" fill="#FFF28F"/>
<path d="M398.896 54.5424C392.926 52.7395 387.819 53.1972 383.568 55.2725C379.401 57.3069 376.397 60.7287 374.226 64.2681C370.826 69.8085 369.069 76.4148 368.202 79.8293C354.025 61.8206 338.972 53.3659 324.653 52.1932C310.11 51.0021 297.02 57.3821 287.223 67.5221C267.831 87.5924 260.274 123.654 279.933 149.201C316.503 196.725 364.274 188.714 377.586 186.654C382.396 185.91 386.014 184.4 388.674 182.362C391.355 180.308 392.903 177.838 393.737 175.455C394.557 173.107 394.665 170.906 394.581 169.322C394.539 168.522 394.447 167.856 394.361 167.374C394.319 167.133 394.277 166.936 394.243 166.789C394.226 166.716 394.212 166.654 394.2 166.606C394.193 166.583 394.188 166.562 394.184 166.545C394.181 166.536 394.179 166.528 394.177 166.521C394.176 166.517 394.176 166.514 394.174 166.511C394.174 166.51 394.174 166.507 394.174 166.507C394.173 166.505 394.172 166.503 391.343 167.279L394.172 166.502L394.139 166.381L394.097 166.263C390.338 155.791 391.22 140.243 394.352 124.509C397.45 108.944 402.612 93.8521 406.816 84.6163C406.819 84.6099 406.823 84.6035 406.825 84.5964C406.851 84.5451 406.885 84.4746 406.927 84.3857C407.012 84.2084 407.129 83.9564 407.268 83.6397C407.547 83.0076 407.92 82.1114 408.312 81.023C409.085 78.867 409.966 75.8588 410.283 72.6115C410.598 69.3886 410.384 65.6587 408.684 62.2764C406.924 58.7734 403.752 56.0093 398.896 54.5424Z" fill="#8B79FF"/>
<path d="M269.399 148.94C307.305 149.524 314.574 173.923 305.484 185.646C287.292 209.106 239.709 165.623 254.965 152.509C257.655 150.198 262.297 148.83 269.399 148.94Z" fill="#FFF28F"/>
<path d="M223.419 177.083C195.034 151.954 173.213 165.07 172.021 179.856C169.635 209.446 234.093 209.423 231.67 189.453C231.243 185.932 228.737 181.791 223.419 177.083Z" fill="#FFF28F"/>
<path d="M92.2165 150.833C105.517 127.44 100.14 78.3417 94.3285 55.858C94.3285 55.858 86.8822 31.1892 105.709 28.9358C130.073 26.0197 129.93 56.1075 130.595 61.6661C131.024 65.2537 138.574 64.3721 141.476 63.8974C142.221 63.7757 142.943 63.4309 143.548 62.9814C214.632 10.2033 260.95 115.02 221.926 150.833C174.356 194.491 118.416 175.971 104.386 171.177C85.6472 164.775 92.2165 150.833 92.2165 150.833Z" fill="#FEDF46"/>
<path d="M306.79 106.647C304.283 106.279 302.549 103.948 302.918 101.44C303.286 98.9332 305.617 97.1995 308.124 97.5681C310.632 97.9366 312.365 100.268 311.997 102.775C311.628 105.282 309.297 107.016 306.79 106.647Z" fill="black"/>
<path d="M168.472 106.036C171.006 106.036 173.061 103.982 173.061 101.448C173.061 98.9137 171.006 96.8594 168.472 96.8594C165.938 96.8594 163.884 98.9137 163.884 101.448C163.884 103.982 165.938 106.036 168.472 106.036Z" fill="black"/>
<path d="M199.062 105.018C201.596 105.018 203.65 102.963 203.65 100.429C203.65 97.8951 201.596 95.8408 199.062 95.8408C196.528 95.8408 194.474 97.8951 194.474 100.429C194.474 102.963 196.528 105.018 199.062 105.018Z" fill="black"/>
<path d="M320.29 119.968C318.34 119.682 316.892 118.546 317.056 117.432C317.22 116.317 318.933 115.646 320.883 115.933C322.833 116.22 324.281 117.355 324.117 118.47C323.954 119.584 322.24 120.255 320.29 119.968Z" fill="black"/>
<path d="M180.873 123.015C176.454 124.034 166.495 123.729 162.009 114.348" stroke="black" stroke-width="3.55908" stroke-linecap="round"/>
<path d="M184.421 113.443C186.392 113.443 187.99 112.53 187.99 111.404C187.99 110.277 186.392 109.364 184.421 109.364C182.45 109.364 180.853 110.277 180.853 111.404C180.853 112.53 182.45 113.443 184.421 113.443Z" fill="black"/>
<path d="M331.69 122.928C328.403 124.123 323.658 125.157 320.21 125.785C319.005 126.005 318.244 127.205 319.039 128.137C320.369 129.697 323.048 131.263 327.84 131.114C332.869 130.957 334.477 127.69 334.729 124.723C334.857 123.219 333.108 122.413 331.69 122.928Z" fill="black"/>
<path d="M331.118 105.366C332.681 103.746 337.445 101.367 344.003 104.814" stroke="black" stroke-width="3.55908" stroke-linecap="round"/>
<path d="M131.362 135.562C96.1274 149.673 98.5298 175.534 111.453 183.46C137.315 199.322 165.424 140.851 146.209 133.804C142.822 132.562 137.963 132.918 131.362 135.562Z" fill="#FFF28F"/>
<path d="M87.3061 3.82186L79.4199 0.540039L76.4116 7.76903L84.2978 11.0509L87.3061 3.82186Z" fill="#35DDFF"/>
<path d="M15.0808 44.5646L11.5146 48.2861L14.9261 51.5551L18.4922 47.8336L15.0808 44.5646Z" fill="#6E58FE"/>
<path d="M406.454 125.025L402.888 128.746L406.299 132.015L409.865 128.294L406.454 125.025Z" fill="#35DDFF"/>
<path d="M376.558 36.047L372.992 39.7686L376.404 43.0375L379.97 39.316L376.558 36.047Z" fill="#D9D9D9"/>
<path d="M393.685 12.4196L389.353 16.9404L394.178 21.5645L398.51 17.0437L393.685 12.4196Z" fill="#6E58FE"/>
<path d="M471.283 105.806L466.951 110.327L471.777 114.951L476.109 110.43L471.283 105.806Z" fill="#FEDF46"/>
<path d="M82.6319 184.817L78.2998 189.338L83.1254 193.962L87.4575 189.441L82.6319 184.817Z" fill="#FF008C"/>
<path d="M231.919 49.3079C234.561 47.263 235.534 44.093 234.09 42.2275C232.647 40.362 229.334 40.5074 226.691 42.5523C224.049 44.5972 223.076 47.7672 224.52 49.6327C225.963 51.4982 229.276 51.3528 231.919 49.3079Z" fill="#323232"/>
<path d="M218.845 22.5232L216.593 24.2656L232.274 44.5325L234.526 42.7901L218.845 22.5232Z" fill="#323232"/>
<path d="M416.837 43.4918C419.823 44.9907 423.102 44.4967 424.16 42.3886C425.218 40.2805 423.655 37.3564 420.668 35.8575C417.682 34.3586 414.403 34.8525 413.345 36.9607C412.287 39.0688 413.85 41.9929 416.837 43.4918Z" fill="#323232"/>
<path d="M435.336 20.1209L432.791 18.8438L421.297 41.7465L423.841 43.0237L435.336 20.1209Z" fill="#323232"/>
<path d="M430.197 50.1959C433.184 51.6948 436.463 51.2008 437.521 49.0927C438.579 46.9846 437.015 44.0605 434.029 42.5616C431.042 41.0627 427.763 41.5566 426.705 43.6648C425.647 45.7729 427.211 48.697 430.197 50.1959Z" fill="#323232"/>
<path d="M448.696 26.826L446.151 25.5488L434.657 48.4516L437.202 49.7288L448.696 26.826Z" fill="#323232"/>
<path d="M430.197 50.1959C433.184 51.6948 436.463 51.2008 437.521 49.0927C438.579 46.9846 437.015 44.0605 434.029 42.5616C431.042 41.0627 427.763 41.5566 426.705 43.6648C425.647 45.7729 427.211 48.697 430.197 50.1959Z" fill="#323232"/>
<path d="M448.696 26.826L433.428 19.1631L430.873 24.2526L446.142 31.9155L448.696 26.826Z" fill="#323232"/>
</g>
<defs>
<clipPath id="clip0_2130_19813">
<rect width="494" height="222.086" fill="white" transform="translate(0 0.457031)"/>
</clipPath>
</defs>
</svg>
