<svg width="1440" height="400" viewBox="0 0 1440 400" fill="none" xmlns="http://www.w3.org/2000/svg">
<g clip-path="url(#clip0_337_3370)">
<rect width="1440" height="400" fill="#2F2F2F"/>
<path d="M1435 178.5L1440 187V168H1439.5L1435 178.5Z" fill="#007DD7"/>
<path d="M1130.79 178.023C1136.61 169.313 1134.4 149.498 1132.69 139.268C1131.52 132.344 1137.54 127.787 1143.7 132.687C1149.86 137.586 1143.32 144.887 1145.88 142.593C1155.48 134.002 1190.17 141.871 1175.62 169.028C1165.36 188.178 1139.44 185.769 1131.13 180.711C1130.21 180.15 1130.19 178.92 1130.79 178.023Z" fill="#8B79FF" stroke="#8B79FF" stroke-width="1.96824" stroke-linecap="round"/>
<path d="M1444.76 172L1373.66 402.516H696L754.879 227.546H1073.71L1112.04 172H1444.76Z" fill="#007DD7"/>
<path d="M1439.5 168L1368.4 398.516H690.738L749.617 223.546H1068.45L1106.78 168H1439.5Z" fill="#0094FF"/>
<path d="M649.776 399.748L637 268.659H1059.15L1089.7 222C1185.75 222 1239.78 222.5 1334.5 222.5C1337 223.5 1337 223.5 1339 224.5C1330.76 293.915 1326.79 330.333 1318.55 399.748H649.776Z" fill="#00B3FF"/>
<rect x="715" y="243" width="608" height="76" fill="white"/>
<rect x="668" y="259" width="608" height="76" fill="#E5F7FF"/>
<path d="M644.635 400.183L631.859 269.094H1054.01L1084.56 222.436H1334.52L1313.41 400.183H644.635Z" fill="#4AC9FF"/>
<path d="M463 340.839L481.292 400.427H1239.53V295L990.5 295L950.375 340.839L463 340.839Z" fill="#88DCFF"/>
<path d="M458 340.262L476.292 399.851H1234.53V295.424L985.5 295.424L945.375 340.262L458 340.262Z" fill="#AEE7FF" stroke="#AEE7FF" stroke-width="1.11092"/>
<path d="M1301.74 240.495C1301.88 239.117 1303.12 238 1304.51 238H1367.24C1369.31 238 1370.82 239.676 1370.61 241.743L1368.77 259.21C1368.55 261.278 1366.69 262.953 1364.61 262.953H1301.89C1300.5 262.953 1299.49 261.836 1299.64 260.458L1301.74 240.495Z" fill="#E2F6FF"/>
<rect width="10.0364" height="25.0909" transform="matrix(1 0 -0.104528 0.994522 1302 238)" fill="#0094FF"/>
<path d="M1333.38 250.326L1338.95 252.408L1338.69 254.861L1331.18 251.548L1331.36 249.81L1333.38 250.326ZM1339.35 248.624L1333.33 250.742L1331.21 251.231L1331.39 249.493L1339.6 246.18L1339.35 248.624ZM1347.77 242.976L1341.4 257.286H1339.46L1345.82 242.976H1347.77ZM1354.11 250.688L1348.49 248.615L1348.75 246.18L1356.33 249.493L1356.15 251.24L1354.11 250.688ZM1348.09 252.426L1354.16 250.308L1356.3 249.81L1356.11 251.548L1347.84 254.861L1348.09 252.426Z" fill="#0094FF"/>
<path d="M1301.74 240.495C1301.88 239.117 1303.12 238 1304.51 238H1367.24C1369.31 238 1370.82 239.676 1370.61 241.743L1368.77 259.21C1368.55 261.278 1366.69 262.953 1364.61 262.953H1301.89C1300.5 262.953 1299.49 261.836 1299.64 260.458L1301.74 240.495Z" fill="#E2F6FF"/>
<rect width="10.0364" height="25.0909" transform="matrix(1 0 -0.104528 0.994522 1302 238)" fill="#0094FF"/>
<path d="M1333.38 250.326L1338.95 252.408L1338.69 254.861L1331.18 251.548L1331.36 249.81L1333.38 250.326ZM1339.35 248.624L1333.33 250.742L1331.21 251.231L1331.39 249.493L1339.6 246.18L1339.35 248.624ZM1347.77 242.976L1341.4 257.286H1339.46L1345.82 242.976H1347.77ZM1354.11 250.688L1348.49 248.615L1348.75 246.18L1356.33 249.493L1356.15 251.24L1354.11 250.688ZM1348.09 252.426L1354.16 250.308L1356.3 249.81L1356.11 251.548L1347.84 254.861L1348.09 252.426Z" fill="#0094FF"/>
<ellipse cx="729.085" cy="256.703" rx="12.6078" ry="12.3567" transform="rotate(-64.4745 729.085 256.703)" fill="#FFF28F"/>
<path d="M641.378 157.548C622.482 219.377 640.565 234.806 645.584 238.355C667.031 253.519 745.375 276.423 756.116 218.264C764.456 173.105 719.284 155.148 689.392 147.205C687.752 146.77 686 147.301 684.932 148.62C681.126 153.318 679.372 157.155 678.172 164.634C649.92 132.067 643.633 150.166 641.378 157.548Z" fill="#00B2FF"/>
<circle cx="672.647" cy="200.35" r="5.41746" transform="rotate(10.9009 672.647 200.35)" fill="#003850" stroke="#003850" stroke-width="0.90291"/>
<circle cx="708.998" cy="207.351" r="5.41746" transform="rotate(10.9009 708.998 207.351)" fill="#003850" stroke="#003850" stroke-width="0.90291"/>
<path d="M667.994 193.477C669.767 193.818 674.732 194.775 680.406 195.867" stroke="#003850" stroke-width="6.32037" stroke-linecap="round"/>
<path d="M703.459 200.307C705.232 200.648 710.197 201.605 715.871 202.698" stroke="#003850" stroke-width="6.32037" stroke-linecap="round"/>
<path d="M700.286 192.91C702.047 192.511 706.978 191.394 712.614 190.117" stroke="#003850" stroke-width="3.61164" stroke-linecap="round"/>
<path d="M691.946 212.342C692.605 212.469 693.148 212.759 693.495 213.102C693.846 213.447 693.963 213.803 693.906 214.099C693.849 214.394 693.608 214.681 693.154 214.872C692.704 215.061 692.093 215.129 691.434 215.002C690.775 214.875 690.232 214.585 689.884 214.242C689.534 213.897 689.416 213.54 689.473 213.245C689.53 212.95 689.772 212.662 690.225 212.472C690.676 212.283 691.287 212.215 691.946 212.342Z" fill="#003850" stroke="#003850" stroke-width="0.90291"/>
<path d="M691.841 222.436C693.972 222.847 695.426 225.309 694.892 228.081C694.358 230.853 692.094 232.6 689.963 232.189C687.831 231.779 686.378 229.316 686.912 226.544C687.446 223.772 689.71 222.026 691.841 222.436Z" fill="#003850" stroke="#003850" stroke-width="0.90291"/>
<ellipse cx="656.9" cy="242.982" rx="14.6732" ry="13.5661" transform="rotate(-132.014 656.9 242.982)" fill="#FFF28F"/>
<ellipse cx="1133.5" cy="168" rx="6.5" ry="5" fill="#FFF28F"/>
<ellipse cx="1175.5" cy="168" rx="6.5" ry="5" fill="#FFF28F"/>
<ellipse cx="1147.55" cy="154.495" rx="1.48623" ry="1.42863" transform="rotate(8.11557 1147.55 154.495)" fill="#3422A6"/>
<ellipse cx="1157.38" cy="163.277" rx="2.99854" ry="2.88232" transform="rotate(8.11557 1157.38 163.277)" fill="#3422A6"/>
<ellipse cx="1161.67" cy="154.495" rx="1.48623" ry="1.42863" transform="rotate(8.11557 1161.67 154.495)" fill="#3422A6"/>
<circle cx="1154.5" cy="157.5" r="0.5" fill="#3422A6"/>
<circle cx="1045" cy="187" r="9" fill="#AEE7FF"/>
<circle cx="5" cy="5" r="5" transform="matrix(-1 0 0 1 851 177)" fill="#AEE7FF"/>
<rect width="39.2783" height="12.1919" rx="6.09597" transform="matrix(-0.830904 0.556416 0.556416 0.830904 904.636 162)" fill="#AEE7FF"/>
<rect width="80.1612" height="10.2987" rx="5.14934" transform="matrix(-0.830904 0.556416 0.556416 0.830904 1381.67 100.008)" fill="#AEE7FF"/>
<rect width="15.6831" height="10.2987" rx="5.14934" transform="matrix(-0.830904 0.556416 0.556416 0.830904 1310.03 130)" fill="#AEE7FF"/>
<rect width="52.8884" height="9.63529" rx="4.81765" transform="matrix(-0.602112 0.798412 0.798412 0.602112 1287.73 94.8777)" fill="#AEE7FF"/>
<rect x="558.784" y="261" width="39.2783" height="12.1919" rx="6.09597" transform="rotate(33.8083 558.784 261)" fill="#AEE7FF"/>
<path d="M222.484 182.164V217.477H218.305V199.352H214.516V215.836H210.453V183.102H214.516V195.836H218.305V182.164H222.484ZM207.445 186.617C207.445 196.148 204.438 204.352 194.398 210.094L191.898 207.086C199.418 202.73 202.602 197.145 203.227 190.094H193.539V186.617H207.445ZM232.25 183.727V188.219H240.492V183.727H244.789V199.117H227.953V183.727H232.25ZM232.25 195.68H240.492V191.5H232.25V195.68ZM254.594 182.164V189.312H259.516V192.828H254.594V200.25H250.258V182.164H254.594ZM254.594 201.656V210.914H235.844V213.727H255.688V217.164H231.547V207.75H250.258V205.055H231.508V201.656H254.594Z" fill="white"/>
</g>
<defs>
<clipPath id="clip0_337_3370">
<rect width="1440" height="400" fill="white"/>
</clipPath>
</defs>
</svg>
