<svg width="1440" height="400" viewBox="0 0 1440 400" fill="none" xmlns="http://www.w3.org/2000/svg">
<g clip-path="url(#clip0_337_3414)">
<rect width="1440" height="400" fill="#2F2F2F"/>
<path opacity="0.4" d="M1338.13 379L1387.41 395.705C1379.66 417.248 1370.51 427.706 1347.27 443.997L1298 427.292C1320.13 410.657 1328.82 399.948 1338.13 379Z" fill="#FFD500"/>
<path d="M1145.35 354.511C1156.04 345.341 1175.95 339.89 1189.82 342.335C1203.69 344.781 1206.27 354.197 1195.58 363.367C1184.89 372.537 1164.98 377.989 1151.11 375.543L1126 371.115L1145.35 354.511Z" fill="#FFD500"/>
<circle cx="9.5" cy="9.5" r="9.5" transform="matrix(0.984808 0.173648 -0.758959 0.651138 1200.77 339.557)" fill="white"/>
<path d="M1405.5 16L868 184L754 408L1356.5 301.5L1405.5 16Z" fill="#FFEA00"/>
<path d="M862 162.5L723.5 -3H1382.5L862 162.5Z" fill="#FFFE69"/>
<path d="M873.037 126.761L753 -16.0357L1323 -17L873.037 126.761Z" fill="#FFFFE2"/>
<path opacity="0.8" d="M1328.43 306L1390.81 347.219C1372.17 374.332 1355.63 385.524 1317.39 399.683L1255 358.464C1291.84 343.427 1307.82 331.715 1328.43 306Z" fill="#F7F669"/>
<rect x="850.85" y="157.139" width="574.191" height="18.6744" rx="9.33719" transform="rotate(-17.2957 850.85 157.139)" fill="#FFEA00"/>
<path d="M1398.5 -0.5L1406.5 16L1394.5 25L1398.5 -0.5Z" fill="#F3F100"/>
<path d="M1398 6L860.5 174L746.5 398L1349 291.5L1398 6Z" fill="#FFFE69"/>
<path d="M1122 242L1000.5 269.5L985 331L1110.5 306L1122 242Z" fill="#FFFFE2"/>
<path d="M1363.5 39L872.5 186L832 287L1338.5 158.5L1363.5 39Z" fill="#FFFFE2"/>
<g opacity="0.2">
<path d="M681.159 54.3857L710.135 27.7652L703.727 46.2651L720.454 56.439L681.159 54.3857Z" fill="#FFFE69"/>
<path d="M699.88 47.0974L713.941 36.4946L717.455 48.213L699.88 47.0974Z" fill="#FFFE69"/>
</g>
<path d="M844.075 104.578L947.636 64.283C974.985 113.484 1037.51 122.398 1065.35 120.704L1003.92 173.713L969.139 185.112C911.214 174.068 862.594 128.339 844.075 104.578Z" fill="#FFD500"/>
<path d="M981.394 164.068L1004.23 174.078L968.815 185.595L981.394 164.068Z" fill="#FFFE69"/>
<path d="M1411 213.875L1432 190.375" stroke="#FFFFE2" stroke-width="5"/>
<path d="M1427 219.875L1449 193.875" stroke="#FFFFE2" stroke-width="5"/>
<path d="M1411 201.121L1442.5 217.375" stroke="#FFFFE2" stroke-width="5"/>
<path d="M1417 192.121L1449 207.375" stroke="#FFFFE2" stroke-width="5"/>
<path d="M1128.72 344.176C1138.66 336.462 1143.68 313.045 1145.62 300.735C1146.93 292.402 1155.51 289.498 1160.67 297.425C1165.83 305.351 1155.6 311.183 1159.39 309.543C1173.59 303.404 1210.13 325.565 1183.22 350.977C1164.25 368.897 1135.62 356.29 1128.08 347.367C1127.24 346.377 1127.7 344.971 1128.72 344.176Z" fill="#8B79FF" stroke="#8B79FF" stroke-width="2.36446" stroke-linecap="round"/>
<ellipse cx="1170.96" cy="353.284" rx="7.04334" ry="8.996" transform="rotate(13.0965 1170.96 353.284)" fill="#FFF28F"/>
<ellipse cx="1136.04" cy="351.344" rx="7.04334" ry="8.996" transform="rotate(-26.819 1136.04 351.344)" fill="#FFF28F"/>
<circle cx="1151.82" cy="321.821" r="2.11816" transform="rotate(25.3278 1151.82 321.821)" fill="#3422A6"/>
<circle cx="1165.62" cy="324.673" r="2.11816" transform="rotate(25.3278 1165.62 324.673)" fill="#3422A6"/>
<ellipse cx="1157.61" cy="327.445" rx="0.78085" ry="0.533375" transform="rotate(4.46353 1157.61 327.445)" fill="#3422A6"/>
<path d="M1154.82 332.444C1156.78 333.398 1160.51 332.668 1162.1 331.271" stroke="#3422A5" stroke-width="2.11816" stroke-linecap="round"/>
<path d="M640.711 235.51C652.867 250.891 635.019 286.619 664.827 301.747C699.958 319.577 749.707 331.016 765.349 279.971C779.617 233.41 743.57 222.141 717.415 221.555C713.812 221.474 711.049 218.148 711.909 214.649L721.869 174.116C726.471 155.391 694.358 141.966 688.972 163.881C682.433 190.494 679.097 209.32 671.808 222.469C662.858 200.35 625.517 216.283 640.711 235.51Z" fill="#F7F669"/>
<path d="M693.088 278.952C693.864 279.143 694.492 279.52 694.884 279.949C695.28 280.381 695.398 280.812 695.313 281.159C695.227 281.507 694.923 281.833 694.372 282.032C693.826 282.23 693.094 282.274 692.318 282.084C691.542 281.893 690.916 281.515 690.523 281.086C690.127 280.655 690.009 280.224 690.094 279.877C690.179 279.529 690.484 279.202 691.035 279.003C691.581 278.805 692.312 278.762 693.088 278.952Z" fill="#4E4E00" stroke="#4E4E00" stroke-width="1.07466"/>
<circle cx="679.996" cy="265.807" r="4.83599" transform="rotate(13.806 679.996 265.807)" fill="#4E4E00" stroke="#4E4E00" stroke-width="1.07466"/>
<circle cx="709.509" cy="275.611" r="4.83599" transform="rotate(13.806 709.509 275.611)" fill="#4E4E00" stroke="#4E4E00" stroke-width="1.07466"/>
<path d="M693.772 289.894L698.178 288.316C698.927 288.047 699.747 288.053 700.492 288.331L705.537 290.211" stroke="#4E4E00" stroke-width="3.37136" stroke-linecap="round"/>
<path d="M683.612 253.416L689.069 260.146" stroke="#4E4E00" stroke-width="5.37332" stroke-linecap="round"/>
<path d="M753 404.5L746.5 398L766 394.5L763 402.5L753 404.5Z" fill="#FFEA00"/>
<ellipse cx="716.348" cy="313.695" rx="11.0585" ry="12.637" transform="rotate(62.0187 716.348 313.695)" fill="#FFFAD7"/>
<ellipse cx="649.005" cy="287.433" rx="12.4213" ry="16.1731" transform="rotate(5.60466 649.005 287.433)" fill="#FFFAD7"/>
<path d="M625.919 280.883C626.944 281.653 627.207 283.057 626.812 284.276C625.36 288.755 626.812 293.851 630.787 296.84C635.795 300.604 642.907 299.597 646.672 294.589C650.436 289.581 649.428 282.469 644.42 278.704C640.444 275.715 635.144 275.736 631.244 278.377C630.183 279.096 628.761 279.234 627.736 278.463L608.887 264.294C607.105 262.954 607.762 260.159 609.966 259.821C623.89 257.686 651.637 254.801 663.042 263.374C674.92 272.303 679.538 287.305 675.826 300.814C675.535 301.874 675.884 303.02 676.763 303.68L688.768 312.705C689.897 313.553 690.124 315.157 689.275 316.286L678.886 330.106C678.038 331.235 676.434 331.462 675.305 330.613L663.295 321.584C662.417 320.924 661.219 320.907 660.282 321.481C648.339 328.791 632.652 328.521 620.779 319.595C609.079 310.8 604.185 282.131 602.484 268.539C602.208 266.335 604.699 264.93 606.475 266.265L625.919 280.883Z" fill="#FFD500"/>
<circle cx="674.269" cy="298.422" r="7.5" transform="rotate(3.66369 674.269 298.422)" fill="#FFFAD7"/>
<path d="M555.026 375.307L458.477 291.423C531.859 296.23 596.045 324.47 618.966 337.989L701.413 404.113L693.692 420.999C635.304 388.116 605.643 380.583 555.026 375.307Z" fill="#FFD500"/>
<rect x="608.581" y="154" width="13.0952" height="13.0875" transform="rotate(30.1878 608.581 154)" fill="#F7F669"/>
<rect x="703.811" y="360.396" width="22.3183" height="22.661" transform="rotate(120.191 703.811 360.396)" fill="#F7F669"/>
<path d="M1434.93 148.811L1506.9 43.086C1437.17 66.4409 1382.3 110.11 1363.59 129.025L1312.49 228.343C1360.57 181.661 1387.33 166.816 1434.93 148.811Z" fill="#FFCC00"/>
<rect width="10" height="9" transform="matrix(0.999714 -0.0239288 0.723825 0.689984 458.926 289.197)" fill="#FFFFE8"/>
<rect width="10" height="9" transform="matrix(0.999562 0.0295791 0.685882 0.727713 549.674 364.686)" fill="#FFFFE8"/>
<rect width="5.2064" height="4.68576" transform="matrix(0.96763 0.252374 0.505762 0.862673 615.43 333.272)" fill="#FFFFE8"/>
<path d="M673 403C652.2 388.6 586.333 374 556 368.5C542.8 353.3 492.167 312.167 468.5 293.5L471.5 291.5C501 294.167 571.8 306.8 619 336C644.167 354.833 695.9 394.6 701.5 403" stroke="#FFFFE8" stroke-dasharray="1 1"/>
<path d="M221.547 182.164V217.516H217.172V182.164H221.547ZM211.391 185.367V188.922H198.734V205.328C205.238 205.309 209.32 205.113 214.008 204.273L214.438 207.867C209.398 208.805 204.828 209 197.367 209H194.359V185.367H211.391ZM239.398 192.203C239.398 197.672 242.641 203.883 248.227 206.461L245.805 209.898C241.82 208.023 238.871 204.234 237.289 199.82C235.688 204.664 232.602 208.805 228.539 210.758L226 207.359C231.625 204.703 235.023 198.062 235.062 192.203V189.234H227.367V185.641H246.781V189.234H239.398V192.203ZM254.398 182.164V195.914H259.828V199.547H254.398V217.477H250.062V182.164H254.398ZM290.727 182.203V207.711H286.352V182.203H290.727ZM291.703 213.258V216.773H267.367V205.133H271.742V213.258H291.703ZM271.469 184.508C276.82 184.508 280.961 188.219 280.961 193.336C280.961 198.57 276.82 202.203 271.469 202.203C266.078 202.203 261.938 198.57 261.938 193.336C261.938 188.219 266.078 184.508 271.469 184.508ZM271.469 188.297C268.461 188.297 266.156 190.289 266.195 193.336C266.156 196.461 268.461 198.414 271.469 198.414C274.398 198.414 276.703 196.461 276.703 193.336C276.703 190.289 274.398 188.297 271.469 188.297Z" fill="white"/>
</g>
<defs>
<clipPath id="clip0_337_3414">
<rect width="1440" height="400" fill="white"/>
</clipPath>
</defs>
</svg>
