<svg width="1440" height="400" viewBox="0 0 1440 400" fill="none" xmlns="http://www.w3.org/2000/svg">
<rect width="1440" height="400" fill="#2F2F2F"/>
<rect x="820.923" y="254.727" width="60.3773" height="53.1895" fill="#8F77FF"/>
<path d="M1339.33 179.724H1364.38C1380.25 179.724 1393.13 192.596 1393.13 208.475V316.579C1393.13 332.457 1380.25 345.33 1364.38 345.33H1339.33V179.724Z" fill="#8F77FF"/>
<path d="M872.135 202.269L851.045 297.667C849.666 303.905 844.136 308.347 837.747 308.347C830.225 308.347 824.128 302.249 824.128 294.727V275.025C824.128 264.458 832.694 255.892 843.261 255.892H857.2C857.864 255.892 858.441 255.437 858.597 254.791C858.815 253.887 858.13 253.017 857.2 253.017H823.236C807.668 253.017 795.047 265.638 795.047 281.206V315.524C795.047 331.402 807.919 344.275 823.798 344.275H1332.4C1348.28 344.275 1361.15 331.402 1361.15 315.524V263.251C1361.15 258.79 1364.77 255.173 1369.23 255.173C1373.69 255.173 1377.3 251.556 1377.3 247.095V208.475C1377.3 192.596 1364.43 179.724 1348.55 179.724H900.208C886.721 179.724 875.046 189.099 872.135 202.269Z" fill="#FBF8FF"/>
<rect x="815.089" y="305.497" width="511.585" height="21.0963" rx="10.5481" fill="#E4D2FF"/>
<rect x="819.308" y="326.593" width="511.585" height="3.16444" rx="1.58222" fill="#B3A3FF"/>
<path d="M1354.74 384.358L1339.33 345.329H1368.87V384.358H1354.74Z" fill="#8F77FF"/>
<path d="M1307.82 384.358L1291.86 345.329H1322.45V384.358H1307.82Z" fill="#BBADFF"/>
<path d="M885.614 384.107L868.363 345.293H901.427V384.107H885.614Z" fill="#BBADFF"/>
<path d="M933.601 384.107L916.351 345.293H949.414V384.107H933.601Z" fill="#8F77FF"/>
<path d="M525.416 312.353C515.712 275.646 556.885 261.546 578.684 259.085C613.493 266.996 735.324 293.894 749.037 313.935C762.75 333.977 764.773 362.266 735.324 379.334C708.025 395.156 624.695 390.409 599.907 384.608C576.195 379.058 537.546 358.238 525.416 312.353Z" fill="#F6F0FF"/>
<path d="M569.849 304.442C550.51 281.098 562.462 262.25 580.393 259.085L741.783 291.784C746.881 298.465 758.102 334.359 712.244 339.778C654.23 346.635 600.434 341.361 569.849 304.442Z" fill="#E4D2FF"/>
<path d="M621.116 333.328C612.256 332.906 602.305 319.44 598.438 312.759C603.923 315.291 612.678 312.056 616.369 310.122L621.116 333.328Z" fill="#FFF2B0" stroke="#FFFAD7" stroke-width="1.05481"/>
<path d="M731.634 314.45C722.854 315.712 710.535 304.372 705.473 298.545C711.338 299.992 719.323 295.159 722.582 292.561L731.634 314.45Z" fill="#FFFAD7" stroke="#FFFAD7" stroke-width="1.05481"/>
<path d="M565.626 171.535C597.16 217.225 578.923 242.837 578.923 285.556C572.066 309.817 614.259 328.82 678.603 312.981C746.638 296.234 750.857 232.815 735.562 205.389C710.773 147.903 641.873 160.593 633.661 162.042C624.694 163.625 629.441 164.984 622.057 151.494C606.396 122.881 539.782 134.09 565.626 171.535Z" fill="#8B79FF"/>
<ellipse cx="738.834" cy="286.827" rx="24.3447" ry="30.5896" transform="rotate(23.7614 738.834 286.827)" fill="#FFF2B0"/>
<ellipse cx="629.554" cy="304.321" rx="25.8429" ry="30.5896" transform="rotate(5.93108 629.554 304.321)" fill="#FFF2B0"/>
<path d="M674.16 267.875C673.942 266.588 674.934 265.414 676.24 265.414H729.316C730.603 265.414 731.59 266.557 731.403 267.831L721.475 335.339C721.323 336.374 720.435 337.141 719.388 337.141H687.657C686.627 337.141 685.748 336.398 685.577 335.383L674.16 267.875Z" fill="#F5F5F5"/>
<path d="M684.292 297.058H722.265L716.991 332.922H689.566L684.292 297.058Z" fill="#554B46"/>
<rect x="684.292" y="293.894" width="37.9733" height="6.32888" rx="3.16444" fill="#FFECC9"/>
<path d="M710.137 291.784H689.006C687.146 291.784 685.506 290.566 684.967 288.786L680.662 274.546C679.843 271.837 681.871 269.106 684.701 269.106H717.091C720.21 269.106 722.252 272.372 720.883 275.175L713.928 289.418C713.22 290.866 711.749 291.784 710.137 291.784Z" fill="#8B79FF"/>
<path d="M720.864 291.784H716.165C715.357 291.784 714.849 290.912 715.248 290.209L722.295 277.792C722.884 276.756 724.471 277.338 724.249 278.509L721.9 290.926C721.806 291.424 721.371 291.784 720.864 291.784Z" fill="#FFF2B0"/>
<path d="M694.746 238.568C695.009 238.048 695.643 237.84 696.163 238.102L711.595 245.895C711.748 245.973 711.873 246.084 711.969 246.214C712.332 246.383 712.583 246.752 712.579 247.179L712.408 265.111L706.08 265.05L706.22 250.271L693.309 243.752C692.79 243.489 692.581 242.855 692.844 242.335L694.746 238.568Z" fill="white"/>
<path d="M712.951 270.748L712.713 295.851C710.375 297.278 708.999 297.557 706.384 295.791L706.622 270.688L712.951 270.748Z" fill="white"/>
<path d="M694.84 239.571L710.662 248.01V264.887" stroke="#E93039" stroke-width="1.05481"/>
<path d="M711.189 271.215V296.004" stroke="#E93039" stroke-width="1.05481"/>
<circle cx="658.449" cy="218.475" r="4.74666" fill="#1C125C"/>
<ellipse cx="683.237" cy="230.078" rx="3.16444" ry="1.58222" fill="#1C125C"/>
<circle cx="696.422" cy="214.256" r="4.74666" fill="#1C125C"/>
<path d="M673.979 241.114C673.264 241.084 672.72 241.74 673.015 242.392C674.843 246.438 680.924 250.387 686.936 243.286" fill="#1C125C" stroke="#1C125C" stroke-width="5.49336" stroke-linecap="round"/>
<path d="M1068.22 197.208L1097.48 262.779L1043.29 243.27L990.729 164.152C995.931 167.62 1044.74 189.079 1068.22 197.208Z" fill="#B2A2FF"/>
<path d="M1053.59 196.666L1092.61 258.985C1078.73 265.054 1055.76 260.43 1046 257.359L990.187 190.163C997.557 193.631 1035.53 195.944 1053.59 196.666Z" fill="#E2CEFF"/>
<path d="M1060.09 251.399C1057.49 267.439 1072.38 290.596 1080.14 300.17C1115.91 314.802 1135.42 309.382 1151.13 298.002C1166.85 286.622 1187.44 241.644 1182.02 216.717C1177.69 196.775 1162.15 202.266 1154.93 207.504C1146.69 187.996 1131.99 195.763 1125.66 202.085C1127.29 187.454 1112.12 185.286 1101.82 192.331C1093.58 197.967 1085.02 217.8 1081.77 227.013L1094.77 257.359C1094.34 260.394 1090.98 260.069 1089.36 259.527C1085.02 243.27 1063.34 231.348 1060.09 251.399Z" fill="#FE8EFF"/>
<ellipse cx="1078.52" cy="295.293" rx="21.1343" ry="16.2571" transform="rotate(47.6142 1078.52 295.293)" fill="#FFF2B0"/>
<ellipse cx="1135.09" cy="292.931" rx="21.1343" ry="16.2571" transform="rotate(105.637 1135.09 292.931)" fill="#FFF2B0"/>
<path d="M1098.57 233.92C1103.81 233.017 1111.47 232.816 1113.2 242.354" stroke="#D800C2" stroke-width="4.33524" stroke-linecap="round"/>
<path d="M1147.91 246.5C1144.12 242.779 1137.93 238.261 1131.08 245.123" stroke="#D800C2" stroke-width="4.33524" stroke-linecap="round"/>
<ellipse cx="1118.24" cy="249.587" rx="3.25143" ry="1.62571" transform="rotate(6.48041 1118.24 249.587)" fill="#DD12CA"/>
<path d="M1127.23 256.406C1122.93 256.728 1116.57 257.542 1112.33 257.608C1111.51 257.621 1110.7 258.038 1110.55 258.837C1110.24 260.516 1110.98 263.215 1116.65 266.917C1122.94 271.026 1127.22 264.404 1129.19 258.925C1129.67 257.599 1128.64 256.301 1127.23 256.406Z" fill="#D800C2" stroke="#D800C2" stroke-width="4.33524" stroke-linecap="round"/>
<path d="M1323.51 260.667V303.387C1323.51 304.844 1322.33 306.024 1320.87 306.024H1288.05C1284.92 306.024 1282.37 303.48 1282.37 300.342V220.992C1282.37 217.854 1284.92 215.31 1288.05 215.31H1338.4C1341.53 215.31 1344.08 217.854 1344.08 220.992V245.577C1344.08 248.233 1342.24 250.53 1339.69 251.287C1335.12 252.647 1330.26 254.445 1327.73 255.393C1324.35 256.659 1323.51 259.437 1323.51 260.667Z" fill="#E4D2FF"/>
<path d="M1207.27 220.318C1200.46 284.061 1220.96 295.692 1226.51 298.206C1250.24 308.95 1330.81 316.559 1330.36 257.92C1330.02 212.387 1282.67 203.373 1252.07 201.246C1250.4 201.129 1248.79 201.975 1248 203.459C1245.17 208.747 1244.18 212.812 1244.42 220.318C1210.8 193.908 1208.08 212.708 1207.27 220.318Z" fill="#00B2FF"/>
<circle cx="1244.4" cy="253.284" r="6.85629" fill="#003850"/>
<path d="M1238.6 246.427C1240.71 246.427 1246.61 246.427 1253.36 246.427" stroke="#003850" stroke-width="7.3837" stroke-linecap="round"/>
<ellipse cx="1232.5" cy="298.114" rx="20.5689" ry="15.8222" transform="rotate(47.6142 1232.5 298.114)" fill="#FFF2B0"/>
<path d="M1181.19 299.205L1167.76 249.102C1167.05 246.422 1169.07 243.79 1171.84 243.79H1241.3C1243.14 243.79 1244.77 244.986 1245.33 246.743L1258.24 287.776C1258.79 289.534 1260.42 290.73 1262.26 290.73H1277.62C1279.95 290.73 1281.84 292.619 1281.84 294.949V298.113C1281.84 300.443 1279.95 302.332 1277.62 302.332H1185.27C1183.36 302.332 1181.68 301.05 1181.19 299.205Z" fill="#E3DFFF"/>
<path d="M1276.04 292.839H1261.8" stroke="#8B79FF" stroke-width="2.10963" stroke-linecap="round"/>
<ellipse cx="1287.57" cy="295.815" rx="20.5689" ry="15.8222" transform="rotate(105.637 1287.57 295.815)" fill="#FFF2B0"/>
<circle cx="1282.37" cy="253.284" r="6.85629" fill="#003850"/>
<circle cx="1270.24" cy="272.798" r="3.16444" fill="#003850"/>
<path d="M1277.62 246.427C1279.73 246.427 1285.64 246.427 1292.39 246.427" stroke="#003850" stroke-width="7.3837" stroke-linecap="round"/>
<ellipse cx="1263.91" cy="264.359" rx="3.16444" ry="2.10963" fill="#003850"/>
<path d="M869.411 260.14C881.647 269.422 882.597 301.805 904.747 310.771H926.899C913.538 286.686 882.913 232.715 875.74 236.934C866.774 242.208 854.117 248.537 869.411 260.14Z" fill="#E4D2FF"/>
<path d="M870.51 255.762C887.6 264.76 885.793 304.063 918.679 305.783C957.437 307.81 1006.81 298.245 1000.51 246.029C994.765 198.401 957.802 202.647 934.014 212.564C930.737 213.93 926.921 212.038 926.298 208.543L919.081 168.063C915.747 149.363 881.466 150.096 885.368 171.982C890.106 198.561 894.62 216.847 893.307 231.599C876.413 215.254 849.148 244.515 870.51 255.762Z" fill="#F7F669"/>
<path d="M950.843 256.357C951.618 256.219 952.334 256.309 952.858 256.538C953.387 256.769 953.666 257.109 953.728 257.456C953.79 257.803 953.646 258.219 953.229 258.618C952.816 259.015 952.175 259.346 951.401 259.484C950.626 259.622 949.91 259.533 949.385 259.303C948.857 259.073 948.578 258.732 948.516 258.385C948.455 258.038 948.598 257.622 949.015 257.223C949.428 256.827 950.068 256.496 950.843 256.357Z" fill="#4E4E00" stroke="#4E4E00" stroke-width="1.05869"/>
<circle cx="932.091" cy="250.582" r="4.76411" transform="rotate(-10.1081 932.091 250.582)" fill="#4E4E00" stroke="#4E4E00" stroke-width="1.05869"/>
<circle cx="960.66" cy="243.686" r="4.76411" transform="rotate(-10.1081 960.66 243.686)" fill="#4E4E00" stroke="#4E4E00" stroke-width="1.05869"/>
<path d="M940.734 262.701L945.331 262.355C946.113 262.296 946.89 262.515 947.526 262.974L951.825 266.08" stroke="#4E4E00" stroke-width="3.32125" stroke-linecap="round"/>
<path d="M923.657 238.738L931.905 240.935" stroke="#4E4E00" stroke-width="5.29345" stroke-linecap="round"/>
<ellipse cx="998.731" cy="294.568" rx="20.5689" ry="15.8222" transform="rotate(111.486 998.731 294.568)" fill="#FFF2B0"/>
<rect x="894.7" y="253.397" width="6.32888" height="65.3985" rx="3.16444" transform="rotate(-62.371 894.7 253.397)" fill="#525062"/>
<rect x="925.8" y="271.784" width="10.5481" height="20.2706" rx="3.16444" transform="rotate(-62.371 925.8 271.784)" fill="#525062"/>
<path d="M966.731 250.667L946.721 291.577C944.875 295.352 947.623 299.755 951.825 299.755H1017.94C1019.92 299.755 1021.76 298.721 1022.79 297.028L1047.69 256.118C1050 252.332 1047.27 247.482 1042.84 247.482H971.835C969.665 247.482 967.685 248.718 966.731 250.667Z" fill="#B2A2FF"/>
<ellipse cx="938.606" cy="299.842" rx="20.5689" ry="15.8222" transform="rotate(111.486 938.606 299.842)" fill="#FFF2B0"/>
<rect x="691.675" y="323.429" width="7.3837" height="6.32888" fill="#9E8C84"/>
<rect x="698.618" y="316.045" width="7.3837" height="6.32888" transform="rotate(25.4868 698.618 316.045)" fill="#9E8C84"/>
<rect x="708.177" y="322.962" width="7.3837" height="6.32888" transform="rotate(11.8941 708.177 322.962)" fill="#9E8C84"/>
<path d="M1323.51 266.251V290.993C1323.51 298.421 1329.53 304.442 1336.96 304.442C1344.39 304.442 1350.41 298.421 1350.41 290.993V266.251C1350.41 257.681 1342.5 251.297 1334.12 253.104C1327.93 254.44 1323.51 259.916 1323.51 266.251Z" fill="#FBF8FF"/>
<path d="M486.668 302.037L486.992 301.259L489.999 312.292L487.744 312.907L484.539 301.15L486.668 302.037ZM479.38 305.265L475.111 309.576L473.453 307.937L477.712 303.636L479.38 305.265ZM499.791 300.757L499.194 303.011L487.542 299.938L488.446 297.765L499.791 300.757ZM483.774 300.831L481.299 303.328L479.63 301.699L481.45 299.863L483.774 300.831ZM482.655 296.246L481.751 298.418L470.015 295.324L470.612 293.07L482.655 296.246ZM492.495 292.037L488.285 296.286L485.962 295.319L490.827 290.408L492.495 292.037ZM485.297 295.042L483.474 294.283L482.986 295.453L479.806 283.789L482.062 283.174L485.297 295.042ZM496.353 288.144L494.415 290.1L492.746 288.471L494.694 286.505L496.353 288.144Z" fill="white"/>
<path d="M1394.86 158.582L1395.19 157.805L1398.19 168.838L1395.94 169.452L1392.73 157.695L1394.86 158.582ZM1387.57 161.811L1383.31 166.121L1381.65 164.482L1385.91 160.181L1387.57 161.811ZM1407.99 157.303L1407.39 159.557L1395.74 156.484L1396.64 154.311L1407.99 157.303ZM1391.97 157.376L1389.49 159.873L1387.83 158.244L1389.64 156.408L1391.97 157.376ZM1390.85 152.791L1389.95 154.964L1378.21 151.869L1378.81 149.615L1390.85 152.791ZM1400.69 148.582L1396.48 152.831L1394.16 151.864L1399.02 146.953L1400.69 148.582ZM1393.49 151.587L1391.67 150.828L1391.18 151.998L1388 140.334L1390.26 139.719L1393.49 151.587ZM1404.55 144.69L1402.61 146.645L1400.94 145.016L1402.89 143.05L1404.55 144.69Z" fill="white"/>
<path d="M847.59 154.785C843.154 149.988 837.821 145.66 831.357 143.294C824.893 140.928 817.154 140.754 811.122 143.898C806.583 146.264 803.289 150.432 802.328 155.025C801.367 159.618 802.755 164.557 806.035 168.211C808.661 171.136 812.753 173.285 816.944 172.889C821.135 172.492 824.939 168.918 824.193 165.236C823.787 163.24 822.237 161.595 820.676 160.113C818.494 158.041 816.145 156.056 813.363 154.662C809.789 152.865 805.669 152.119 801.592 151.683C797.961 151.294 794.219 151.139 790.704 152.035C784.698 153.566 780.003 158.164 778.116 163.45C776.836 167.042 776.769 171.047 778.45 174.509C780.131 177.971 783.688 180.776 787.874 181.406C788.724 181.534 789.625 181.57 790.425 181.293C791.187 181.03 791.8 180.506 792.302 179.933C795.558 176.221 794.322 170.437 790.577 167.108C786.832 163.778 781.26 162.548 775.957 162.533C768.924 162.531 762.051 164.391 756.216 167.876" stroke="white" stroke-width="1.63168" stroke-linecap="round" stroke-linejoin="round" stroke-dasharray="18.5 18.5"/>
<path d="M210.141 184.234V187.789H197.953V191.07H209.438V194.547H197.953V198.023C204.066 198.004 207.875 197.848 212.172 197.047L212.641 200.484C207.836 201.305 203.656 201.461 196.43 201.422H193.617V184.234H210.141ZM220.023 204.508V217.047H197.211V204.508H220.023ZM201.508 207.906V213.531H215.727V207.906H201.508ZM220.023 182.164V190.602H224.945V194.195H220.023V202.867H215.688V182.164H220.023ZM237.758 188.57C237.758 192.516 239.945 196.422 244.594 198.258L242.25 201.578C239.145 200.328 236.977 198.023 235.727 195.172C234.398 198.375 232.094 201.07 228.734 202.516L226.43 199.156C231.273 197.008 233.539 192.555 233.578 188.57V184.273H237.758V188.57ZM256.938 182.203V203.57H252.797V194.586H249.281V203.375H245.219V182.789H249.281V190.992H252.797V182.203H256.938ZM256.938 205.25V217.477H252.602V208.727H232.758V205.25H256.938Z" fill="white"/>
</svg>
