<svg width="1440" height="400" viewBox="0 0 1440 400" fill="none" xmlns="http://www.w3.org/2000/svg">
<g clip-path="url(#clip0_337_3321)">
<rect width="1440" height="400" fill="#2F2F2F"/>
<path d="M823.5 410C805.679 370.97 713.501 259.5 575.001 362M575.001 362L585.001 314.5M575.001 362L650.443 368.5" stroke="url(#paint0_linear_337_3321)" stroke-width="15" stroke-linecap="round"/>
<rect x="1046.37" y="-7.50183" width="27" height="461.268" transform="rotate(-12.9506 1046.37 -7.50183)" fill="#FE5CFF"/>
<path d="M1375 134.293L1379.5 121.793L1370 123.293L1375 134.293Z" fill="#FE64FF" stroke="#FE64FF"/>
<path d="M814.929 110.554L1332 29.7929L1376.96 139.053L863.117 229.388L777.774 177.362L814.929 110.554Z" fill="#FE64FF"/>
<path d="M783.5 162.293L778 177.293L789.5 165.793L783.5 162.293Z" fill="#FE64FF" stroke="#FE64FF"/>
<path d="M820.196 94.8652L1342.91 28.5085L1380.16 121.39L868.384 213.7L783.042 161.673L820.196 94.8652Z" fill="#FE90FF"/>
<path d="M1139.48 146.025L1047.5 161.293L1052.5 178.293L1145.8 162.514L1139.48 146.025Z" fill="#FFB2FF"/>
<path d="M1146 163.793L1053.31 179.614L1047 196.793L1137.5 181.293L1146 163.793Z" fill="#FFB2FF"/>
<path d="M671 314.5C661.001 306 649.949 293.42 652.349 254.22C655.349 205.22 683.352 222.72 681.852 236.22C681.08 243.163 681.518 245.053 681.852 247.22C691.852 224.72 715.5 185.721 730.5 189.22C740.187 191.481 740.791 197.543 737.073 206.054C740.187 199.094 751.888 188.648 763 192.22C771.687 195.013 769.921 209.334 765.06 223.041C769.985 215.13 775.954 208.389 781.5 209.721C795.26 213.023 799.852 230.221 789.852 252.721C779.852 275.221 777.927 319.874 711 329C689 332 671 314.5 671 314.5Z" fill="#FE90FF"/>
<ellipse cx="733.435" cy="327.285" rx="17.3626" ry="15.7454" transform="rotate(-41.2209 733.435 327.285)" fill="#FFF28F"/>
<ellipse cx="660.486" cy="316.149" rx="14.4805" ry="16.1675" transform="rotate(28.8593 660.486 316.149)" fill="#FFF28F"/>
<path d="M731 271.975C733.5 268.975 740.7 264.775 749.5 271.975" stroke="#D800C2" stroke-width="4" stroke-linecap="round"/>
<path d="M691.964 254.421C695.819 253.796 704.008 255.348 705.929 266.555" stroke="#D800C2" stroke-width="4" stroke-linecap="round"/>
<path d="M624.868 225.528L606 201L616.378 296.755L624.868 316.094L645.623 311.849L656.944 335.906L676.284 333.075L691.378 351L706.472 274.585L693.736 258.547H667.793L650.34 225.528H624.868Z" fill="#FFFDFD"/>
<path d="M624.868 225.528V315.623L646.095 311.849L650.812 225.528H624.868Z" fill="#FFCFFF"/>
<path d="M668.265 258.547L656.976 336.624L676.755 333.547L694.208 258.547H668.265Z" fill="#FFCFFF"/>
<circle cx="703" cy="316" r="10" fill="#FFF28F"/>
<ellipse cx="716" cy="277.5" rx="2" ry="1.5" fill="#D800C2"/>
<path d="M725.249 285.416C721.614 286.569 715.914 287.35 711.778 287.76C710.415 287.895 709.581 289.303 710.335 290.447C712.474 293.69 716.561 297.687 722.5 298C728.963 298.34 729.134 291.714 728.119 286.854C727.861 285.62 726.451 285.035 725.249 285.416Z" fill="#D800C2" stroke="#D800C2" stroke-width="4" stroke-linecap="round"/>
<path d="M1263 421.5C1267.5 419.5 1356 397.5 1352.5 336C1349 274.5 1259.5 351 1330.5 376.5C1387.3 396.9 1451.83 252 1477 177" stroke="url(#paint1_linear_337_3321)" stroke-width="15" stroke-linecap="round"/>
<path d="M1207.36 159.531C1212.51 150.414 1208.84 130.817 1206.37 120.743C1204.7 113.924 1210.36 108.934 1216.87 113.362C1223.38 117.79 1217.39 125.557 1219.78 123.079C1228.71 113.8 1263.89 119.073 1251.4 147.234C1242.59 167.093 1216.55 166.614 1207.9 162.186C1206.94 161.695 1206.83 160.47 1207.36 159.531Z" fill="#8B79FF" stroke="#8B79FF" stroke-width="1.96824" stroke-linecap="round"/>
<path d="M1080.3 185.654C1080.12 184.836 1080.47 183.988 1081.18 183.542C1095.62 174.485 1105.85 172.917 1122.05 174.174C1122.92 174.241 1123.63 174.862 1123.83 175.704L1130.84 205.559C1131.12 206.752 1130.27 207.913 1129.05 208.022C1113.54 209.404 1104.29 211.903 1089.66 217.139C1088.52 217.545 1087.28 216.869 1087.02 215.693L1080.3 185.654Z" fill="#FE5CFF"/>
<ellipse cx="1109.25" cy="210.693" rx="22.4416" ry="7.24731" transform="rotate(-15.6234 1109.25 210.693)" fill="#FE2DFF"/>
<path d="M1097.37 216.788C1096.84 214.505 1097.97 212.151 1100.1 211.182C1106.56 208.247 1111.48 206.667 1119.05 206.699C1121.27 206.708 1123.12 208.309 1123.62 210.465L1135.37 261.556C1135.99 264.247 1134.31 266.931 1131.61 267.55L1115.05 271.36C1112.36 271.978 1109.67 270.298 1109.05 267.607L1097.37 216.788Z" fill="#FE5CFF"/>
<path d="M1420.5 161.793L1406.5 151.293L1404.5 156.293L1420.5 161.793Z" fill="#FE0BFF" stroke="#FE0BFF"/>
<path d="M1347.9 123.596L856.999 334.073L883.812 469.394L1374.71 258.917L1420.75 161.747L1347.9 123.596Z" fill="#FE0BFF"/>
<path d="M1333.9 112.596L843.5 331.793L869.812 458.394L1360.71 247.917L1406.75 150.747L1333.9 112.596Z" fill="#FE64FF"/>
<path d="M1067.67 230.883L1153.63 193.08L1156.46 212.489L1070.5 250.292L1067.67 230.883Z" fill="#FFB2FF"/>
<ellipse cx="1242.72" cy="152.947" rx="5.86306" ry="7.48851" transform="rotate(-9.61747 1242.72 152.947)" fill="#FFF28F"/>
<ellipse cx="1215.29" cy="162.68" rx="5.86306" ry="7.48851" transform="rotate(-49.533 1215.29 162.68)" fill="#FFF28F"/>
<circle cx="1222.15" cy="137.718" r="2.11816" transform="rotate(-2.64301 1222.15 137.718)" fill="#3422A6"/>
<ellipse cx="1229.42" cy="141.092" rx="0.751617" ry="0.529539" transform="rotate(-2.64301 1229.42 141.092)" fill="#3422A6"/>
<path d="M1228.31 144.852C1230.45 145.283 1233.87 143.641 1235.06 141.89" stroke="#3422A5" stroke-width="2.11816" stroke-linecap="round"/>
<path d="M1236.79 133.33L1235.02 135.268C1234.47 135.877 1234.79 136.857 1235.6 137.02L1238.04 137.513" stroke="#3422A5" stroke-width="2.11816" stroke-linecap="round"/>
<path d="M1086.6 344.879L1172.58 308.817L1177.41 325.868L1090.03 362.202L1086.6 344.879Z" fill="#FFB2FF"/>
<path d="M1090.54 363.391L1177.42 327.419L1191.91 338.599L1107.06 373.676L1090.54 363.391Z" fill="#FFB2FF"/>
<path d="M1119.5 357.793C1134 347.793 1146.36 342.046 1163.87 348.545L1173.29 389.46C1155.04 388.547 1145.64 391.599 1129.43 399.545L1119.5 357.793Z" fill="#FE5CFF"/>
<ellipse cx="1151.14" cy="393.648" rx="22.6985" ry="8.25642" transform="rotate(-12.0027 1151.14 393.648)" fill="#FE2DFF"/>
<ellipse cx="1153.74" cy="399.293" rx="13.5354" ry="7.97604" transform="rotate(-12.0027 1153.74 399.293)" fill="#FE5CFF"/>
<ellipse cx="1141.74" cy="353.462" rx="22.6823" ry="8.15842" transform="rotate(-12.0027 1141.74 353.462)" fill="#FE5CFF"/>
<path d="M741 198.5L723 233" stroke="#2F2F2F" stroke-width="2" stroke-linecap="round"/>
<path d="M772 209L754 243.5" stroke="#2F2F2F" stroke-width="2" stroke-linecap="round"/>
<path d="M221.664 182.164V217.477H217.289V182.164H221.664ZM211.117 185.914C211.117 196.422 207.055 205.367 194.672 211.227L192.406 207.75C201.645 203.355 205.941 197.379 206.703 189.352H194.203V185.914H211.117ZM248.891 184.977V188.18H227.992V184.977H236.234V181.969H240.57V184.977H248.891ZM238.461 189.195C243.617 189.156 247.133 191.227 247.133 194.508C247.133 197.281 244.555 199.137 240.57 199.625V201.5C243.559 201.363 246.547 201.109 249.359 200.758L249.672 203.727C242.094 205.016 233.734 205.133 227.484 205.133L226.898 201.773C229.711 201.793 232.914 201.773 236.234 201.656V199.586C232.23 199.117 229.711 197.262 229.75 194.508C229.711 191.227 233.188 189.156 238.461 189.195ZM238.461 192.125C235.688 192.086 233.891 192.945 233.93 194.508C233.891 195.953 235.688 196.812 238.461 196.773C241.156 196.812 242.953 195.953 242.992 194.508C242.953 192.945 241.156 192.086 238.461 192.125ZM256.195 182.242V205.992H251.82V182.242H256.195ZM256.195 207.438V217.477H251.82V210.836H231.898V207.438H256.195Z" fill="white"/>
</g>
<defs>
<linearGradient id="paint0_linear_337_3321" x1="666.181" y1="331.736" x2="783.61" y2="447.727" gradientUnits="userSpaceOnUse">
<stop stop-color="#FFEFFF"/>
<stop offset="1" stop-color="#FC6AFE"/>
</linearGradient>
<linearGradient id="paint1_linear_337_3321" x1="1293" y1="325" x2="1432.5" y2="395" gradientUnits="userSpaceOnUse">
<stop stop-color="#FE3BFF"/>
<stop offset="1" stop-color="#FEB2FE"/>
</linearGradient>
<clipPath id="clip0_337_3321">
<rect width="1440" height="400" fill="white"/>
</clipPath>
</defs>
</svg>
