<svg width="364" height="237" viewBox="0 0 364 237" fill="none" xmlns="http://www.w3.org/2000/svg">
<g clip-path="url(#clip0_2138_20422)">
<path d="M187.055 97.3635L185.033 98.9593L187.055 100.555V106.347L185.033 107.943L187.055 109.539V129.365H77.9033V14.6545H187.055V97.3635Z" fill="#EAEAEA"/>
<path d="M133.082 147.051L76.3867 129.268L133.082 120.774L187.054 129.268L133.082 147.051Z" fill="#EAEAEA"/>
<path d="M133.822 31.8358L77.9033 13.7103L133.822 0.252686L187.055 13.7103L133.822 31.8358Z" fill="white"/>
<path d="M133.489 127.178L131.468 128.774L133.489 130.37V136.161L131.468 137.757L133.489 139.353V159.179H24.3379V44.469H133.489V127.178Z" fill="#EAEAEA"/>
<path d="M79.5178 176.866L22.8223 159.082L79.5178 150.588L133.49 159.082L79.5178 176.866Z" fill="#EAEAEA"/>
<path d="M80.2568 61.6503L24.3379 43.5248L80.2568 30.3198L133.489 43.5248L80.2568 61.6503Z" fill="white"/>
<path d="M132.464 174.874L206.667 187.642L143.091 208.702L59.459 192.026L132.464 174.874Z" fill="#EAEAEA"/>
<path d="M156.987 192.026C182.803 192.026 203.73 187.614 203.73 182.172C203.73 176.729 182.803 172.318 156.987 172.318C131.172 172.318 110.244 176.729 110.244 182.172C110.244 187.614 131.172 192.026 156.987 192.026Z" fill="#4D4D4D"/>
<path d="M128.723 203.165L180.692 212.107L111.68 225.843L59.7109 216.9L128.723 203.165Z" fill="#CECECE"/>
<path d="M311.653 186.994L363.621 195.936L294.609 209.672L242.641 200.729L311.653 186.994Z" fill="#CECECE"/>
<path d="M112.308 35.166C118.985 34.2257 124.367 35.5588 128.566 38.4789C132.683 41.3413 135.328 45.4943 137.064 49.6354C139.781 56.1176 140.567 63.4676 140.93 67.2601C159.055 50.358 176.538 43.8107 192.032 44.9235C207.77 46.0537 220.704 55.0347 229.499 67.489C246.904 92.1411 249.021 131.926 223.792 155.977C176.859 200.719 127.134 184.265 113.249 179.864C108.232 178.274 104.616 176.062 102.11 173.445C99.5853 170.806 98.3386 167.911 97.8419 165.227C97.3527 162.583 97.6013 160.213 97.9526 158.533C98.1294 157.686 98.3381 156.99 98.5089 156.489C98.5948 156.238 98.6721 156.035 98.7323 155.883C98.7626 155.807 98.7879 155.744 98.8091 155.695C98.8192 155.67 98.8288 155.65 98.8364 155.632C98.8404 155.623 98.844 155.614 98.847 155.607C98.8485 155.604 98.85 155.6 98.8515 155.597C98.852 155.596 98.8536 155.593 98.8536 155.593C98.8541 155.591 98.8551 155.589 101.75 156.886L98.8551 155.588L98.9112 155.465L98.9753 155.345C104.723 144.775 106.35 128.015 105.603 110.684C104.863 93.5388 101.842 76.5587 98.8753 65.9943C98.8733 65.9872 98.8707 65.9796 98.8682 65.9715C98.8495 65.9129 98.8248 65.8315 98.7939 65.73C98.7333 65.5258 98.6504 65.2373 98.5534 64.876C98.3599 64.1549 98.1087 63.1351 97.8712 61.9072C97.4002 59.476 96.956 56.1156 97.1536 52.5929C97.3502 49.097 98.1951 45.1467 100.571 41.8131C103.03 38.3607 106.876 35.931 112.308 35.166Z" fill="#8B79FF"/>
<path d="M303.28 169.634L301.259 170.802L303.28 171.968V176.204L301.259 177.371L303.28 178.538V193.036H194.129V109.151H303.28V169.634Z" fill="#EAEAEA"/>
<path d="M248.705 107.13C255.961 107.13 261.844 101.248 261.844 93.9914C261.844 86.7351 255.961 80.8528 248.705 80.8528C241.449 80.8528 235.566 86.7351 235.566 93.9914C235.566 101.248 241.449 107.13 248.705 107.13Z" fill="#FFF28F"/>
<path d="M169.115 118.247C170.371 118.247 171.389 117.795 171.389 117.237C171.389 116.679 170.371 116.226 169.115 116.226C167.859 116.226 166.841 116.679 166.841 117.237C166.841 117.795 167.859 118.247 169.115 118.247Z" fill="#0D005E"/>
<path d="M152.944 112.183C156.154 112.183 158.755 109.695 158.755 106.625C158.755 103.555 156.154 101.066 152.944 101.066C149.735 101.066 147.133 103.555 147.133 106.625C147.133 109.695 149.735 112.183 152.944 112.183Z" fill="#0D005E"/>
<path d="M156.478 94.8627L139.52 100.784C138.143 101.265 137.416 102.771 137.897 104.149C138.378 105.526 139.885 106.253 141.262 105.772L158.22 99.8507C159.597 99.3698 160.324 97.8633 159.843 96.4858C159.362 95.1084 157.856 94.3817 156.478 94.8627Z" fill="#0D005E"/>
<path d="M186.802 111.173C190.011 111.173 192.613 108.684 192.613 105.614C192.613 102.544 190.011 100.055 186.802 100.055C183.592 100.055 180.99 102.544 180.99 105.614C180.99 108.684 183.592 111.173 186.802 111.173Z" fill="#0D005E"/>
<path d="M198.637 100.337L181.724 94.3695C180.341 93.8816 178.824 94.6071 178.336 95.99C177.848 97.3729 178.574 98.8894 179.957 99.3773L196.87 105.345C198.253 105.833 199.769 105.107 200.257 103.724C200.745 102.341 200.019 100.825 198.637 100.337Z" fill="#0D005E"/>
<path d="M164.062 126.08L169.285 122.598C169.794 122.259 170.457 122.259 170.966 122.598L176.189 126.08" stroke="#0D005E" stroke-width="3.03198" stroke-linecap="round"/>
<path d="M217.88 58.7866C217.88 66.5081 211.545 72.7676 203.73 72.7676C195.916 72.7676 189.581 66.5081 189.581 58.7866C189.581 51.0652 203.73 30.8252 203.73 30.8252C203.73 30.8252 217.88 51.0652 217.88 58.7866Z" fill="#6ED3FF"/>
<path d="M188.065 158.169C195.322 158.169 201.204 152.286 201.204 145.03C201.204 137.774 195.322 131.891 188.065 131.891C180.809 131.891 174.927 137.774 174.927 145.03C174.927 152.286 180.809 158.169 188.065 158.169Z" fill="#FFF28F"/>
<path d="M181.496 229.673L183.77 230.178V228.409L181.496 229.673Z" fill="#F5F5F5"/>
<path d="M112.456 156.662C125.42 142.588 141.859 152.886 150.777 164.461C157.463 173.137 159.619 185.151 152.874 194.571C151.849 196.002 147.679 198.259 146.376 197.584C127.59 187.854 99.9923 170.193 112.456 156.662Z" fill="#FFF28F"/>
<path d="M249.309 210.723L192.613 192.939L249.309 184.446L303.281 192.939L249.309 210.723Z" fill="#EAEAEA"/>
<path d="M250.048 127.343L194.129 109.218L250.048 100.561L303.28 109.218L250.048 127.343Z" fill="white"/>
<path d="M188.065 158.169C195.322 158.169 201.204 152.286 201.204 145.03C201.204 137.774 195.322 131.891 188.065 131.891C180.809 131.891 174.927 137.774 174.927 145.03C174.927 152.286 180.809 158.169 188.065 158.169Z" fill="#FFF28F"/>
<path d="M276.498 139.471L252.242 147.304H279.025L276.498 139.471Z" fill="white"/>
<path d="M296.711 147.051L272.455 154.884H299.238L296.711 147.051Z" fill="white"/>
<path d="M195.14 167.264L219.396 175.097H192.613L195.14 167.264Z" fill="white"/>
<path d="M30.9072 198.342L65.2697 200.616L38.7924 208.196L0.0820312 204.912L30.9072 198.342Z" fill="#EAEAEA"/>
<path d="M143.091 214.26L177.453 216.534L150.976 224.114L112.266 220.83L143.091 214.26Z" fill="white"/>
</g>
<defs>
<clipPath id="clip0_2138_20422">
<rect width="363.838" height="237" fill="white" transform="translate(0.0810547)"/>
</clipPath>
</defs>
</svg>
