<svg width="56" height="56" viewBox="0 0 56 56" fill="none" xmlns="http://www.w3.org/2000/svg">
<path d="M15.9517 8.12049C15.9517 6.94938 16.9011 6 18.0722 6H24.1686C25.3397 6 26.2891 6.94938 26.2891 8.12049V10.7711H15.9517V8.12049Z" fill="#4EC4FF"/>
<path d="M7.99994 11.8312C7.99994 10.6601 8.94932 9.71069 10.1204 9.71069H43.7832C44.9543 9.71069 45.9037 10.6601 45.9037 11.8312V47.8795C45.9037 49.0507 44.9543 50 43.7832 50H10.1204C8.94932 50 7.99994 49.0507 7.99994 47.8795V11.8312Z" fill="url(#paint0_linear_1748_14547)"/>
<path d="M11.7106 8.12049C11.7106 6.94938 12.66 6 13.8311 6H19.9275C21.0986 6 22.048 6.94938 22.048 8.12049V10.7711H11.7106V8.12049Z" fill="#EBF8FF"/>
<path d="M40.6022 17.9277H13.5659V19.253H40.6022V17.9277Z" fill="#AEE4FF"/>
<path d="M40.6022 23.7593H13.5659V25.0846H40.6022V23.7593Z" fill="#AEE4FF"/>
<path d="M40.6022 29.3254H13.5659V30.6507H40.6022V29.3254Z" fill="#AEE4FF"/>
<path d="M40.5893 24.6145L26.7045 38.4993L31.9704 43.7651L45.8551 29.8804L40.5893 24.6145Z" fill="#4EC4FF"/>
<path fill-rule="evenodd" clip-rule="evenodd" d="M48.0294 27.7069L45.8564 29.8806L40.5904 24.614L42.7635 22.441C43.3514 21.853 44.3042 21.853 44.8915 22.441L48.0294 25.5789C48.6174 26.1668 48.6174 27.119 48.0294 27.7069Z" fill="#04A8F9"/>
<path fill-rule="evenodd" clip-rule="evenodd" d="M25.4863 45.5025L28.0598 44.8131L25.6563 42.4089L24.9668 44.9831C24.8822 45.2983 25.1711 45.5865 25.4863 45.5025Z" fill="#04A8F9"/>
<path fill-rule="evenodd" clip-rule="evenodd" d="M25.6573 42.409L28.0602 44.8132L31.9715 43.765L26.7056 38.499L25.6573 42.409Z" fill="#F6FDFF"/>
<defs>
<linearGradient id="paint0_linear_1748_14547" x1="26.9518" y1="9.71069" x2="26.9518" y2="50" gradientUnits="userSpaceOnUse">
<stop stop-color="#ECF9FF"/>
<stop offset="1" stop-color="#C5ECFF"/>
</linearGradient>
</defs>
</svg>
