<svg width="24" height="24" viewBox="0 0 24 24" fill="none" xmlns="http://www.w3.org/2000/svg">
<path d="M12.9508 20.5488C13.2002 20.1189 13.7513 19.9723 14.1812 20.2217C14.611 20.471 14.7574 21.0213 14.5084 21.4512C14.2535 21.8906 13.8871 22.2562 13.4469 22.5098C13.0067 22.7632 12.5075 22.8965 11.9996 22.8965C11.4917 22.8965 10.9925 22.7632 10.5523 22.5098C10.1121 22.2562 9.74574 21.8906 9.49081 21.4512C9.24178 21.0213 9.38824 20.471 9.81796 20.2217C10.2479 19.9723 10.799 20.1189 11.0484 20.5488C11.1451 20.7153 11.284 20.8531 11.4508 20.9492C11.6178 21.0454 11.8069 21.0967 11.9996 21.0967C12.1923 21.0967 12.3814 21.0454 12.5484 20.9492C12.7153 20.8531 12.8541 20.7153 12.9508 20.5488ZM17.0992 8C17.0992 6.6474 16.5625 5.34999 15.606 4.39355C14.6496 3.43712 13.3522 2.90039 11.9996 2.90039C10.647 2.90039 9.34959 3.43712 8.39316 4.39355C7.43672 5.34999 6.89999 6.6474 6.89999 8C6.89999 11.6324 6.11986 14.0335 5.28964 15.5557C5.18261 15.7519 5.07475 15.933 4.96835 16.0996H19.0309C18.9245 15.933 18.8166 15.7519 18.7096 15.5557C17.8794 14.0335 17.0992 11.6324 17.0992 8ZM2.49667 16.2539H2.4957C2.50482 16.2471 2.52428 16.2324 2.55234 16.209C2.60844 16.1622 2.69974 16.0807 2.81503 15.959C3.04511 15.7161 3.37354 15.3103 3.70956 14.6943C4.33748 13.5432 5.00986 11.6262 5.0914 8.61621L5.09921 8C5.09921 6.17001 5.8267 4.41509 7.1207 3.12109C8.4147 1.82709 10.1696 1.09961 11.9996 1.09961C13.8296 1.09961 15.5845 1.82709 16.8785 3.12109C18.1725 4.41509 18.9 6.17001 18.9 8C18.9 11.3674 19.6199 13.4665 20.2896 14.6943C20.6257 15.3103 20.9541 15.7161 21.1842 15.959C21.2995 16.0807 21.3908 16.1622 21.4469 16.209C21.4749 16.2324 21.4944 16.2471 21.5035 16.2539H21.5025C21.8298 16.4745 21.9754 16.8826 21.8609 17.2607C21.746 17.6403 21.3962 17.9004 20.9996 17.9004H2.9996C2.603 17.9004 2.2532 17.6403 2.13828 17.2607C2.02382 16.8826 2.16939 16.4745 2.49667 16.2539Z" fill="#6E58FE"/>
</svg>
