<svg width="56" height="56" viewBox="0 0 56 56" fill="none" xmlns="http://www.w3.org/2000/svg">
<path d="M15.9517 8.12049C15.9517 6.94938 16.901 6 18.0722 6H24.1686C25.3397 6 26.2891 6.94938 26.2891 8.12049V10.7711H15.9517V8.12049Z" fill="#4EC4FF"/>
<path d="M8 11.8314C8 10.6603 8.94938 9.71094 10.1205 9.71094H43.7833C44.9544 9.71094 45.9038 10.6603 45.9038 11.8314V47.8798C45.9038 49.0509 44.9544 50.0003 43.7833 50.0003H10.1205C8.94938 50.0003 8 49.0509 8 47.8798V11.8314Z" fill="url(#paint0_linear_1792_5756)"/>
<path d="M11.7107 8.12049C11.7107 6.94938 12.6601 6 13.8312 6H19.9276C21.0987 6 22.0481 6.94938 22.0481 8.12049V10.7711H11.7107V8.12049Z" fill="#EBF8FF"/>
<path d="M40.6022 17.9277H13.5659V19.253H40.6022V17.9277Z" fill="#AEE4FF"/>
<path d="M40.6022 23.7588H13.5659V25.0841H40.6022V23.7588Z" fill="#AEE4FF"/>
<path d="M40.6022 29.3252H13.5659V30.6505H40.6022V29.3252Z" fill="#AEE4FF"/>
<path d="M40.5893 24.6143L26.7046 38.499L31.9705 43.7649L45.8552 29.8801L40.5893 24.6143Z" fill="#4EC4FF"/>
<path fill-rule="evenodd" clip-rule="evenodd" d="M48.0293 27.7069L45.8563 29.8806L40.5903 24.614L42.7634 22.441C43.3513 21.853 44.3041 21.853 44.8914 22.441L48.0293 25.5789C48.6173 26.1668 48.6173 27.119 48.0293 27.7069Z" fill="#04A8F9"/>
<path fill-rule="evenodd" clip-rule="evenodd" d="M25.4863 45.5028L28.0598 44.8134L25.6563 42.4092L24.9668 44.9834C24.8822 45.2985 25.1711 45.5868 25.4863 45.5028Z" fill="#04A8F9"/>
<path fill-rule="evenodd" clip-rule="evenodd" d="M25.6572 42.409L28.0601 44.8132L31.9714 43.765L26.7054 38.499L25.6572 42.409Z" fill="#F6FDFF"/>
<defs>
<linearGradient id="paint0_linear_1792_5756" x1="26.9519" y1="9.71094" x2="26.9519" y2="50.0003" gradientUnits="userSpaceOnUse">
<stop stop-color="#ECF9FF"/>
<stop offset="1" stop-color="#C5ECFF"/>
</linearGradient>
</defs>
</svg>
