<svg width="56" height="56" viewBox="0 0 56 56" fill="none" xmlns="http://www.w3.org/2000/svg">
<path d="M16.0002 8.12049C16.0002 6.94938 16.9496 6 18.1207 6H24.2171C25.3883 6 26.3376 6.94938 26.3376 8.12049V10.7711H16.0002V8.12049Z" fill="#AC9FFF"/>
<path d="M8.0481 11.8314C8.0481 10.6603 8.99747 9.71094 10.1686 9.71094H43.8314C45.0025 9.71094 45.9519 10.6603 45.9519 11.8314V47.8798C45.9519 49.0509 45.0025 50.0003 43.8314 50.0003H10.1686C8.99747 50.0003 8.0481 49.0509 8.0481 47.8798V11.8314Z" fill="url(#paint0_linear_1792_4099)"/>
<path d="M11.7588 8.12049C11.7588 6.94938 12.7082 6 13.8793 6H19.9757C21.1468 6 22.0962 6.94938 22.0962 8.12049V10.7711H11.7588V8.12049Z" fill="#F1EEFF"/>
<path d="M40.6508 17.9277H13.6145V19.253H40.6508V17.9277Z" fill="#D7CFFF"/>
<path d="M40.6508 23.7588H13.6145V25.0841H40.6508V23.7588Z" fill="#D7CFFF"/>
<path d="M40.6508 29.3252H13.6145V30.6505H40.6508V29.3252Z" fill="#D7CFFF"/>
<path d="M40.9028 30.4659H49.0006L44.2319 21.3428H44.2312L40.9028 30.4659Z" fill="#8A78FF"/>
<path d="M26.07 21.3428L21.3013 30.4659H29.399L26.07 21.3428Z" fill="#8A78FF"/>
<path d="M40.9022 30.4658H29.3989L35.1505 46.2317L40.9022 30.4658Z" fill="#8A78FF"/>
<path d="M29.3987 30.4659H40.9019L35.1503 21.3428L29.3987 30.4659Z" fill="#6E58FE"/>
<path d="M21.3008 30.4658L35.1502 46.2317L29.3986 30.4658H21.3008Z" fill="#C2B5FF"/>
<path d="M40.9018 30.4658L35.1501 46.2317L48.9995 30.4658H40.9018Z" fill="#C2B5FF"/>
<path d="M35.1508 21.3428H26.0701L29.3992 30.4659L35.1508 21.3428Z" fill="#C2B5FF"/>
<path d="M40.9018 30.4659L44.2301 21.3428H35.1501L40.9018 30.4659Z" fill="#C2B5FF"/>
<defs>
<linearGradient id="paint0_linear_1792_4099" x1="27" y1="9.71094" x2="27" y2="50.0003" gradientUnits="userSpaceOnUse">
<stop stop-color="#F1EEFF"/>
<stop offset="1" stop-color="#E1DAFF"/>
</linearGradient>
</defs>
</svg>
