<svg width="36" height="36" viewBox="0 0 36 36" fill="none" xmlns="http://www.w3.org/2000/svg">
<mask id="mask0_1524_15965" style="mask-type:alpha" maskUnits="userSpaceOnUse" x="8" y="8" width="21" height="20">
<path d="M23.2507 13.7065C23.2507 14.2432 22.8213 14.6726 22.2846 14.6726C21.7479 14.6726 21.3186 14.2432 21.3186 13.7065C21.3186 13.1698 21.7479 12.7404 22.2846 12.7404C22.8213 12.7404 23.2507 13.1698 23.2507 13.7065ZM26.0416 18.0002C26.0416 20.1828 26.0326 20.4601 25.9969 21.3188C25.9611 22.1775 25.818 22.759 25.6212 23.2689C25.4154 23.7966 25.1381 24.2439 24.6909 24.6911C24.2436 25.1384 23.7964 25.4157 23.2686 25.6214C22.7587 25.8182 22.1683 25.9524 21.3186 25.9971C20.4598 26.0329 20.1825 26.0418 17.9999 26.0418C15.8173 26.0418 15.54 26.0329 14.6813 25.9971C13.8225 25.9613 13.2411 25.8182 12.7312 25.6214C12.2035 25.4157 11.7562 25.1384 11.309 24.6911C10.8617 24.2439 10.5844 23.7966 10.3787 23.2689C10.1819 22.759 10.0477 22.1686 10.003 21.3188C9.9672 20.4601 9.95825 20.1828 9.95825 18.0002C9.95825 15.8176 9.9672 15.5403 10.003 14.6815C10.0388 13.8228 10.1819 13.2414 10.3787 12.7315C10.5844 12.2037 10.8617 11.7565 11.309 11.3092C11.7562 10.862 12.2035 10.5847 12.7312 10.3789C13.2411 10.1821 13.8315 10.0479 14.6813 10.0032C15.54 9.96744 15.8173 9.9585 17.9999 9.9585C20.1825 9.9585 20.4598 9.96744 21.3186 10.0032C22.1773 10.039 22.7587 10.1821 23.2686 10.3789C23.7964 10.5847 24.2436 10.862 24.6909 11.3092C25.1381 11.7565 25.4154 12.2037 25.6212 12.7315C25.818 13.2414 25.9521 13.8317 25.9969 14.6815C26.0326 15.5403 26.0416 15.8176 26.0416 18.0002ZM24.5925 18.0002C24.5925 15.8533 24.5925 15.5939 24.5477 14.7441C24.512 13.957 24.3778 13.5365 24.2704 13.2503C24.1273 12.8746 23.9484 12.6063 23.6711 12.329C23.3938 12.0517 23.1255 11.8728 22.7498 11.7296C22.4635 11.6223 22.0431 11.4881 21.2559 11.4523C20.4062 11.4166 20.1557 11.4076 17.9999 11.4076C15.8441 11.4076 15.5937 11.4076 14.7439 11.4523C13.9567 11.4881 13.5363 11.6223 13.2501 11.7296C12.8744 11.8728 12.606 12.0517 12.3287 12.329C12.0514 12.6063 11.8725 12.8746 11.7294 13.2503C11.622 13.5365 11.4879 13.957 11.4521 14.7441C11.4163 15.5939 11.4074 15.8444 11.4074 18.0002C11.4074 20.1559 11.4074 20.4064 11.4521 21.2562C11.4879 22.0434 11.622 22.4638 11.7294 22.75C11.8725 23.1257 12.0514 23.3941 12.3287 23.6714C12.606 23.9487 12.8744 24.1276 13.2501 24.2707C13.5363 24.378 13.9567 24.5122 14.7439 24.548C15.5937 24.5838 15.8441 24.5927 17.9999 24.5927C20.1557 24.5927 20.4062 24.5927 21.2559 24.548C22.0431 24.5122 22.4635 24.378 22.7498 24.2707C23.1255 24.1276 23.3938 23.9487 23.6711 23.6714C23.9484 23.3941 24.1273 23.1257 24.2704 22.75C24.3778 22.4638 24.512 22.0434 24.5477 21.2562C24.5835 20.4064 24.5925 20.1559 24.5925 18.0002ZM22.1236 18.0002C22.1236 20.2812 20.272 22.1328 17.991 22.1328C15.71 22.1328 13.8583 20.2812 13.8583 18.0002C13.8583 15.7192 15.71 13.8675 17.991 13.8675C20.272 13.8675 22.1236 15.7192 22.1236 18.0002ZM20.6745 18.0002C20.6745 16.5153 19.4759 15.3166 17.991 15.3166C16.5061 15.3166 15.3074 16.5153 15.3074 18.0002C15.3074 19.4851 16.5061 20.6837 17.991 20.6837C19.4759 20.6837 20.6745 19.4851 20.6745 18.0002Z" fill="#171719"/>
</mask>
<g mask="url(#mask0_1524_15965)">
<rect x="8" y="8" width="20" height="20" fill="#B0B1B3"/>
</g>
</svg>
