<svg width="21" height="20" viewBox="0 0 21 20" fill="none" xmlns="http://www.w3.org/2000/svg">
<rect x="2.5" y="2" width="16" height="16" rx="8" fill="#F44336"/>
<path fill-rule="evenodd" clip-rule="evenodd" d="M10.4998 6.16675C10.0396 6.16675 9.6665 6.53984 9.6665 7.00008V10.3334C9.6665 10.7937 10.0396 11.1667 10.4998 11.1667C10.9601 11.1667 11.3332 10.7937 11.3332 10.3334V7.00008C11.3332 6.53984 10.9601 6.16675 10.4998 6.16675ZM10.4998 12.1667C10.0396 12.1667 9.6665 12.5398 9.6665 13.0001C9.6665 13.4603 10.0396 13.8334 10.4998 13.8334C10.9601 13.8334 11.3332 13.4603 11.3332 13.0001C11.3332 12.5398 10.9601 12.1667 10.4998 12.1667Z" fill="white"/>
</svg>
