<svg width="24" height="24" viewBox="0 0 24 24" fill="none" xmlns="http://www.w3.org/2000/svg">
<path fill-rule="evenodd" clip-rule="evenodd" d="M12 2C6.204 2 1.5 5.70949 1.5 10.2717C1.5 13.1178 3.3165 15.6015 6.0885 17.1151L4.923 21.4535C4.90101 21.5398 4.90554 21.6309 4.93597 21.7145C4.96641 21.7981 5.0213 21.8702 5.09328 21.9213C5.16526 21.9723 5.2509 21.9998 5.3387 22C5.4265 22.0002 5.51227 21.9732 5.5845 21.9225L10.6875 18.4795C11.118 18.4795 11.559 18.5541 12 18.5541C17.796 18.5541 22.5 14.8446 22.5 10.2717C22.5 5.69883 17.796 2 12 2Z" fill="black"/>
</svg>
