<svg width="24" height="24" viewBox="0 0 24 24" fill="none" xmlns="http://www.w3.org/2000/svg">
<path d="M21 17.0996C21.4971 17.0996 21.9004 17.5029 21.9004 18C21.9004 18.4971 21.4971 18.9004 21 18.9004H3C2.50294 18.9004 2.09961 18.4971 2.09961 18C2.09961 17.5029 2.50294 17.0996 3 17.0996H21ZM21 11.0996C21.4971 11.0996 21.9004 11.5029 21.9004 12C21.9004 12.4971 21.4971 12.9004 21 12.9004H3C2.50294 12.9004 2.09961 12.4971 2.09961 12C2.09961 11.5029 2.50294 11.0996 3 11.0996H21ZM21 5.09961C21.4971 5.09961 21.9004 5.50294 21.9004 6C21.9004 6.49706 21.4971 6.90039 21 6.90039H3C2.50294 6.90039 2.09961 6.49706 2.09961 6C2.09961 5.50294 2.50294 5.09961 3 5.09961H21Z" fill="#181D27"/>
</svg>
