<svg width="56" height="56" viewBox="0 0 56 56" fill="none" xmlns="http://www.w3.org/2000/svg">
<path d="M16.0002 8.12049C16.0002 6.94938 16.9495 6 18.1206 6H24.2171C25.3882 6 26.3375 6.94938 26.3375 8.12049V10.7711H16.0002V8.12049Z" fill="#AC9FFF"/>
<path d="M8.0481 11.8312C8.0481 10.6601 8.99747 9.71069 10.1686 9.71069H43.8314C45.0025 9.71069 45.9519 10.6601 45.9519 11.8312V47.8795C45.9519 49.0507 45.0025 50 43.8314 50H10.1686C8.99747 50 8.0481 49.0507 8.0481 47.8795V11.8312Z" fill="url(#paint0_linear_1748_14548)"/>
<path d="M11.7588 8.12049C11.7588 6.94938 12.7081 6 13.8793 6H19.9757C21.1468 6 22.0962 6.94938 22.0962 8.12049V10.7711H11.7588V8.12049Z" fill="#F1EEFF"/>
<path d="M40.6509 17.9277H13.6146V19.253H40.6509V17.9277Z" fill="#D7CFFF"/>
<path d="M40.6509 23.7593H13.6146V25.0846H40.6509V23.7593Z" fill="#D7CFFF"/>
<path d="M40.6509 29.3254H13.6146V30.6507H40.6509V29.3254Z" fill="#D7CFFF"/>
<path d="M40.9025 30.4657H49.0003L44.2316 21.3425H44.2309L40.9025 30.4657Z" fill="#8A78FF"/>
<path d="M26.0697 21.3425L21.3011 30.4657H29.3988L26.0697 21.3425Z" fill="#8A78FF"/>
<path d="M40.902 30.4658H29.3987L35.1504 46.2317L40.902 30.4658Z" fill="#8A78FF"/>
<path d="M29.3986 30.4657H40.9018L35.1502 21.3425L29.3986 30.4657Z" fill="#6E58FE"/>
<path d="M21.3008 30.4658L35.1501 46.2317L29.3985 30.4658H21.3008Z" fill="#C2B5FF"/>
<path d="M40.9016 30.4658L35.15 46.2317L48.9994 30.4658H40.9016Z" fill="#C2B5FF"/>
<path d="M35.1506 21.3425H26.0699L29.3989 30.4657L35.1506 21.3425Z" fill="#C2B5FF"/>
<path d="M40.9016 30.4657L44.2299 21.3425H35.15L40.9016 30.4657Z" fill="#C2B5FF"/>
<defs>
<linearGradient id="paint0_linear_1748_14548" x1="27" y1="9.71069" x2="27" y2="50" gradientUnits="userSpaceOnUse">
<stop stop-color="#F1EEFF"/>
<stop offset="1" stop-color="#E1DAFF"/>
</linearGradient>
</defs>
</svg>
