<svg width="24" height="24" viewBox="0 0 24 24" fill="none" xmlns="http://www.w3.org/2000/svg">
<path d="M18.0996 11C18.0996 7.07878 14.9212 3.90039 11 3.90039C7.07878 3.90039 3.90039 7.07878 3.90039 11C3.90039 14.9212 7.07878 18.0996 11 18.0996C12.9224 18.0996 14.6649 17.3347 15.9434 16.0938C15.9651 16.0662 15.9882 16.0391 16.0137 16.0137C16.0391 15.9882 16.0662 15.9651 16.0938 15.9434C17.3347 14.6649 18.0996 12.9224 18.0996 11ZM19.9004 11C19.9004 13.1333 19.1479 15.09 17.8965 16.623L21.6367 20.3633C21.9882 20.7148 21.9882 21.2852 21.6367 21.6367C21.2852 21.9882 20.7148 21.9882 20.3633 21.6367L16.623 17.8965C15.09 19.1479 13.1333 19.9004 11 19.9004C6.08467 19.9004 2.09961 15.9153 2.09961 11C2.09961 6.08467 6.08467 2.09961 11 2.09961C15.9153 2.09961 19.9004 6.08467 19.9004 11Z" fill="#0B0B0B"/>
</svg>
