<svg preserveAspectRatio="none" width="100%" height="100%" overflow="visible" style="display: block;" viewBox="0 0 18 18" fill="none" xmlns="http://www.w3.org/2000/svg">
<path id="Star 7" d="M8.29147 1.21646C8.60776 0.67344 9.39224 0.67344 9.70853 1.21646L12.051 5.23818C12.1668 5.4371 12.361 5.57816 12.586 5.62688L17.1347 6.61189C17.7489 6.74489 17.9913 7.49098 17.5726 7.95959L14.4716 11.4302C14.3182 11.6018 14.244 11.83 14.2672 12.0591L14.736 16.6896C14.7993 17.3148 14.1647 17.7759 13.5896 17.5225L9.33064 15.6457C9.11999 15.5529 8.88001 15.5529 8.66936 15.6457L4.41038 17.5225C3.83532 17.7759 3.20065 17.3148 3.26396 16.6896L3.73279 12.0591C3.75598 11.83 3.68182 11.6018 3.52844 11.4302L0.427414 7.95959C0.00870478 7.49098 0.251124 6.74489 0.865307 6.61189L5.41404 5.62688C5.63903 5.57816 5.83317 5.4371 5.94904 5.23818L8.29147 1.21646Z" fill="var(--fill-0, #EBECEF)"/>
</svg>
