<svg preserveAspectRatio="none" width="100%" height="100%" overflow="visible" style="display: block;" viewBox="0 0 38 36" fill="none" xmlns="http://www.w3.org/2000/svg">
<path id="Star 8" d="M18.2915 1.21646C18.6078 0.67344 19.3922 0.67344 19.7085 1.21646L25.2838 10.7886C25.3996 10.9875 25.5938 11.1286 25.8188 11.1773L36.6453 13.5217C37.2594 13.6547 37.5019 14.4008 37.0832 14.8694L29.7024 23.1298C29.549 23.3014 29.4748 23.5296 29.498 23.7587L30.6139 34.7797C30.6772 35.405 30.0425 35.8661 29.4675 35.6127L19.3306 31.1457C19.12 31.0529 18.88 31.0529 18.6694 31.1457L8.53252 35.6127C7.95746 35.8661 7.3228 35.405 7.3861 34.7797L8.50198 23.7587C8.52517 23.5296 8.45101 23.3014 8.29763 23.1298L0.91685 14.8694C0.49814 14.4008 0.740559 13.6547 1.35474 13.5217L12.1812 11.1773C12.4062 11.1286 12.6004 10.9875 12.7162 10.7886L18.2915 1.21646Z" fill="var(--fill-0, #FFC700)"/>
</svg>
