<svg preserveAspectRatio="none" width="100%" height="100%" overflow="visible" style="display: block;" viewBox="0 0 20 20" fill="none" xmlns="http://www.w3.org/2000/svg">
<path id="Icon (Stroke)" d="M0 16.9003V12.9003C0 12.4032 0.403334 11.9999 0.900391 11.9999C1.39745 11.9999 1.80078 12.4032 1.80078 12.9003V16.9003C1.80078 17.192 1.91676 17.4713 2.12305 17.6776C2.32934 17.8839 2.60865 17.9999 2.90039 17.9999H16.9004C17.1921 17.9999 17.4714 17.8839 17.6777 17.6776C17.884 17.4713 18 17.192 18 16.9003V12.9003C18 12.4032 18.4033 11.9999 18.9004 11.9999C19.3974 11.9999 19.8008 12.4032 19.8008 12.9003V16.9003C19.8008 17.6694 19.495 18.4072 18.9512 18.951C18.4073 19.4949 17.6695 19.8006 16.9004 19.8006H2.90039C2.13126 19.8006 1.39346 19.4949 0.849609 18.951C0.305754 18.4072 0 17.6694 0 16.9003ZM9 12.9003V3.07408L5.53711 6.53697C5.18564 6.88844 4.61514 6.88844 4.26367 6.53697C3.9122 6.1855 3.9122 5.615 4.26367 5.26353L9.26367 0.263533L9.33203 0.202009C9.68553 -0.086443 10.2076 -0.0660214 10.5371 0.263533L15.5371 5.26353C15.8886 5.615 15.8886 6.1855 15.5371 6.53697C15.1856 6.88844 14.6151 6.88844 14.2637 6.53697L10.8008 3.07408V12.9003C10.8008 13.3973 10.3974 13.8006 9.90039 13.8006C9.40333 13.8006 9 13.3973 9 12.9003Z" fill="var(--fill-0, #0B0B0B)"/>
</svg>
