<svg width="24" height="24" viewBox="0 0 24 24" fill="none" xmlns="http://www.w3.org/2000/svg">
<path d="M17.3632 5.36334C17.7147 5.01186 18.2852 5.01186 18.6367 5.36334C18.9881 5.71481 18.9881 6.2853 18.6367 6.63677L13.2734 12.0001L18.6367 17.3633C18.9881 17.7148 18.9881 18.2853 18.6367 18.6368C18.2852 18.9882 17.7147 18.9882 17.3632 18.6368L11.9999 13.2735L6.63665 18.6368C6.28518 18.9882 5.71469 18.9882 5.36321 18.6368C5.01174 18.2853 5.01174 17.7148 5.36321 17.3633L10.7265 12.0001L5.36321 6.63677C5.01174 6.2853 5.01174 5.71481 5.36321 5.36334C5.71469 5.01186 6.28518 5.01186 6.63665 5.36334L11.9999 10.7266L17.3632 5.36334Z" fill="#0B0B0B"/>
</svg>
