<svg width="20" height="21" viewBox="0 0 20 21" fill="none" xmlns="http://www.w3.org/2000/svg">
<path d="M10.7926 17.624C11.0005 17.2657 11.4597 17.1436 11.818 17.3514C12.1761 17.5592 12.2982 18.0178 12.0907 18.376C11.8782 18.7422 11.5729 19.0468 11.2061 19.2581C10.8392 19.4694 10.4233 19.5804 10 19.5804C9.57671 19.5804 9.16076 19.4694 8.79394 19.2581C8.42707 19.0468 8.12178 18.7422 7.90934 18.376C7.70181 18.0178 7.82386 17.5592 8.18196 17.3514C8.54026 17.1436 8.99951 17.2657 9.20735 17.624C9.28792 17.7628 9.40362 17.8776 9.54264 17.9577C9.6818 18.0378 9.83941 18.0806 10 18.0806C10.1606 18.0806 10.3182 18.0378 10.4574 17.9577C10.5964 17.8776 10.7121 17.7628 10.7926 17.624ZM14.2497 7.16668C14.2497 6.03951 13.8024 4.95834 13.0054 4.16131C12.2083 3.36428 11.1272 2.917 10 2.917C8.87283 2.917 7.79165 3.36428 6.99462 4.16131C6.19759 4.95834 5.75032 6.03951 5.75032 7.16668C5.75032 10.1937 5.10021 12.1946 4.40836 13.4631C4.31917 13.6266 4.22929 13.7775 4.14062 13.9164H15.8594C15.7707 13.7775 15.6808 13.6266 15.5916 13.4631C14.8998 12.1946 14.2497 10.1937 14.2497 7.16668ZM2.08089 14.0449H2.08007C2.08768 14.0393 2.10389 14.027 2.12727 14.0075C2.17402 13.9685 2.25011 13.9006 2.34619 13.7992C2.53792 13.5968 2.81161 13.2586 3.09163 12.7453C3.61489 11.786 4.17521 10.1885 4.24316 7.68019L4.24967 7.16668C4.24967 5.64168 4.85591 4.17926 5.93424 3.10092C7.01257 2.02259 8.475 1.41635 10 1.41635C11.525 1.41635 12.9874 2.02259 14.0658 3.10092C15.1441 4.17926 15.7503 5.64168 15.7503 7.16668C15.7503 9.97284 16.3502 11.7221 16.9084 12.7453C17.1884 13.2586 17.4621 13.5968 17.6538 13.7992C17.7499 13.9006 17.826 13.9685 17.8727 14.0075C17.8961 14.027 17.9123 14.0393 17.9199 14.0449H17.9191C18.1918 14.2288 18.3132 14.5689 18.2178 14.884C18.122 15.2003 17.8305 15.417 17.5 15.417H2.5C2.1695 15.417 1.878 15.2003 1.78222 14.884C1.68684 14.5689 1.80815 14.2288 2.08089 14.0449Z" fill="#6E58FE"/>
</svg>
