<svg width="56" height="56" viewBox="0 0 56 56" fill="none" xmlns="http://www.w3.org/2000/svg">
<path d="M48.4074 29.2962C48.4074 40.7306 39.138 49.9999 27.7037 49.9999C16.2694 49.9999 7 40.7306 7 29.2962C7 17.8619 16.2694 8.59253 27.7037 8.59253C39.138 8.59253 48.4074 17.8619 48.4074 29.2962Z" fill="url(#paint0_linear_1748_14546)"/>
<path d="M43.0988 29.2962C43.0988 37.7986 36.2062 44.6912 27.7037 44.6912C19.2013 44.6912 12.3087 37.7986 12.3087 29.2962C12.3087 20.7937 19.2013 13.9011 27.7037 13.9011C36.2062 13.9011 43.0988 20.7937 43.0988 29.2962Z" fill="#F1EEFF"/>
<path d="M38.321 29.0308C38.321 34.748 33.6863 39.3827 27.9691 39.3827C22.252 39.3827 17.6173 34.748 17.6173 29.0308C17.6173 23.3136 22.252 18.679 27.9691 18.679C33.6863 18.679 38.321 23.3136 38.321 29.0308Z" fill="url(#paint1_linear_1748_14546)"/>
<path d="M33.0123 29.2962C33.0123 32.2281 30.6356 34.6048 27.7037 34.6048C24.7718 34.6048 22.3951 32.2281 22.3951 29.2962C22.3951 26.3643 24.7718 23.9875 27.7037 23.9875C30.6356 23.9875 33.0123 26.3643 33.0123 29.2962Z" fill="#F1EEFF"/>
<path d="M42.8081 7L45.0431 12.0212L37.6134 19.4508L35.6106 14.1975L42.8081 7Z" fill="#5846CB"/>
<path d="M50.0004 14.1924L45.043 12.0211L37.6133 19.4508L42.8029 21.3899L50.0004 14.1924Z" fill="#5846CB"/>
<path d="M42.8533 12.7234C43.2603 12.3163 43.9204 12.3163 44.3275 12.7234C44.7346 13.1305 44.7346 13.7906 44.3275 14.1976L28.7568 29.7683C28.3497 30.1754 27.6897 30.1754 27.2826 29.7683C26.8755 29.3612 26.8755 28.7012 27.2826 28.2941L42.8533 12.7234Z" fill="#5846CB"/>
<defs>
<linearGradient id="paint0_linear_1748_14546" x1="27.7037" y1="8.59253" x2="27.7037" y2="49.9999" gradientUnits="userSpaceOnUse">
<stop stop-color="#9C8DFF"/>
<stop offset="0.990385" stop-color="#6E58FE"/>
</linearGradient>
<linearGradient id="paint1_linear_1748_14546" x1="27.9691" y1="18.679" x2="27.9691" y2="39.3827" gradientUnits="userSpaceOnUse">
<stop stop-color="#9787FF"/>
<stop offset="1" stop-color="#6E58FE"/>
</linearGradient>
</defs>
</svg>
