<svg width="1060" height="264" viewBox="0 0 1060 264" fill="none" xmlns="http://www.w3.org/2000/svg">
<rect width="1060" height="264" fill="#6E58FE"/>
<ellipse cx="667" cy="240.5" rx="87" ry="4.5" fill="#3E2FA1"/>
<ellipse cx="916" cy="240.5" rx="116" ry="4.5" fill="#3E2FA1"/>
<path d="M703.692 226.549C698.325 229.062 696.228 234.312 697.93 237.946C699.631 241.579 705.007 243.331 710.373 240.818C715.74 238.305 717.837 233.055 716.136 229.421C714.434 225.788 709.059 224.036 703.692 226.549Z" fill="#FFF28F"/>
<path d="M915.29 226.444C877.233 245.479 857.366 224.938 860.353 208.558C866.332 175.777 936.229 194.463 927.82 215.418C926.337 219.113 922.42 222.878 915.29 226.444Z" fill="#FFF28F"/>
<path d="M948.936 227.837C985.29 249.952 1006.79 231.124 1005.16 214.552C1001.91 181.39 930.713 194.235 937.361 215.813C938.534 219.618 942.126 223.694 948.936 227.837Z" fill="#FFF28F"/>
<path d="M987.85 77.1953C981.388 75.9514 976.078 76.9868 971.841 79.6271C967.688 82.2154 964.906 86.1337 963.011 90.085C960.044 96.2702 958.918 103.396 958.378 107.074C941.54 89.7108 924.82 82.4716 909.663 82.7963C894.268 83.1262 881.22 91.2456 872.037 102.954C853.862 126.129 849.848 164.804 873.26 189.485C916.812 235.398 966.087 221.798 979.837 218.189C984.805 216.886 988.439 214.907 991.009 212.479C993.6 210.031 994.957 207.27 995.573 204.678C996.179 202.125 996.053 199.803 995.793 198.148C995.662 197.314 995.493 196.625 995.351 196.128C995.28 195.88 995.214 195.677 995.163 195.527C995.138 195.451 995.116 195.388 995.098 195.34C995.089 195.315 995.081 195.294 995.074 195.277C995.071 195.268 995.068 195.259 995.065 195.252C995.064 195.248 995.062 195.245 995.061 195.242C995.06 195.241 995.059 195.238 995.059 195.238C995.059 195.236 995.058 195.234 992.173 196.356L995.058 195.233L995.009 195.11L994.952 194.991C989.869 184.406 989.105 167.99 990.683 151.133C992.244 134.458 996.023 118.055 999.432 107.903C999.435 107.896 999.437 107.889 999.44 107.881C999.461 107.825 999.49 107.747 999.524 107.649C999.594 107.454 999.689 107.177 999.801 106.829C1000.02 106.135 1000.32 105.154 1000.61 103.969C1001.19 101.622 1001.79 98.368 1001.77 94.9249C1001.75 91.5078 1001.12 87.6159 998.966 84.2501C996.737 80.7643 993.108 78.2075 987.85 77.1953Z" fill="#8B79FF"/>
<path d="M930.022 157.733C930.751 157.608 931.393 158.207 931.158 158.908C929.91 162.638 925.092 166.598 919.099 161.31" fill="#20194D"/>
<path d="M919.099 161.31C925.092 166.598 929.91 162.638 931.158 158.908C931.393 158.207 930.751 157.608 930.022 157.733L919.666 159.509C918.786 159.66 918.429 160.719 919.099 161.31Z" stroke="#20194D" stroke-width="4.94078" stroke-linecap="round"/>
<path d="M904.182 124.427C901.254 123.863 898.422 125.78 897.858 128.708C897.295 131.637 899.212 134.468 902.14 135.032C905.069 135.596 907.9 133.678 908.463 130.75C909.027 127.821 907.111 124.991 904.182 124.427Z" fill="#20194D" stroke="#20194D" stroke-width="0.49318"/>
<path d="M916.745 145.203C915.538 144.971 914.399 145.064 913.537 145.39C912.67 145.718 912.121 146.263 911.995 146.913C911.87 147.563 912.178 148.272 912.861 148.898C913.541 149.521 914.564 150.032 915.771 150.264C916.977 150.496 918.117 150.402 918.979 150.076C919.846 149.748 920.395 149.204 920.521 148.554C920.646 147.904 920.338 147.194 919.655 146.568C918.975 145.945 917.952 145.436 916.745 145.203Z" fill="#20194D" stroke="#20194D" stroke-width="0.49318"/>
<path d="M721.656 231.25C746.625 225.942 751.853 206.597 749.228 195.183C746.602 183.768 735.865 188.92 735.865 188.92C736.065 184.935 733.478 173.857 723.89 164.126C714.301 154.395 709.413 162.518 708.167 167.795C694.105 157.372 689.638 168.842 689.162 175.88C674.75 166.752 671.487 181.079 672.44 187.706C674.882 205.079 687.134 238.588 721.656 231.25Z" fill="#FE90FF"/>
<path d="M719.342 184.764C717.892 183.446 714.716 181.721 712.82 186.676" stroke="#590059" stroke-width="3.80327" stroke-linecap="round"/>
<path d="M703.367 189.684C701.918 188.366 698.742 186.641 696.845 191.596" stroke="#590059" stroke-width="3.80327" stroke-linecap="round"/>
<path d="M712.383 191.977C711.991 192.075 711.675 192.267 711.477 192.485C711.278 192.704 711.219 192.922 711.263 193.098C711.307 193.274 711.462 193.438 711.74 193.537C712.017 193.636 712.387 193.657 712.779 193.558C713.17 193.46 713.487 193.268 713.684 193.051C713.883 192.832 713.942 192.614 713.899 192.439C713.855 192.263 713.7 192.098 713.421 191.998C713.144 191.9 712.775 191.879 712.383 191.977Z" fill="#590059" stroke="#590059" stroke-width="0.543325"/>
<path d="M734.792 222.35C728.993 223.572 725.754 228.206 726.582 232.132C727.41 236.058 732.244 238.99 738.043 237.767C743.841 236.544 747.08 231.91 746.253 227.984C745.425 224.059 740.59 221.127 734.792 222.35Z" fill="#FFF28F"/>
<path d="M882.968 188.248L970.15 191.857L963.684 224.764L876.502 221.155L882.968 188.248Z" fill="#70C88E"/>
<path d="M991.395 181.277L993.832 189.021L958.798 206.332L955.124 198.668L991.395 181.277Z" fill="#70C88E"/>
<path d="M732.678 115.952L841.373 51.5297L900.287 191.481L829.362 233.517L732.678 115.952Z" fill="white"/>
<path d="M745.831 87.5537C746.662 88.5867 746.433 90.1099 745.334 90.8525L740.567 94.0748C739.59 94.7353 738.269 94.5358 737.531 93.6161L715.553 66.2445C714.288 64.6697 711.751 65.4105 711.532 67.4183L708.431 95.9185C708.295 97.1629 707.177 98.0619 705.932 97.9264L700.3 97.3131C699.055 97.1776 698.157 96.0591 698.292 94.8148L703.085 50.7736C703.089 50.7419 703.079 50.71 703.059 50.685C703.018 50.6329 703.026 50.5569 703.078 50.5151L709.171 45.622C710.146 44.8389 711.571 44.9937 712.356 45.9679L745.831 87.5537Z" fill="#E1FF8D"/>
<path d="M835.936 43.552L845.232 38.0426L850.143 46.3285L723.901 121.15L718.99 112.864L728.253 107.374L723.63 99.5749L822.77 24.6803L835.936 43.552Z" fill="#F0F0F0"/>
<path d="M760.715 133.255L843.089 84.4328L887.387 189.906L833.637 221.763L760.715 133.255Z" fill="#C99F63"/>
<path d="M779.103 129.272L770.329 134.472L833.829 213.536L841.781 207.15L779.103 129.272Z" fill="#86673C"/>
<path d="M758.247 103.105L749.228 108.449L763.354 125.767L772.138 120.561L758.247 103.105Z" fill="#DEFF83"/>
<rect x="757.521" y="131.196" width="98.5882" height="6.79919" rx="3.39959" transform="rotate(-30.6546 757.521 131.196)" fill="#FFE3A7"/>
<rect x="852.089" y="181.847" width="18.1312" height="18.1312" rx="2.83299" transform="rotate(-30.6546 852.089 181.847)" fill="#F8E2C2"/>
<rect x="825.188" y="196.473" width="18.1312" height="18.1312" rx="2.83299" transform="rotate(-30.6546 825.188 196.473)" fill="#F8E2C2"/>
<rect x="810.202" y="164.519" width="18.1312" height="18.1312" rx="2.83299" transform="rotate(-30.6546 810.202 164.519)" fill="#F8E2C2"/>
<rect x="832.333" y="177.411" width="18.1377" height="18.1377" rx="2.83299" transform="rotate(-53.6211 832.333 177.411)" fill="#F8E2C2"/>
<path d="M944.394 138.264L935.593 139.005C934.713 139.079 934.252 140.088 934.773 140.802L938.663 146.135" stroke="#20194D" stroke-width="4.53279" stroke-linecap="round"/>
<circle cx="895.644" cy="176.579" r="17.2813" transform="rotate(2.37039 895.644 176.579)" fill="#FFF28F"/>
<ellipse cx="716.339" cy="205.471" rx="8.28386" ry="8.83612" transform="rotate(-9.524 716.339 205.471)" fill="#590059"/>
<path d="M710.583 126.028C710.369 131.206 705.997 135.231 700.818 135.016C695.639 134.802 691.615 130.43 691.829 125.251C692.044 120.073 701.92 108.398 701.92 108.398C701.92 108.398 710.798 120.849 710.583 126.028Z" fill="#C99F63"/>
<path d="M606.611 226.103C600.973 224.28 595.858 226.689 594.623 230.507C593.389 234.324 596.125 239.272 601.764 241.095C607.402 242.918 612.517 240.509 613.752 236.691C614.986 232.874 612.25 227.926 606.611 226.103Z" fill="#FFF28F"/>
<path d="M633.119 226.103C627.48 224.28 622.366 226.689 621.131 230.507C619.897 234.324 622.633 239.272 628.272 241.095C633.91 242.918 639.025 240.509 640.259 236.691C641.494 232.874 638.757 227.926 633.119 226.103Z" fill="#FFF28F"/>
<path d="M640.167 167.133C634.458 168.724 631.522 173.555 632.598 177.42C633.675 181.285 638.687 183.902 644.395 182.312C650.104 180.721 653.041 175.89 651.964 172.025C650.887 168.16 645.875 165.543 640.167 167.133Z" fill="#FFF28F"/>
<path d="M574.257 154.436C583.914 159.082 583.701 180.911 601.97 181.205C623.501 181.551 650.684 175.257 646.144 146.43C642.003 120.136 621.593 123.232 608.602 129.209C606.812 130.032 604.658 129.059 604.243 127.134L599.429 104.834C597.205 94.5315 578.211 95.6261 580.814 107.683C583.975 122.326 586.845 132.374 586.413 140.58C576.717 131.856 562.187 148.628 574.257 154.436Z" fill="#F7F669"/>
<path d="M615.066 153.606C615.496 153.514 615.898 153.549 616.198 153.667C616.5 153.786 616.668 153.973 616.711 154.173C616.754 154.373 616.678 154.614 616.453 154.846C616.228 155.078 615.876 155.276 615.446 155.368C615.016 155.461 614.613 155.426 614.313 155.308C614.011 155.189 613.844 155.002 613.8 154.802C613.757 154.602 613.833 154.361 614.059 154.128C614.283 153.897 614.636 153.699 615.066 153.606Z" fill="#555400" stroke="#555400" stroke-width="0.546599"/>
<path d="M604.593 146.851C606.031 146.54 607.448 147.455 607.758 148.893C608.068 150.33 607.155 151.747 605.717 152.058C604.279 152.368 602.862 151.455 602.551 150.017C602.241 148.579 603.155 147.161 604.593 146.851Z" fill="#555400" stroke="#555400" stroke-width="0.546599"/>
<path d="M620.097 143.507C621.535 143.197 622.952 144.111 623.262 145.549C623.572 146.987 622.659 148.403 621.221 148.714C619.783 149.024 618.366 148.111 618.055 146.673C617.745 145.235 618.659 143.817 620.097 143.507Z" fill="#555400" stroke="#555400" stroke-width="0.546599"/>
<path d="M617.241 159.284L614.644 159.279C613.991 159.278 613.356 159.059 612.841 158.656L611.093 157.29" fill="#555400"/>
<path d="M617.241 159.284L614.644 159.279C613.991 159.278 613.356 159.059 612.841 158.656L611.093 157.29" stroke="#555400" stroke-width="2.93705" stroke-linecap="round"/>
<path d="M603.965 142.502L608.258 144.501L603.965 142.502Z" fill="#555400"/>
<path d="M603.965 142.502L608.258 144.501" stroke="#555400" stroke-width="2.93705" stroke-linecap="round"/>
<path d="M578.781 179.771C573.6 218.565 585.924 225.995 589.272 227.619C603.579 234.559 652.633 240.503 653.306 204.706C653.828 176.91 625.075 170.645 606.437 168.853C605.415 168.755 604.421 169.245 603.914 170.138C602.104 173.32 601.435 175.785 601.457 180.37C581.367 163.709 579.4 175.139 578.781 179.771Z" fill="#00B2FF"/>
<path d="M613.299 196.045C615.107 195.924 616.669 197.292 616.789 199.099C616.91 200.906 615.542 202.468 613.735 202.589C611.928 202.709 610.366 201.342 610.245 199.535C610.125 197.727 611.492 196.165 613.299 196.045Z" fill="#003C56" stroke="#003C56" stroke-width="0.546599"/>
<path d="M635.661 194.554C637.468 194.434 639.03 195.801 639.151 197.609C639.271 199.416 637.904 200.978 636.096 201.098C634.289 201.219 632.727 199.852 632.607 198.044C632.486 196.237 633.854 194.675 635.661 194.554Z" fill="#003C56" stroke="#003C56" stroke-width="0.546599"/>
<path d="M609.736 196.008C610.827 195.935 613.881 195.732 617.372 195.499L609.736 196.008Z" fill="#003C56"/>
<path d="M609.736 196.008C610.827 195.935 613.881 195.732 617.372 195.499" stroke="#003C56" stroke-width="3.82619" stroke-linecap="round"/>
<path d="M631.553 194.555C632.644 194.482 635.698 194.279 639.188 194.046" stroke="#003C56" stroke-width="3.82619" stroke-linecap="round"/>
<path d="M626.115 203.408C626.521 203.381 626.883 203.468 627.139 203.615C627.397 203.763 627.52 203.953 627.533 204.135C627.545 204.316 627.448 204.522 627.211 204.703C626.977 204.883 626.629 205.017 626.224 205.044C625.819 205.071 625.457 204.984 625.2 204.837C624.942 204.689 624.818 204.498 624.806 204.316C624.794 204.135 624.892 203.93 625.128 203.749C625.362 203.569 625.71 203.435 626.115 203.408Z" fill="#003C56" stroke="#003C56" stroke-width="0.546599"/>
<path d="M623.262 209.896L625.18 210.795C626.053 211.204 627.078 211.123 627.875 210.581L629.27 209.633" fill="#003C56"/>
<path d="M623.262 209.896L625.18 210.795C626.053 211.204 627.078 211.123 627.875 210.581L629.27 209.633" stroke="#003C56" stroke-width="2.733" stroke-linecap="round"/>
<path d="M616.94 167.471C611.232 169.061 608.295 173.893 609.372 177.758C610.448 181.623 615.46 184.24 621.169 182.649C626.877 181.059 629.814 176.228 628.737 172.363C627.661 168.498 622.649 165.881 616.94 167.471Z" fill="#FFF28F"/>
<path d="M77.3945 84.8984V88.5215H48.9229V84.8984H77.3945ZM75.002 63.7754V67.2617H70.627V76.6953H74.8652V80.1133H51.2812V76.6953H55.4512V67.2617H51.1445V63.7754H75.002ZM59.8262 76.6953H66.3203V67.2617H59.8262V76.6953ZM105.251 61.041V92.2129H100.91V61.041H105.251ZM95.6123 63.6387V75.6357H85.3584V81.3438C90.0923 81.3267 94.1255 81.0532 98.6885 80.3184L99.0645 83.8389C93.9375 84.7275 89.3232 84.9326 83.6494 84.9326H80.8467V72.1836H91.1689V67.1592H80.8125V63.6387H95.6123ZM125.998 63.8438V84.7275H110.959V63.8438H125.998ZM115.334 67.2617V81.2754H121.76V67.2617H115.334ZM135.466 61.041V92.2129H131.057V61.041H135.466ZM148.352 62.6816C152.333 62.6816 155.495 64.9717 156.35 68.4238H161.545V61.041H165.886V78.6777H161.545V71.9443H156.384C155.598 75.4307 152.385 77.8232 148.352 77.7891C143.635 77.8232 140.046 74.6445 140.08 70.2695C140.046 65.8604 143.635 62.6816 148.352 62.6816ZM148.352 66.3389C145.959 66.3047 144.182 67.8086 144.216 70.2695C144.182 72.6963 145.959 74.1318 148.352 74.1318C150.676 74.1318 152.419 72.6963 152.419 70.2695C152.419 67.8086 150.676 66.3047 148.352 66.3389ZM165.886 80.0449V91.8027H144.968V80.0449H165.886ZM149.343 83.4971V88.3164H161.613V83.4971H149.343ZM204.885 64.2539V67.7744H179.353V64.2539H189.982V61.0068H194.323V64.2539H204.885ZM206.457 81.1387V84.6934H194.323V92.1787H189.982V84.6934H177.985V81.1387H206.457ZM192.17 68.9707C198.835 68.9707 202.868 70.8506 202.902 74.3027C202.868 77.7549 198.835 79.6348 192.17 79.6348C185.437 79.6348 181.403 77.7549 181.438 74.3027C181.403 70.8506 185.437 68.9707 192.17 68.9707ZM192.17 72.1836C188 72.2178 185.949 72.8672 185.949 74.3027C185.949 75.7041 188 76.3877 192.17 76.3877C196.271 76.3877 198.356 75.7041 198.356 74.3027C198.356 72.8672 196.271 72.2178 192.17 72.1836ZM234.382 61.041V92.1445H229.973V61.041H234.382ZM225.051 64.2881C225.051 73.7217 221.735 81.5488 210.627 86.8125L208.337 83.3262C216.369 79.5322 219.907 74.6104 220.607 67.7061H210.012V64.2881H225.051ZM256.701 66.8516C256.701 69.8423 257.812 73.1919 260.734 75.2939C263.64 73.209 264.768 69.8594 264.768 66.8516V63.2627H269.177V66.8516C269.143 70.6113 270.783 74.4395 275.09 76.1826L272.766 79.4297C269.877 78.1992 268.015 75.9946 266.955 73.2773C265.844 76.1484 263.879 78.5752 260.734 79.874C257.556 78.5923 255.573 76.1313 254.479 73.2432C253.386 75.9434 251.506 78.1821 248.669 79.4297L246.413 76.1826C250.583 74.3711 252.326 70.4746 252.326 66.8516V63.2627H256.701V66.8516ZM274.919 84.7617V88.2822H246.55V84.7617H274.919ZM302.434 63.7412V66.6807C302.434 70.5771 302.434 74.9521 301.169 81.5488L296.794 81.1045C297.973 75.2256 298.024 70.8506 298.059 67.1934H279.738V63.7412H302.434ZM305.168 84.7959V88.3506H276.799V84.7959H286.95V74.0977H291.291V84.7959H305.168ZM64.8848 109.015C64.8506 118.585 62.2871 126.617 51.0762 132.428L48.6836 129.146C53.6055 126.549 56.6646 123.661 58.459 120.226L49.4355 121.046L48.8545 117.354L59.8262 116.705C60.1851 115.389 60.4072 113.988 60.5439 112.501H50.5293V109.015H64.8848ZM75.1387 106.041V137.145H70.7979V121.559H64.8164V118.004H70.7979V106.041H75.1387ZM105.319 106.041V137.145H100.91V106.041H105.319ZM97.5605 108.912V112.398H94.792V125.899C96.1592 125.814 97.5093 125.677 98.8252 125.523L99.0303 128.771C92.3994 129.864 85.2217 129.967 79.5137 130.001L79.1035 126.446L82.6924 126.412V112.398H79.958V108.912H97.5605ZM86.9307 126.31L90.5537 126.173V112.398H86.9307V126.31ZM142.165 106.075V115.611H146.369V119.166H142.165V129.283H137.79V106.075H142.165ZM135.944 109.322V112.774H117.487V109.322H124.562V106.007H128.903V109.322H135.944ZM126.716 113.868C131.228 113.868 134.372 116.295 134.372 119.884C134.372 123.473 131.228 125.831 126.716 125.831C122.17 125.831 118.991 123.473 118.991 119.884C118.991 116.295 122.17 113.868 126.716 113.868ZM126.716 117.184C124.631 117.218 123.229 118.175 123.264 119.884C123.229 121.593 124.631 122.516 126.716 122.516C128.801 122.516 130.236 121.593 130.236 119.884C130.236 118.175 128.801 117.218 126.716 117.184ZM143.293 133.111V136.598H121.999V127.506H126.34V133.111H143.293ZM167.287 111.954C167.287 115.714 169.509 119.474 174.567 121.08L172.175 124.361C168.842 123.268 166.501 121.08 165.168 118.312C163.767 121.439 161.271 123.934 157.614 125.182L155.324 121.695C160.52 120.021 162.844 115.953 162.878 111.954V111.817H156.623V108.365H173.474V111.817H167.287V111.954ZM180.48 106.041V115.099H184.685V118.688H180.48V128.839H176.105V106.041H180.48ZM181.608 133.111V136.598H160.314V126.583H164.655V133.111H181.608ZM196.135 108.126C201.057 108.092 204.748 111.305 204.748 115.748C204.748 120.226 201.057 123.404 196.135 123.404C191.213 123.404 187.487 120.226 187.487 115.748C187.487 111.305 191.213 108.092 196.135 108.126ZM196.135 111.886C193.674 111.886 191.794 113.321 191.828 115.748C191.794 118.209 193.674 119.61 196.135 119.61C198.596 119.61 200.476 118.209 200.51 115.748C200.476 113.321 198.63 111.886 196.135 111.886ZM212.199 106.041V137.213H207.858V106.041H212.199ZM186.188 127.301C191.726 127.335 199.416 127.232 206.081 126.31L206.423 129.454C199.519 130.787 192.136 130.855 186.701 130.855L186.188 127.301ZM232.946 108.229C235.732 108.229 238.056 109.767 239.475 112.433H246.311V106.041H250.617V137.213H246.311V125.558H239.816C238.415 128.634 235.954 130.411 232.946 130.411C228.229 130.411 224.846 126.139 224.88 119.303C224.846 112.535 228.229 108.229 232.946 108.229ZM232.946 112.159C230.622 112.159 229.016 114.688 229.05 119.303C229.016 123.951 230.622 126.446 232.946 126.446C235.305 126.446 236.843 123.951 236.843 119.303C236.843 114.688 235.305 112.159 232.946 112.159ZM240.705 115.953C240.893 116.979 241.013 118.106 241.013 119.303C241.013 120.277 240.927 121.2 240.808 122.071H246.311V115.953H240.705ZM283.054 123.336V126.856H276.389V137.145H271.945V126.856H265.588V137.145H261.11V126.856H254.582V123.336H283.054ZM268.732 107.066C275.397 107.066 280.08 109.835 280.08 114.107C280.08 118.312 275.397 120.943 268.732 120.943C262.067 120.943 257.419 118.312 257.453 114.107C257.419 109.835 262.067 107.066 268.732 107.066ZM268.732 110.553C264.562 110.553 261.896 111.817 261.931 114.107C261.896 116.295 264.562 117.525 268.732 117.525C272.937 117.525 275.568 116.295 275.568 114.107C275.568 111.817 272.937 110.553 268.732 110.553ZM321.301 118.688V122.14H292.932V118.688H321.301ZM317.849 123.849V131.778H300.52V133.658H318.669V136.939H296.247V128.736H313.542V127.027H296.213V123.849H317.849ZM318.737 107.032V110.45H309.987C310.944 112.347 314.226 114.142 320.07 114.483L318.703 117.833C312.944 117.406 308.962 115.594 307.082 112.979C305.219 115.577 301.271 117.406 295.563 117.833L294.196 114.483C299.99 114.142 303.237 112.347 304.211 110.45H295.529V107.032H318.737ZM349.328 106.041V137.145H344.919V106.041H349.328ZM339.997 109.288C339.997 118.722 336.682 126.549 325.573 131.812L323.283 128.326C331.315 124.532 334.853 119.61 335.554 112.706H324.958V109.288H339.997ZM379.577 106.041V137.145H375.168V106.041H379.577ZM370.246 109.288C370.246 118.722 366.931 126.549 355.822 131.812L353.532 128.326C361.564 124.532 365.102 119.61 365.803 112.706H355.207V109.288H370.246Z" fill="white"/>
<path d="M53.7031 169.25C53.7031 171.062 55.0469 172.766 57.2031 173.453L56.4375 174.609C54.8281 174.078 53.6094 172.977 52.9844 171.578C52.3516 173.102 51.1094 174.305 49.4375 174.891L48.6719 173.719C50.8438 172.984 52.1875 171.172 52.2031 169.25V168.641H49.0625V167.438H56.7812V168.641H53.7031V169.25ZM60.125 166.344V176.562H58.6406V166.344H60.125ZM60.5469 178.828V180.031H50.9688V175.594H52.4688V178.828H60.5469ZM69.4531 170.578V172.312H75.1094V173.5H62.3438V172.312H67.9844V170.578H69.4531ZM69.4688 166.891C69.4688 168.594 71.625 169.922 74.3906 170.219L73.875 171.359C71.5859 171.047 69.6016 170.141 68.7031 168.688C67.8047 170.141 65.8203 171.047 63.5469 171.359L63.0156 170.219C65.7969 169.922 67.9531 168.594 67.9688 166.891V166.438H69.4688V166.891ZM73.5 174.516V177.844H65.3438V179.047H73.8906V180.188H63.8906V176.766H72.0312V175.656H63.875V174.516H73.5ZM87.1719 166.344V170.844H89.2031V172.078H87.1719V176.812H85.6875V166.344H87.1719ZM84.5312 167.969V169.172H76.1875V167.969H79.625V166.328H81.1094V167.969H84.5312ZM80.3594 169.844C82.375 169.844 83.75 170.891 83.75 172.484C83.75 174.078 82.375 175.109 80.3594 175.109C78.3281 175.109 76.9531 174.078 76.9531 172.484C76.9531 170.891 78.3281 169.844 80.3594 169.844ZM80.3594 170.984C79.1719 170.984 78.375 171.562 78.3906 172.484C78.375 173.391 79.1719 173.953 80.3594 173.953C81.5469 173.953 82.3438 173.391 82.3594 172.484C82.3438 171.562 81.5469 170.984 80.3594 170.984ZM87.7656 178.828V180.031H78.2969V175.984H79.7812V178.828H87.7656ZM106.688 173.141V174.328H93.9062V173.141H99.5781V171.656H95.5V166.969H105.109V168.141H96.9688V170.469H105.203V171.656H101.016V173.141H106.688ZM100.281 175.234C103.297 175.234 105.109 176.156 105.109 177.781C105.109 179.406 103.297 180.312 100.281 180.328C97.25 180.312 95.4219 179.406 95.4219 177.781C95.4219 176.156 97.25 175.234 100.281 175.234ZM100.281 176.391C98.1406 176.391 96.9219 176.891 96.9219 177.781C96.9219 178.672 98.1406 179.172 100.281 179.156C102.391 179.172 103.625 178.672 103.625 177.781C103.625 176.891 102.391 176.391 100.281 176.391ZM111.484 167.375C113.578 167.375 115.062 169.281 115.078 172.281C115.062 175.297 113.578 177.203 111.484 177.203C109.391 177.203 107.891 175.297 107.906 172.281C107.891 169.281 109.391 167.375 111.484 167.375ZM111.484 168.703C110.203 168.703 109.328 170.078 109.328 172.281C109.328 174.5 110.203 175.875 111.484 175.875C112.781 175.875 113.656 174.5 113.656 172.281C113.656 170.078 112.781 168.703 111.484 168.703ZM118.641 166.328V171.812H120.891V173.062H118.641V180.328H117.156V166.328H118.641ZM133.188 166.328V180.359H131.703V166.328H133.188ZM128.906 167.594V172.703H123.875V175.766C126.141 175.758 128.125 175.656 130.469 175.266L130.609 176.484C128.125 176.906 126.016 177 123.547 177H122.359V171.516H127.391V168.797H122.344V167.594H128.906ZM151.344 167.875V169.094H139.953V167.875H144.938V166.266H146.406V167.875H151.344ZM152.109 175.391V176.609H146.406V180.344H144.938V176.609H139.297V175.391H152.109ZM145.672 169.812C148.578 169.812 150.328 170.641 150.328 172.172C150.328 173.672 148.578 174.5 145.672 174.516C142.75 174.5 141 173.672 141.016 172.172C141 170.641 142.75 169.812 145.672 169.812ZM145.672 170.922C143.656 170.922 142.547 171.359 142.547 172.172C142.547 172.953 143.656 173.391 145.672 173.391C147.672 173.391 148.781 172.953 148.797 172.172C148.781 171.359 147.672 170.922 145.672 170.922ZM164.766 166.328V180.328H163.266V166.328H164.766ZM160.594 167.828C160.594 171.922 158.844 175.484 154.047 177.781L153.266 176.578C156.992 174.805 158.805 172.281 159.094 169.016H153.938V167.828H160.594ZM179.766 177.406V178.656H166.953V177.406H172.594V174.953H168.516V170.5H176.734V168.531H168.484V167.312H178.203V171.688H169.984V173.734H178.531V174.953H174.062V177.406H179.766ZM191.797 167.625V168.859H186.875V175.688C189.219 175.68 190.836 175.594 192.672 175.234L192.844 176.453C190.828 176.828 189.125 176.922 186.484 176.922H185.375V167.625H191.797ZM196.375 166.328V180.359H194.891V172.562H191V171.328H194.891V166.328H196.375ZM215.5 171.828V173.047H213.328V180.312H211.844V166.328H213.328V171.828H215.5ZM204.422 167.688V175.562C206.375 175.562 208.414 175.398 210.641 174.938L210.812 176.188C208.422 176.672 206.203 176.797 204.109 176.797H202.953V167.688H204.422ZM229.016 173.641V174.828H216.25V173.641H229.016ZM227.578 178.828V180.031H217.859V175.969H219.359V178.828H227.578ZM222.625 166.797C225.656 166.781 227.625 167.844 227.625 169.594C227.625 171.359 225.656 172.422 222.625 172.438C219.578 172.422 217.625 171.359 217.625 169.594C217.625 167.844 219.578 166.781 222.625 166.797ZM222.625 167.984C220.484 167.984 219.141 168.594 219.156 169.594C219.141 170.625 220.484 171.219 222.625 171.219C224.766 171.219 226.094 170.625 226.094 169.594C226.094 168.594 224.766 167.984 222.625 167.984ZM246 166.328V180.328H244.578V173.094H242.766V179.609H241.406V166.609H242.766V171.875H244.578V166.328H246ZM239.703 168.016V169.219H235.938V175.703C237.656 175.688 238.953 175.609 240.453 175.328L240.562 176.547C238.875 176.891 237.438 176.953 235.391 176.969H234.453V168.016H239.703ZM252.375 167.219C254.594 167.219 256.172 168.578 256.188 170.547C256.172 172.289 254.938 173.555 253.109 173.812V176.031C254.43 175.969 255.773 175.859 257.031 175.672L257.141 176.75C253.969 177.344 250.578 177.359 248.078 177.359L247.891 176.141C248.992 176.141 250.273 176.141 251.625 176.094V173.812C249.812 173.547 248.547 172.281 248.562 170.547C248.547 168.578 250.172 167.219 252.375 167.219ZM252.375 168.5C251.016 168.5 250.016 169.297 250.031 170.547C250.016 171.781 251.016 172.609 252.375 172.594C253.734 172.609 254.734 171.781 254.734 170.547C254.734 169.297 253.734 168.5 252.375 168.5ZM259.391 166.328V180.359H257.906V166.328H259.391ZM272.656 166.328V169.812H274.656V171.078H272.656V174.578H271.172V166.328H272.656ZM272.656 175.172V178.094H264.922V179.156H273.172V180.188H263.438V177.141H271.188V176.203H263.406V175.172H272.656ZM261.547 173.25C262.633 173.25 263.891 173.25 265.203 173.203V172.422C263.594 172.273 262.594 171.633 262.609 170.578C262.594 169.438 263.906 168.766 265.938 168.766C267.953 168.766 269.266 169.438 269.266 170.578C269.266 171.625 268.273 172.266 266.688 172.422V173.156C267.938 173.094 269.203 172.992 270.375 172.828L270.5 173.797C267.484 174.297 264.172 174.312 261.703 174.312L261.547 173.25ZM269.984 167.328V168.359H261.906V167.328H265.203V166.203H266.688V167.328H269.984ZM265.938 169.734C264.734 169.734 264.016 170.047 264.016 170.578C264.016 171.141 264.734 171.484 265.938 171.484C267.125 171.484 267.844 171.141 267.844 170.578C267.844 170.047 267.125 169.734 265.938 169.734ZM288.25 173.141V174.328H275.469V173.141H281.141V171.656H277.062V166.969H286.672V168.141H278.531V170.469H286.766V171.656H282.578V173.141H288.25ZM281.844 175.234C284.859 175.234 286.672 176.156 286.672 177.781C286.672 179.406 284.859 180.312 281.844 180.328C278.812 180.312 276.984 179.406 276.984 177.781C276.984 176.156 278.812 175.234 281.844 175.234ZM281.844 176.391C279.703 176.391 278.484 176.891 278.484 177.781C278.484 178.672 279.703 179.172 281.844 179.156C283.953 179.172 285.188 178.672 285.188 177.781C285.188 176.891 283.953 176.391 281.844 176.391ZM306 173.406V174.609H300.438V177.328H298.969V174.609H293.188V173.406H306ZM304.344 166.984V171.953H294.828V166.984H304.344ZM296.281 168.156V170.781H302.875V168.156H296.281ZM304.578 178.828V180.031H294.781V176H296.266V178.828H304.578ZM318 166.328V172.188H320.109V173.438H318V180.328H316.516V166.328H318ZM306.859 176.516C307.961 176.516 309.242 176.516 310.578 176.469V175.047C309 174.828 307.969 173.875 307.984 172.516C307.969 170.938 309.328 169.891 311.328 169.891C313.312 169.891 314.688 170.938 314.703 172.516C314.688 173.875 313.641 174.836 312.062 175.062V176.406C313.305 176.359 314.555 176.258 315.719 176.094L315.812 177.188C312.781 177.734 309.5 177.75 307.094 177.75L306.859 176.516ZM315.516 167.984V169.172H307.125V167.984H310.578V166.359H312.062V167.984H315.516ZM311.328 171.047C310.156 171.047 309.375 171.625 309.375 172.516C309.375 173.406 310.156 173.953 311.328 173.953C312.5 173.953 313.281 173.406 313.281 172.516C313.281 171.625 312.5 171.047 311.328 171.047ZM333.656 172.75V173.891H320.844V172.75H333.656ZM332.078 174.875V177.953H323.859V179.109H332.516V180.156H322.375V176.969H330.609V175.938H322.359V174.875H332.078ZM332.047 166.688V169.719H323.953V170.781H332.281V171.828H322.484V168.734H330.562V167.734H322.453V166.688H332.047ZM349.594 166.328V169.953H351.625V171.219H349.594V174.766H348.109V166.328H349.594ZM349.594 175.5V180.156H340.656V175.5H349.594ZM342.109 176.672V178.953H348.125V176.672H342.109ZM346.953 167.75V168.938H338.609V167.75H342.047V166.219H343.531V167.75H346.953ZM342.781 169.547C344.797 169.547 346.172 170.547 346.172 172.047C346.172 173.562 344.797 174.547 342.781 174.562C340.734 174.547 339.375 173.562 339.375 172.047C339.375 170.547 340.734 169.547 342.781 169.547ZM342.781 170.688C341.594 170.672 340.797 171.203 340.812 172.047C340.797 172.922 341.594 173.438 342.781 173.438C343.969 173.438 344.766 172.922 344.781 172.047C344.766 171.203 343.969 170.672 342.781 170.688ZM355.891 167.984C355.875 171.125 355.484 174.359 353.531 177.109L352.375 176.453C354.008 174.266 354.5 171.844 354.609 169.203H352.703V167.984H355.891ZM359 167.984C359 169.164 358.977 170.453 358.828 171.75H360.469V166.688H361.875V179.641H360.469V172.953H358.656C358.336 174.695 357.75 176.422 356.672 177.953L355.516 177.281C357.328 174.852 357.656 171.906 357.719 169.203H356.312V167.984H359ZM364.531 166.328V180.328H363.109V166.328H364.531ZM377.25 167.562V174.094H370.703V167.562H377.25ZM372.156 168.766V172.922H375.797V168.766H372.156ZM381.156 166.312V170.5H383.188V171.75H381.156V176.578H379.672V166.312H381.156ZM381.75 178.828V180.031H372.281V175.594H373.766V178.828H381.75ZM396.766 172.062V173.25H383.984V172.062H396.766ZM395.25 169.859V171.047H385.656V166.734H395.109V167.938H387.141V169.859H395.25ZM395.141 174.359V177.75H386.984V179H395.531V180.172H385.531V176.656H393.672V175.5H385.516V174.359H395.141ZM401.609 167.375C403.508 167.375 404.898 168.984 405.125 171.578H408.016V166.328H409.484V180.359H408.016V172.781H405.141C404.977 175.508 403.555 177.203 401.609 177.203C399.516 177.203 398.047 175.297 398.062 172.281C398.047 169.281 399.516 167.375 401.609 167.375ZM401.609 168.703C400.344 168.703 399.469 170.078 399.469 172.281C399.469 174.5 400.344 175.875 401.609 175.875C402.875 175.875 403.75 174.5 403.75 172.281C403.75 170.078 402.875 168.703 401.609 168.703ZM422.547 166.328V171.906H424.719V173.141H422.547V180.312H421.062V166.328H422.547ZM418.891 167.797C418.875 171.844 417.094 175.453 412.484 177.734L411.656 176.578C415.164 174.828 417.07 172.297 417.375 169.031H412.359V167.797H418.891ZM438.281 177.344V178.578H425.469V177.344H428.531V173.688C427.383 173.055 426.688 172.047 426.688 170.797C426.688 168.594 428.844 167.141 431.844 167.141C434.859 167.141 437.016 168.594 437.016 170.797C437.016 172.031 436.344 173.023 435.219 173.656V177.344H438.281ZM431.844 168.328C429.641 168.328 428.125 169.281 428.125 170.797C428.125 172.297 429.641 173.281 431.844 173.281C434.031 173.281 435.578 172.297 435.578 170.797C435.578 169.281 434.031 168.328 431.844 168.328ZM430 177.344H433.719V174.219C433.148 174.367 432.516 174.438 431.844 174.438C431.188 174.438 430.562 174.367 430 174.234V177.344ZM441.875 167.688L441.734 175.734H440.188L440.047 167.688H441.875ZM440.969 179.109C440.359 179.109 439.844 178.609 439.859 178C439.844 177.391 440.359 176.891 440.969 176.891C441.562 176.891 442.078 177.391 442.078 178C442.078 178.609 441.562 179.109 440.969 179.109ZM61.3281 203.328V204.547H48.5156V203.328H54.125V200H55.5938V203.328H61.3281ZM55.625 194.281C55.625 196.5 58.0625 198.578 60.7656 199.031L60.125 200.25C57.8594 199.797 55.7734 198.398 54.8438 196.469C53.9219 198.391 51.8594 199.812 49.6094 200.25L48.9531 199.031C51.6406 198.578 54.0625 196.5 54.0625 194.281V193.219H55.625V194.281ZM75.1094 198.812V200.016H69.4531V201.359C72.0234 201.5 73.5469 202.367 73.5469 203.828C73.5469 205.422 71.7344 206.312 68.7188 206.297C65.6719 206.312 63.8594 205.422 63.8594 203.828C63.8594 202.367 65.3828 201.5 67.9844 201.359V200.016H62.3438V198.812H75.1094ZM68.7188 202.484C66.5781 202.484 65.3594 202.969 65.3594 203.828C65.3594 204.672 66.5781 205.172 68.7188 205.156C70.8281 205.172 72.0625 204.672 72.0625 203.828C72.0625 202.969 70.8281 202.484 68.7188 202.484ZM73.9688 192.969V194.156H69.7188C69.9297 195.508 71.8984 196.656 74.4531 196.906L73.9219 198.078C71.5 197.797 69.4922 196.773 68.7344 195.281C67.9531 196.773 65.9531 197.797 63.5312 198.078L63.0156 196.906C65.5312 196.656 67.5078 195.508 67.7188 194.156H63.5156V192.969H73.9688ZM87.1719 192.344V196.844H89.2031V198.078H87.1719V202.812H85.6875V192.344H87.1719ZM84.5312 193.969V195.172H76.1875V193.969H79.625V192.328H81.1094V193.969H84.5312ZM80.3594 195.844C82.375 195.844 83.75 196.891 83.75 198.484C83.75 200.078 82.375 201.109 80.3594 201.109C78.3281 201.109 76.9531 200.078 76.9531 198.484C76.9531 196.891 78.3281 195.844 80.3594 195.844ZM80.3594 196.984C79.1719 196.984 78.375 197.562 78.3906 198.484C78.375 199.391 79.1719 199.953 80.3594 199.953C81.5469 199.953 82.3438 199.391 82.3594 198.484C82.3438 197.562 81.5469 196.984 80.3594 196.984ZM87.7656 204.828V206.031H78.2969V201.984H79.7812V204.828H87.7656ZM105.953 193.875V195.094H94.5625V193.875H99.5469V192.266H101.016V193.875H105.953ZM106.719 201.391V202.609H101.016V206.344H99.5469V202.609H93.9062V201.391H106.719ZM100.281 195.812C103.188 195.812 104.938 196.641 104.938 198.172C104.938 199.672 103.188 200.5 100.281 200.516C97.3594 200.5 95.6094 199.672 95.625 198.172C95.6094 196.641 97.3594 195.812 100.281 195.812ZM100.281 196.922C98.2656 196.922 97.1562 197.359 97.1562 198.172C97.1562 198.953 98.2656 199.391 100.281 199.391C102.281 199.391 103.391 198.953 103.406 198.172C103.391 197.359 102.281 196.922 100.281 196.922ZM119.375 192.328V206.328H117.875V192.328H119.375ZM115.203 193.828C115.203 197.922 113.453 201.484 108.656 203.781L107.875 202.578C111.602 200.805 113.414 198.281 113.703 195.016H108.547V193.828H115.203ZM130.359 194.844C130.359 196.625 131.594 198.328 133.734 199.047L132.984 200.203C131.398 199.656 130.234 198.562 129.625 197.188C129.016 198.703 127.805 199.891 126.156 200.469L125.359 199.312C127.547 198.562 128.859 196.766 128.875 194.828V194.453H125.797V193.25H133.375V194.453H130.359V194.844ZM136.469 192.328V195.922H138.5V197.172H136.469V200.766H134.984V192.328H136.469ZM136.469 201.453V206.328H134.984V202.656H127.219V201.453H136.469ZM144.266 194.422C144.266 196.391 145.531 198.141 147.656 198.828L146.844 199.984C145.305 199.43 144.172 198.352 143.562 196.953C142.953 198.555 141.734 199.797 140.047 200.406L139.25 199.219C141.484 198.453 142.781 196.594 142.797 194.484V193.109H144.266V194.422ZM150.969 192.328V200.594H149.484V196.391H146.531V195.172H149.484V192.328H150.969ZM146.281 200.984C149.219 200.984 151.016 201.953 151.016 203.656C151.016 205.344 149.219 206.312 146.281 206.297C143.344 206.312 141.531 205.344 141.547 203.656C141.531 201.953 143.344 200.984 146.281 200.984ZM146.281 202.141C144.234 202.141 143.016 202.688 143.016 203.656C143.016 204.594 144.234 205.125 146.281 205.125C148.328 205.125 149.547 204.594 149.547 203.656C149.547 202.688 148.328 202.141 146.281 202.141ZM160.047 194.641V195.844H153.094V194.641H155.844V192.734H157.312V194.641H160.047ZM156.578 196.688C158.359 196.688 159.609 198.016 159.625 199.906C159.609 201.812 158.359 203.156 156.578 203.156C154.828 203.156 153.531 201.812 153.547 199.906C153.531 198.016 154.828 196.688 156.578 196.688ZM156.578 197.922C155.562 197.922 154.859 198.75 154.859 199.906C154.859 201.094 155.562 201.891 156.578 201.891C157.578 201.891 158.312 201.094 158.312 199.906C158.312 198.75 157.578 197.922 156.578 197.922ZM165.109 192.328V206.328H163.703V199.375H162.094V205.672H160.688V192.641H162.094V198.156H163.703V192.328H165.109ZM179.719 200.219V201.422H174.031V206.312H172.578V201.422H166.953V200.219H179.719ZM178.516 193.156V194.344H174.188C174.211 196.078 176.367 197.625 179.016 197.984L178.469 199.156C176.172 198.797 174.188 197.664 173.344 196.062C172.477 197.664 170.5 198.797 168.234 199.156L167.672 197.984C170.289 197.625 172.445 196.078 172.5 194.344H168.141V193.156H178.516ZM192.391 192.344V202.594H190.906V192.344H192.391ZM192.812 204.828V206.031H183.234V201.625H184.734V204.828H192.812ZM185.875 194.5C185.859 196.547 187.172 198.422 189.328 199.172L188.562 200.359C186.945 199.758 185.75 198.57 185.125 197.047C184.508 198.672 183.297 199.977 181.656 200.609L180.859 199.438C183.062 198.625 184.359 196.609 184.359 194.5V193.109H185.875V194.5ZM211.312 199.656V200.844H205.75V203.422H204.281V200.844H198.5V199.656H211.312ZM209.891 204.828V206.031H200.094V202.203H201.562V204.828H209.891ZM201.656 192.766V194.469H208.141V192.766H209.625V198.422H200.188V192.766H201.656ZM201.656 197.234H208.141V195.578H201.656V197.234ZM215.812 193.984C215.797 197.125 215.406 200.359 213.453 203.109L212.297 202.453C213.93 200.266 214.422 197.844 214.531 195.203H212.625V193.984H215.812ZM218.922 193.984C218.922 195.164 218.898 196.453 218.75 197.75H220.391V192.688H221.797V205.641H220.391V198.953H218.578C218.258 200.695 217.672 202.422 216.594 203.953L215.438 203.281C217.25 200.852 217.578 197.906 217.641 195.203H216.234V193.984H218.922ZM224.453 192.328V206.328H223.031V192.328H224.453ZM236.453 192.625C239.531 192.625 241.453 193.625 241.453 195.312C241.453 196.969 239.531 197.953 236.453 197.953C233.391 197.953 231.453 196.969 231.453 195.312C231.453 193.625 233.391 192.625 236.453 192.625ZM236.453 193.797C234.297 193.797 232.969 194.344 232.984 195.312C232.969 196.25 234.297 196.781 236.453 196.797C238.594 196.781 239.922 196.25 239.922 195.312C239.922 194.344 238.594 193.797 236.453 193.797ZM241.281 201.484V206.156H231.609V201.484H241.281ZM233.078 202.672V204.953H239.844V202.672H233.078ZM242.844 199.031V200.234H230.078V199.031H242.844ZM256.719 203.406V204.656H243.906V203.406H247.406V200.938H245.469V196.484H253.688V194.531H245.438V193.312H255.156V197.688H246.938V199.719H255.484V200.938H253.359V203.406H256.719ZM248.844 203.406H251.906V200.938H248.844V203.406ZM272.828 193.172V194.453C272.828 195.914 272.828 197.531 272.344 199.812H274.406V201.016H268.781V206.312H267.297V201.016H261.641V199.812H270.891C271.102 198.898 271.234 198.078 271.312 197.328L263 197.75L262.812 196.469L271.391 196.203C271.422 195.578 271.422 195 271.422 194.453V194.375H263.219V193.172H272.828ZM287.031 192.922V194.141H285V197.078H286.969V198.25H282.578V199.828H288.234V201.016H275.469V199.828H281.109V198.25H276.703V197.078H278.688V194.141H276.641V192.922H287.031ZM286.797 204.828V206.031H277.078V202.141H278.578V204.828H286.797ZM280.156 197.078H283.516V194.141H280.156V197.078ZM295.672 192.562C298.828 192.562 300.672 193.406 300.672 194.969C300.672 196.531 298.828 197.391 295.672 197.391C292.516 197.391 290.672 196.531 290.672 194.969C290.672 193.406 292.516 192.562 295.672 192.562ZM295.672 193.656C293.438 193.656 292.203 194.141 292.219 194.969C292.203 195.828 293.438 196.281 295.672 196.281C297.906 196.281 299.141 195.828 299.141 194.969C299.141 194.141 297.906 193.656 295.672 193.656ZM302.062 198.25V199.438H289.297V198.25H302.062ZM300.453 200.516V203.797H292.297V205.047H300.844V206.188H290.844V202.719H298.984V201.625H290.828V200.516H300.453ZM318.031 192.328V195.625H320.062V196.859H318.031V200.234H316.547V192.328H318.031ZM314.172 193.203C314.156 196.797 311.734 199.312 307.562 200.438L306.969 199.25C310.312 198.367 312.289 196.609 312.562 194.422H307.625V193.203H314.172ZM318.031 200.828V206.141H309.062V200.828H318.031ZM310.547 202.062V204.953H316.562V202.062H310.547ZM325.719 195.891C325.703 198.375 327.141 200.906 329.234 201.922L328.312 203.109C326.789 202.32 325.609 200.75 325 198.875C324.367 200.875 323.141 202.547 321.547 203.375L320.625 202.172C322.781 201.141 324.234 198.453 324.234 195.891V193.5H325.719V195.891ZM331.766 192.328V197.906H334.016V199.172H331.766V206.328H330.281V192.328H331.766ZM339.25 193.328C341.469 193.312 343.047 194.688 343.062 196.656C343.047 198.625 341.469 200 339.25 200C337.047 200 335.422 198.625 335.438 196.656C335.422 194.688 337.047 193.312 339.25 193.328ZM339.25 194.609C337.891 194.609 336.891 195.422 336.906 196.656C336.891 197.891 337.891 198.703 339.25 198.703C340.609 198.703 341.609 197.891 341.609 196.656C341.609 195.422 340.609 194.609 339.25 194.609ZM346.266 192.328V206.359H344.781V192.328H346.266ZM334.766 202.109C337.312 202.109 340.844 202.078 343.906 201.641L344.016 202.719C340.844 203.328 337.453 203.344 334.953 203.344L334.766 202.109ZM359.5 193.719V202.812H352.953V193.719H359.5ZM354.406 194.891V201.609H358.031V194.891H354.406ZM363.328 192.328V197.812H365.578V199.062H363.328V206.328H361.844V192.328H363.328ZM372.625 192.625C375.703 192.625 377.625 193.625 377.625 195.312C377.625 196.969 375.703 197.953 372.625 197.953C369.562 197.953 367.625 196.969 367.625 195.312C367.625 193.625 369.562 192.625 372.625 192.625ZM372.625 193.797C370.469 193.797 369.141 194.344 369.156 195.312C369.141 196.25 370.469 196.781 372.625 196.797C374.766 196.781 376.094 196.25 376.094 195.312C376.094 194.344 374.766 193.797 372.625 193.797ZM377.453 201.484V206.156H367.781V201.484H377.453ZM369.25 202.672V204.953H376.016V202.672H369.25ZM379.016 199.031V200.234H366.25V199.031H379.016ZM386.453 193.172C389.391 193.172 391.625 194.719 391.625 197.078C391.625 199.438 389.391 201 386.453 200.984C383.516 201 381.297 199.438 381.297 197.078C381.297 194.719 383.516 193.172 386.453 193.172ZM386.453 194.375C384.312 194.359 382.703 195.453 382.719 197.078C382.703 198.719 384.312 199.766 386.453 199.766C388.594 199.766 390.188 198.719 390.188 197.078C390.188 195.453 388.594 194.359 386.453 194.375ZM392.891 203.281V204.516H380.078V203.281H392.891ZM406.719 203.406V204.656H393.906V203.406H399.547V200.953H395.469V196.5H403.688V194.531H395.438V193.312H405.156V197.688H396.938V199.734H405.484V200.953H401.016V203.406H406.719ZM422.984 198.969V200.188H413.234V193.578H422.859V194.797H414.703V198.969H422.984ZM424.453 203.25V204.484H411.641V203.25H424.453ZM437.125 192.328V206.359H435.656V200.5H432.922V199.266H435.656V196.672H433V195.453H435.656V192.328H437.125ZM432.156 193.562V198.672H427.469V201.891C429.453 201.883 431.109 201.789 433.109 201.5L433.234 202.719C431.047 203.062 429.266 203.125 427.047 203.125H425.984V197.5H430.703V194.766H425.953V193.562H432.156ZM452.109 203.344V204.578H439.297V203.344H442.359V199.688C441.211 199.055 440.516 198.047 440.516 196.797C440.516 194.594 442.672 193.141 445.672 193.141C448.688 193.141 450.844 194.594 450.844 196.797C450.844 198.031 450.172 199.023 449.047 199.656V203.344H452.109ZM445.672 194.328C443.469 194.328 441.953 195.281 441.953 196.797C441.953 198.297 443.469 199.281 445.672 199.281C447.859 199.281 449.406 198.297 449.406 196.797C449.406 195.281 447.859 194.328 445.672 194.328ZM443.828 203.344H447.547V200.219C446.977 200.367 446.344 200.438 445.672 200.438C445.016 200.438 444.391 200.367 443.828 200.234V203.344ZM454.719 205.109C454.109 205.109 453.594 204.609 453.609 204C453.594 203.391 454.109 202.891 454.719 202.891C455.312 202.891 455.828 203.391 455.828 204C455.828 204.609 455.312 205.109 454.719 205.109Z" fill="#F1EEFF"/>
<path d="M969.313 71.7853C970.134 70.5726 971.481 69.8125 972.942 69.7178C988.842 68.6867 997.112 71.6395 1007.96 80.4534C1009.51 81.7191 1010.1 83.8223 1009.49 85.7339L1005.12 99.3902C1004.28 102.029 1001.45 103.479 998.819 102.624L965.706 91.8862C963.12 91.0475 961.656 88.2874 962.511 85.7067C964.178 80.6767 965.895 76.8363 969.313 71.7853Z" fill="#70C88E"/>
<rect x="952.969" y="82.7474" width="56.4321" height="6.52229" rx="3.26115" transform="rotate(18.4755 952.969 82.7474)" fill="#70C88E"/>
</svg>
