<svg width="56" height="56" viewBox="0 0 56 56" fill="none" xmlns="http://www.w3.org/2000/svg">
<path d="M28.668 36.624C31.9955 36.6241 34.6934 39.3219 34.6934 42.6494C34.6932 45.9768 31.9954 48.6737 28.668 48.6738C25.3405 48.6738 22.6428 45.9769 22.6426 42.6494C22.6426 39.3218 25.3404 36.624 28.668 36.624ZM28.543 7C30.8306 7.00015 32.6846 8.85494 32.6846 11.1426C32.6844 13.4301 30.8305 15.284 28.543 15.2842C26.2553 15.2842 24.4005 13.4302 24.4004 11.1426C24.4004 8.85485 26.2552 7 28.543 7Z" fill="#FFC700"/>
<path d="M12.3967 25.3104C12.7918 16.75 19.8472 10.0127 28.4167 10.0127C36.9863 10.0127 44.0417 16.75 44.4368 25.3104L44.4839 26.3309L44.6094 34.4899L46.8443 39.8702C47.3937 41.1928 46.4217 42.649 44.9895 42.649H12.0103C10.6008 42.649 9.62979 41.2352 10.1357 39.9197L12.2241 34.4899L12.3496 26.3309L12.3967 25.3104Z" fill="url(#paint0_linear_1879_13522)"/>
<defs>
<linearGradient id="paint0_linear_1879_13522" x1="28.5423" y1="10.0127" x2="28.5423" y2="42.649" gradientUnits="userSpaceOnUse">
<stop stop-color="#FFEDAC"/>
<stop offset="0.692308" stop-color="#FFDA57"/>
</linearGradient>
</defs>
</svg>
